<mxfile host="65bd71144e">
    <diagram id="Fn0OlYHrJXeGFu8Fx7_J" name="Page-1">
        <mxGraphModel dx="1160" dy="523" grid="1" gridSize="10" guides="1" tooltips="1" connect="1" arrows="1" fold="1" page="1" pageScale="1" pageWidth="1654" pageHeight="2336" math="0" shadow="0">
            <root>
                <mxCell id="0"/>
                <mxCell id="1" parent="0"/>
                <mxCell id="11" value="" style="edgeStyle=orthogonalEdgeStyle;html=1;startArrow=block;startFill=1;endArrow=none;endFill=0;" edge="1" parent="1" source="3" target="7">
                    <mxGeometry relative="1" as="geometry"/>
                </mxCell>
                <mxCell id="16" value="" style="edgeStyle=orthogonalEdgeStyle;html=1;startArrow=block;startFill=1;endArrow=none;endFill=0;" edge="1" parent="1" source="3" target="12">
                    <mxGeometry relative="1" as="geometry"/>
                </mxCell>
                <mxCell id="3" value="Resource&#10;" style="swimlane;fontStyle=1;align=center;verticalAlign=top;childLayout=stackLayout;horizontal=1;startSize=26;horizontalStack=0;resizeParent=1;resizeParentMax=0;resizeLast=0;collapsible=1;marginBottom=0;" vertex="1" parent="1">
                    <mxGeometry x="760" y="480" width="160" height="86" as="geometry"/>
                </mxCell>
                <mxCell id="4" value="+ field: type" style="text;strokeColor=none;fillColor=none;align=left;verticalAlign=top;spacingLeft=4;spacingRight=4;overflow=hidden;rotatable=0;points=[[0,0.5],[1,0.5]];portConstraint=eastwest;" vertex="1" parent="3">
                    <mxGeometry y="26" width="160" height="26" as="geometry"/>
                </mxCell>
                <mxCell id="5" value="" style="line;strokeWidth=1;fillColor=none;align=left;verticalAlign=middle;spacingTop=-1;spacingLeft=3;spacingRight=3;rotatable=0;labelPosition=right;points=[];portConstraint=eastwest;" vertex="1" parent="3">
                    <mxGeometry y="52" width="160" height="8" as="geometry"/>
                </mxCell>
                <mxCell id="6" value="+ method(type): type" style="text;strokeColor=none;fillColor=none;align=left;verticalAlign=top;spacingLeft=4;spacingRight=4;overflow=hidden;rotatable=0;points=[[0,0.5],[1,0.5]];portConstraint=eastwest;" vertex="1" parent="3">
                    <mxGeometry y="60" width="160" height="26" as="geometry"/>
                </mxCell>
                <mxCell id="103" value="" style="edgeStyle=orthogonalEdgeStyle;html=1;startArrow=block;startFill=1;endArrow=none;endFill=0;" edge="1" parent="1" source="7" target="99">
                    <mxGeometry relative="1" as="geometry"/>
                </mxCell>
                <mxCell id="108" value="" style="edgeStyle=orthogonalEdgeStyle;html=1;startArrow=block;startFill=1;endArrow=none;endFill=0;" edge="1" parent="1" source="7" target="104">
                    <mxGeometry relative="1" as="geometry"/>
                </mxCell>
                <mxCell id="7" value="Shader" style="swimlane;fontStyle=1;align=center;verticalAlign=top;childLayout=stackLayout;horizontal=1;startSize=26;horizontalStack=0;resizeParent=1;resizeParentMax=0;resizeLast=0;collapsible=1;marginBottom=0;" vertex="1" parent="1">
                    <mxGeometry x="280" y="799" width="160" height="86" as="geometry">
                        <mxRectangle x="280" y="799" width="68" height="26" as="alternateBounds"/>
                    </mxGeometry>
                </mxCell>
                <mxCell id="8" value="+ field: type" style="text;strokeColor=none;fillColor=none;align=left;verticalAlign=top;spacingLeft=4;spacingRight=4;overflow=hidden;rotatable=0;points=[[0,0.5],[1,0.5]];portConstraint=eastwest;" vertex="1" parent="7">
                    <mxGeometry y="26" width="160" height="26" as="geometry"/>
                </mxCell>
                <mxCell id="9" value="" style="line;strokeWidth=1;fillColor=none;align=left;verticalAlign=middle;spacingTop=-1;spacingLeft=3;spacingRight=3;rotatable=0;labelPosition=right;points=[];portConstraint=eastwest;" vertex="1" parent="7">
                    <mxGeometry y="52" width="160" height="8" as="geometry"/>
                </mxCell>
                <mxCell id="10" value="+ method(type): type" style="text;strokeColor=none;fillColor=none;align=left;verticalAlign=top;spacingLeft=4;spacingRight=4;overflow=hidden;rotatable=0;points=[[0,0.5],[1,0.5]];portConstraint=eastwest;" vertex="1" parent="7">
                    <mxGeometry y="60" width="160" height="26" as="geometry"/>
                </mxCell>
                <mxCell id="12" value="TexAllState" style="swimlane;fontStyle=1;align=center;verticalAlign=top;childLayout=stackLayout;horizontal=1;startSize=26;horizontalStack=0;resizeParent=1;resizeParentMax=0;resizeLast=0;collapsible=1;marginBottom=0;" vertex="1" parent="1">
                    <mxGeometry x="880" y="640" width="160" height="86" as="geometry"/>
                </mxCell>
                <mxCell id="13" value="+ field: type" style="text;strokeColor=none;fillColor=none;align=left;verticalAlign=top;spacingLeft=4;spacingRight=4;overflow=hidden;rotatable=0;points=[[0,0.5],[1,0.5]];portConstraint=eastwest;" vertex="1" parent="12">
                    <mxGeometry y="26" width="160" height="26" as="geometry"/>
                </mxCell>
                <mxCell id="14" value="" style="line;strokeWidth=1;fillColor=none;align=left;verticalAlign=middle;spacingTop=-1;spacingLeft=3;spacingRight=3;rotatable=0;labelPosition=right;points=[];portConstraint=eastwest;" vertex="1" parent="12">
                    <mxGeometry y="52" width="160" height="8" as="geometry"/>
                </mxCell>
                <mxCell id="15" value="+ method(type): type" style="text;strokeColor=none;fillColor=none;align=left;verticalAlign=top;spacingLeft=4;spacingRight=4;overflow=hidden;rotatable=0;points=[[0,0.5],[1,0.5]];portConstraint=eastwest;" vertex="1" parent="12">
                    <mxGeometry y="60" width="160" height="26" as="geometry"/>
                </mxCell>
                <mxCell id="21" value="" style="edgeStyle=orthogonalEdgeStyle;html=1;startArrow=block;startFill=1;endArrow=none;endFill=0;entryX=0.5;entryY=0;entryDx=0;entryDy=0;" edge="1" parent="1" source="17" target="12">
                    <mxGeometry relative="1" as="geometry">
                        <mxPoint x="1120" y="646" as="targetPoint"/>
                    </mxGeometry>
                </mxCell>
                <mxCell id="26" value="" style="edgeStyle=orthogonalEdgeStyle;html=1;startArrow=block;startFill=1;endArrow=none;endFill=0;" edge="1" parent="1" source="17" target="22">
                    <mxGeometry relative="1" as="geometry"/>
                </mxCell>
                <mxCell id="31" value="" style="edgeStyle=orthogonalEdgeStyle;html=1;startArrow=block;startFill=1;endArrow=none;endFill=0;" edge="1" parent="1" source="17" target="27">
                    <mxGeometry relative="1" as="geometry"/>
                </mxCell>
                <mxCell id="36" value="" style="edgeStyle=orthogonalEdgeStyle;html=1;startArrow=block;startFill=1;endArrow=none;endFill=0;" edge="1" parent="1" source="17" target="32">
                    <mxGeometry relative="1" as="geometry"/>
                </mxCell>
                <mxCell id="17" value="MObject" style="swimlane;fontStyle=1;align=center;verticalAlign=top;childLayout=stackLayout;horizontal=1;startSize=26;horizontalStack=0;resizeParent=1;resizeParentMax=0;resizeLast=0;collapsible=1;marginBottom=0;" vertex="1" parent="1">
                    <mxGeometry x="1040" y="480" width="160" height="86" as="geometry"/>
                </mxCell>
                <mxCell id="18" value="+ field: type" style="text;strokeColor=none;fillColor=none;align=left;verticalAlign=top;spacingLeft=4;spacingRight=4;overflow=hidden;rotatable=0;points=[[0,0.5],[1,0.5]];portConstraint=eastwest;" vertex="1" parent="17">
                    <mxGeometry y="26" width="160" height="26" as="geometry"/>
                </mxCell>
                <mxCell id="19" value="" style="line;strokeWidth=1;fillColor=none;align=left;verticalAlign=middle;spacingTop=-1;spacingLeft=3;spacingRight=3;rotatable=0;labelPosition=right;points=[];portConstraint=eastwest;" vertex="1" parent="17">
                    <mxGeometry y="52" width="160" height="8" as="geometry"/>
                </mxCell>
                <mxCell id="20" value="+ method(type): type" style="text;strokeColor=none;fillColor=none;align=left;verticalAlign=top;spacingLeft=4;spacingRight=4;overflow=hidden;rotatable=0;points=[[0,0.5],[1,0.5]];portConstraint=eastwest;" vertex="1" parent="17">
                    <mxGeometry y="60" width="160" height="26" as="geometry"/>
                </mxCell>
                <mxCell id="42" value="" style="edgeStyle=orthogonalEdgeStyle;html=1;startArrow=block;startFill=1;endArrow=none;endFill=0;entryX=0.5;entryY=0;entryDx=0;entryDy=0;" edge="1" parent="1" source="22" target="129">
                    <mxGeometry relative="1" as="geometry">
                        <Array as="points">
                            <mxPoint x="1200" y="760"/>
                            <mxPoint x="760" y="760"/>
                        </Array>
                    </mxGeometry>
                </mxCell>
                <mxCell id="47" value="" style="edgeStyle=orthogonalEdgeStyle;html=1;startArrow=block;startFill=1;endArrow=none;endFill=0;" edge="1" parent="1" source="22" target="43">
                    <mxGeometry relative="1" as="geometry">
                        <Array as="points">
                            <mxPoint x="1200" y="760"/>
                            <mxPoint x="560" y="760"/>
                        </Array>
                    </mxGeometry>
                </mxCell>
                <mxCell id="52" value="" style="edgeStyle=orthogonalEdgeStyle;html=1;startArrow=block;startFill=1;endArrow=none;endFill=0;" edge="1" parent="1" source="22" target="48">
                    <mxGeometry relative="1" as="geometry">
                        <Array as="points">
                            <mxPoint x="1200" y="760"/>
                            <mxPoint x="960" y="760"/>
                        </Array>
                    </mxGeometry>
                </mxCell>
                <mxCell id="57" value="" style="edgeStyle=orthogonalEdgeStyle;html=1;startArrow=block;startFill=1;endArrow=none;endFill=0;exitX=0.5;exitY=1;exitDx=0;exitDy=0;" edge="1" parent="1" source="22" target="53">
                    <mxGeometry relative="1" as="geometry">
                        <mxPoint x="1180" y="760" as="sourcePoint"/>
                        <Array as="points">
                            <mxPoint x="1200" y="1003"/>
                        </Array>
                    </mxGeometry>
                </mxCell>
                <mxCell id="62" value="" style="edgeStyle=orthogonalEdgeStyle;html=1;startArrow=block;startFill=1;endArrow=none;endFill=0;entryX=0.5;entryY=0;entryDx=0;entryDy=0;" edge="1" parent="1" source="22" target="7">
                    <mxGeometry relative="1" as="geometry">
                        <Array as="points">
                            <mxPoint x="1200" y="760"/>
                            <mxPoint x="360" y="760"/>
                        </Array>
                    </mxGeometry>
                </mxCell>
                <mxCell id="67" value="" style="edgeStyle=orthogonalEdgeStyle;html=1;startArrow=block;startFill=1;endArrow=none;endFill=0;" edge="1" parent="1" source="22" target="63">
                    <mxGeometry relative="1" as="geometry">
                        <Array as="points">
                            <mxPoint x="1200" y="760"/>
                            <mxPoint x="1360" y="760"/>
                        </Array>
                    </mxGeometry>
                </mxCell>
                <mxCell id="72" value="" style="edgeStyle=orthogonalEdgeStyle;html=1;startArrow=block;startFill=1;endArrow=none;endFill=0;" edge="1" parent="1" source="22" target="68">
                    <mxGeometry relative="1" as="geometry">
                        <Array as="points">
                            <mxPoint x="1200" y="760"/>
                            <mxPoint x="1560" y="760"/>
                        </Array>
                    </mxGeometry>
                </mxCell>
                <mxCell id="77" value="" style="edgeStyle=orthogonalEdgeStyle;html=1;startArrow=block;startFill=1;endArrow=none;endFill=0;" edge="1" parent="1" source="22" target="73">
                    <mxGeometry relative="1" as="geometry">
                        <Array as="points">
                            <mxPoint x="1200" y="760"/>
                            <mxPoint x="1760" y="760"/>
                        </Array>
                    </mxGeometry>
                </mxCell>
                <mxCell id="82" value="" style="edgeStyle=orthogonalEdgeStyle;html=1;startArrow=block;startFill=1;endArrow=none;endFill=0;" edge="1" parent="1" source="22" target="78">
                    <mxGeometry relative="1" as="geometry">
                        <Array as="points">
                            <mxPoint x="1200" y="760"/>
                            <mxPoint x="1960" y="760"/>
                        </Array>
                    </mxGeometry>
                </mxCell>
                <mxCell id="87" value="" style="edgeStyle=orthogonalEdgeStyle;html=1;startArrow=block;startFill=1;endArrow=none;endFill=0;" edge="1" parent="1" source="22" target="83">
                    <mxGeometry relative="1" as="geometry">
                        <Array as="points">
                            <mxPoint x="1200" y="1003"/>
                        </Array>
                    </mxGeometry>
                </mxCell>
                <mxCell id="93" value="" style="edgeStyle=orthogonalEdgeStyle;html=1;startArrow=block;startFill=1;endArrow=none;endFill=0;" edge="1" parent="1" source="22" target="89">
                    <mxGeometry relative="1" as="geometry">
                        <Array as="points">
                            <mxPoint x="1200" y="920"/>
                            <mxPoint x="1560" y="920"/>
                        </Array>
                    </mxGeometry>
                </mxCell>
                <mxCell id="98" value="" style="edgeStyle=orthogonalEdgeStyle;html=1;startArrow=block;startFill=1;endArrow=none;endFill=0;" edge="1" parent="1" source="22" target="94">
                    <mxGeometry relative="1" as="geometry">
                        <Array as="points">
                            <mxPoint x="1200" y="920"/>
                            <mxPoint x="1760" y="920"/>
                        </Array>
                    </mxGeometry>
                </mxCell>
                <mxCell id="22" value="Bind" style="swimlane;fontStyle=1;align=center;verticalAlign=top;childLayout=stackLayout;horizontal=1;startSize=26;horizontalStack=0;resizeParent=1;resizeParentMax=0;resizeLast=0;collapsible=1;marginBottom=0;" vertex="1" parent="1">
                    <mxGeometry x="1120" y="640" width="160" height="86" as="geometry"/>
                </mxCell>
                <mxCell id="23" value="+ field: type" style="text;strokeColor=none;fillColor=none;align=left;verticalAlign=top;spacingLeft=4;spacingRight=4;overflow=hidden;rotatable=0;points=[[0,0.5],[1,0.5]];portConstraint=eastwest;" vertex="1" parent="22">
                    <mxGeometry y="26" width="160" height="26" as="geometry"/>
                </mxCell>
                <mxCell id="24" value="" style="line;strokeWidth=1;fillColor=none;align=left;verticalAlign=middle;spacingTop=-1;spacingLeft=3;spacingRight=3;rotatable=0;labelPosition=right;points=[];portConstraint=eastwest;" vertex="1" parent="22">
                    <mxGeometry y="52" width="160" height="8" as="geometry"/>
                </mxCell>
                <mxCell id="25" value="+ method(type): type" style="text;strokeColor=none;fillColor=none;align=left;verticalAlign=top;spacingLeft=4;spacingRight=4;overflow=hidden;rotatable=0;points=[[0,0.5],[1,0.5]];portConstraint=eastwest;" vertex="1" parent="22">
                    <mxGeometry y="60" width="160" height="26" as="geometry"/>
                </mxCell>
                <mxCell id="27" value="RenderState" style="swimlane;fontStyle=1;align=center;verticalAlign=top;childLayout=stackLayout;horizontal=1;startSize=26;horizontalStack=0;resizeParent=1;resizeParentMax=0;resizeLast=0;collapsible=1;marginBottom=0;" vertex="1" parent="1">
                    <mxGeometry x="1320" y="640" width="160" height="86" as="geometry"/>
                </mxCell>
                <mxCell id="28" value="+ field: type" style="text;strokeColor=none;fillColor=none;align=left;verticalAlign=top;spacingLeft=4;spacingRight=4;overflow=hidden;rotatable=0;points=[[0,0.5],[1,0.5]];portConstraint=eastwest;" vertex="1" parent="27">
                    <mxGeometry y="26" width="160" height="26" as="geometry"/>
                </mxCell>
                <mxCell id="29" value="" style="line;strokeWidth=1;fillColor=none;align=left;verticalAlign=middle;spacingTop=-1;spacingLeft=3;spacingRight=3;rotatable=0;labelPosition=right;points=[];portConstraint=eastwest;" vertex="1" parent="27">
                    <mxGeometry y="52" width="160" height="8" as="geometry"/>
                </mxCell>
                <mxCell id="30" value="+ method(type): type" style="text;strokeColor=none;fillColor=none;align=left;verticalAlign=top;spacingLeft=4;spacingRight=4;overflow=hidden;rotatable=0;points=[[0,0.5],[1,0.5]];portConstraint=eastwest;" vertex="1" parent="27">
                    <mxGeometry y="60" width="160" height="26" as="geometry"/>
                </mxCell>
                <mxCell id="32" value="DataBuffer" style="swimlane;fontStyle=1;align=center;verticalAlign=top;childLayout=stackLayout;horizontal=1;startSize=26;horizontalStack=0;resizeParent=1;resizeParentMax=0;resizeLast=0;collapsible=1;marginBottom=0;" vertex="1" parent="1">
                    <mxGeometry x="1760" y="640" width="160" height="86" as="geometry"/>
                </mxCell>
                <mxCell id="33" value="+ field: type" style="text;strokeColor=none;fillColor=none;align=left;verticalAlign=top;spacingLeft=4;spacingRight=4;overflow=hidden;rotatable=0;points=[[0,0.5],[1,0.5]];portConstraint=eastwest;" vertex="1" parent="32">
                    <mxGeometry y="26" width="160" height="26" as="geometry"/>
                </mxCell>
                <mxCell id="34" value="" style="line;strokeWidth=1;fillColor=none;align=left;verticalAlign=middle;spacingTop=-1;spacingLeft=3;spacingRight=3;rotatable=0;labelPosition=right;points=[];portConstraint=eastwest;" vertex="1" parent="32">
                    <mxGeometry y="52" width="160" height="8" as="geometry"/>
                </mxCell>
                <mxCell id="35" value="+ method(type): type" style="text;strokeColor=none;fillColor=none;align=left;verticalAlign=top;spacingLeft=4;spacingRight=4;overflow=hidden;rotatable=0;points=[[0,0.5],[1,0.5]];portConstraint=eastwest;" vertex="1" parent="32">
                    <mxGeometry y="60" width="160" height="26" as="geometry"/>
                </mxCell>
                <mxCell id="37" value="" style="shape=image;verticalLabelPosition=bottom;labelBackgroundColor=#ffffff;verticalAlign=top;aspect=fixed;imageAspect=0;image=data:image/png,iVBORw0KGgoAAAANSUhEUgAABIEAAANHCAYAAAChIE3mAAAgAElEQVR4nOzdeZxPdf//8edndtvYspUlSyhkV7YIJTtjSXLlksnWRVcpEZJS04VKC7mSdskgRFmHlIqUpYjB2CL7NozZ5/X7w3fOzzSLwbg+OI/77Ta3mvNezut8xsz5zHPOeR+PmZkAAAAAAABwQ/PxdgEAAAAAAAC4+giBAAAAAAAAXIAQCAAAAAAAwAUIgQAAAAAAAFyAEAgAAAAAAMAFCIEAAAAAAABcgBAIAAAAAADABQiBAAAAAAAAXIAQCAAAAAAAwAUIgQAAAAAAAFyAEAgAAAAAAMAFCIEAAAAAAABcgBAIAAAAAADABQiBAAAAAAAAXIAQCAAAAAAAwAUIgQAAAAAAAFyAEAgAAAAAAMAFCIEAAAAAAABcgBAIAAAAAADABQiBAAAAAAAAXIAQCAAAAAAAwAUIgQAAAAAAAFyAEAgAAAAAAMAFCIEAAAAAAABcgBAIAAAAAADABQiBAAAAAAAAXIAQCAAAAAAAwAUIgQAAAAAAAFyAEAgAAAAAAMAFCIEAAAAAAABcgBAIAAAAAADABQiBAAAAAAAAXIAQCAAAAAAAwAUIgQAAAAAAAFyAEAgAAAAAAMAFCIEAAAAAAABcgBAIAAAAAADABQiBAAAAAAAAXIAQCAAAAAAAwAX8vF0AAHhLjx49NGPGDG+XAVxTgoODdfr0aW+XAQAAgKuAEAiA6+XOnVt+fvw4BKKjo71dAgAAAK4ifusB4HozZ85U27ZtvV0G4HUej8fbJQAAAOAqYk0gAAAAAAAAFyAEAgAAAAAAcAFCIAAAAAAAABcgBAIAAAAAAHABQiAAAAAAAAAXIAQCAAAAAABwAUIgAAAAAAAAFyAEAgAAAAAAcAFCIAAAAAAAABcgBAIAAAAAAHABQiAAAAAAAAAXIAQCAAAAAABwAUIgAAAAAAAAFyAEAgAAAAAAcAFCIAAAAAAAABcgBAIAAAAAAHABQiAAAAAAAAAXIAQCAAAAAABwAUIgAAAAAAAAFyAEAgAAAAAAcAFCIAAAAAAAABcgBAIAAAAAAHABQiAAAAAAAAAXIAQCAAAAAABwAUIgAAAAAAAAFyAEAgAAAAAAcAFCIAAAAAAAABcgBAIAAAAAAHABQiAAAAAAAAAXIAQCAAAAAABwAUIgAAAAAAAAFyAEAgAAAAAAcAFCIAAAAAAAABcgBAIAAAAAAHABQiAAAAAAAAAXIAQCAAAAAABwAUIgAAAAAAAAFyAEAgAAAAAAcAFCIAAAAAAAABcgBAIAAAAAAHABP28XAADIeTExMYqJiZEkBQYGKn/+/JKk2NhY5cqVy5ul3RCio6P16aef6vTp0woODla3bt1UpEgReTweSdL+/fv1ySefSJIqVKigFi1aqFChQt4sGQAAACAEAgBv+u6777Ro0SJt2bLF2ZYvXz41a9ZMffr0Sdf/p59+0rvvvqtTp05JkooWLarHH39cNWvWlCSlpKRo6tSpmjx5sm699VZJ0t69e1WjRg21b99ec+bM0fTp0yVJ69at06ZNm7Rw4UKlpKRkWmPHjh1VsWJFNWrUKMeO+0pERETojz/+0LJly7Ls98gjj6hChQqqUaNGju5/xYoV+uKLL9S2bVuZmYYMGaJBgwbprbfe0sCBAzV16lQdOHBAdevW1apVqzRixAgFBwdr7ty5atasWY7WAgAAAFwSAwCXeuihh0ySLViwwKt1nDx50ho0aGCSTJKFhYVl2f/o0aMmyYoVK2YbN25M0zZw4EALCgqyGTNmpJl/2LBhFhgYaPfcc0+6+SZPnuzse+TIkXbkyBHnY968eVa3bl3z9/e3kiVL2uTJky0pKemKjzk5Odmio6Mve3xSUpI988wzTt2rV692at69e7eFhYXZTTfdZIGBgdavXz+Lj4+/4prNzLZu3Wo333yz/fbbb8628PBwy5Url91zzz329ddfW9myZe348eNOnSNGjDCPx2PDhg3LkRquJkkWHBzs7TIAAABwlXAlEAB4WYECBTRy5Ei1bt1akhQUFHTR/pI0ZswYVa9e3dm+c+dOffLJJxo9erS6d++epn9YWJj8/f21atWqdPPdddddzv/36tVLRYoUcT7v0KGD2rVrp/DwcD322GMaOHCgDhw4oLFjx17ewf6fWbNmyczS1HkpfH19VbduXefzhg0bOv9fpEgRDRs2TM2bN1fr1q313//+V5I0ZcqUK6pZkiZNmqSjR4+qWrVqzrauXbuqYsWKuummm9S+fXuVLl3aufXL19dXY8eOVcuWLXP8iiQAAADgUrEwNABcA1q2bOkECx9++GGWfX/44QeVL19e3bp1S7P9nXfe0dmzZ1WiRIkMxw0fPvyyavPx8VH37t01btw4SdLLL7+sV1999bLmks6vV/T8889f9vjsqlu3rv7xj39IOv+arl+//ornzOxrU716dR09elQbNmzIsL1x48bKly/fFe8fAAAAuBKEQABwDfDx8dFzzz0nSdq+fXumYYIkhYWFqVmzZipYsGCa7anr+kyaNEnHjh1LNy4wMFBt2rS57BpDQ0N17733SpLGjRun2NjYdH1iY2Odj8TExHTtSUlJ6tGjh7Zv357pfswszTxJSUmXXfPtt98uSUpISNCuXbsue55UWa2dZGYys4vOkZiY6BxbQkJCpvtJbUtKSlJsbGyW+wYAAACygxAIAK4R9957rwoWLKi4uDiNGjUqwz779u3Tr7/+qmeffTZdW5MmTSSdX/D5vvvu09GjR9O0+/j4KCQk5LLr8/f31+DBgyVJJ0+e1EcffeS07dmzR8OGDVPt2rXVpk0bVahQQVWrVtWcOXOcPr/88osaN26sr776StL5K5cefvhhPfzww86TzLZt26b+/furbt26atOmjUqWLKl69epleBtbdvz111+SJD8/P+c2t6ioKL355pvOvlP7SNI333yjZ599Vg8//LBefPFFZ/vAgQP18MMPKyEhQUlJSc7YCRMm6PDhw3r44Yc1YsQISdLWrVud9vnz56epZ/ny5erSpYvatGmjypUrq1KlSs5TxFJfxw8//FAdOnTQY489ptWrV+vuu+9W7ty51bt378t6DQAAAACHd5ckAgDvuVYWhr7Q008/bZLM4/HYuXPn0rWPGDHCatWqleHYuLg4q1evnrNYctGiRe3LL7+0uLi4LPf566+/OmN27NiRZd8tW7ZYrly5TJL17dvX2W+VKlWsYsWKdujQITMzO3LkiNWoUcOCgoIsMjLSzMyOHTtmUVFR1r17d5Nkb775pkVFRVlUVJQlJSXZuXPnLDg42OrXr29nzpwxM7O//vrLihYtannz5rWYmJg0tYSHhzt1Z2TPnj1WsmRJk2QPPPBAutfqzjvvNEm2devWNG3fffedSbJGjRqlmSsqKsoCAwPNz8/PqfvgwYOWkJBgUVFR9tVXX5kkq1evntN+8uRJZ44hQ4bYiBEjnEWjd+3aZRUrVrSAgACbOnWqmZlNmTLFOnfubJKsRo0aVrNmTRs6dKgVK1bMOnfunOXXJieIhaEBAABuaFwJBADXkCeffFJBQUEyM4WFhaVrnzNnTqZr+wQGBuqLL75QqVKlJElHjhxRSEiImjZtetHHqWfXHXfcody5c0uSfv31V0nn1yjasmWL7rjjDhUrVkzS+cWZe/furbi4OOdKl8KFC6tcuXIKDg6WdP7x9uXKlVO5cuXk6+urGTNmKDo6WvXq1VPevHklSSVKlFDPnj119uxZff7555nWNXfu3DQf/fr107333qv9+/erb9++Cg8PT/daZbYAd2p9FypTpozKlSsnHx8feTwep+7ixYvL399f5cqVU8mSJSVJuXLlctpTF/HeuXOnVq1apbFjxzqLRpctW1YRERFKTk7WoEGDJEn9+vVTz549JUnHjx/XnDlz9J///EeHDh3S7Nmzs/zaAAAAABdDCAQA15Cbb75Z9evXlyRNmzZNhw8fdtq+/PJLnTp1Sg0aNMh0fNmyZbVlyxYNGDBAefLkkSStWbNGrVq1UmhoqKKjo3O85vLly6tWrVpq2rRpmu2nT5++pHnq1KmjihUrpnnSV3bn2b59u/OxYcMGrVy5Unv27JEkVaxYUXFxcZdUS06bPHmyKlasmKbO7du369y5c/J4PIqLi9OsWbPSjLn33ntVtmxZL1UMAACAGxGPiAeAa8zw4cO1cuVK/fXXX1q7dq3at28v6XwI9M9//lM333xzluPz5cunyZMn6/HHH9crr7yizz//XMnJyZo2bZp27NihBQsWZHi1y+UqU6aMc1WQJC1evFhhYWGXHALdeeedioyMdD7/+OOPNW3atHRrG2Xk72skvfjii1q4cKF69+6tp59+WpMmTdKKFSt06623XlJNOWXOnDnKlSuXXn755XRtPXr0kCTdcsst/+uyAAAA4DJcCQQA15gWLVqobt26kuTcErZnzx59/vnnl7Swc5UqVfTZZ59p3rx5zmPjv/vuO3355ZeXXdvGjRt19uxZSUp3RdKyZcvUoEEDrV27VkuXLr3shYxnzpypunXr6ty5c4qIiFCrVq0ua562bdtqxYoVkqTdu3erZ8+emT6N62o7fPiwmjdvro8//jjTj6yu8AIAAAByAiEQAFxjPB6PunbtKkn6+eeftXz5cs2dO1f333+/atWqlem4LVu2ZDhXhw4d9PPPP6tatWqSlOFaQ9m1c+dOxcfHS5I6d+4sSUpOTtYTTzyhZ555RpMnT9bo0aMVGBgoj8dzSXMnJSXpwQcf1DvvvKMvvvhCAwYMkL+//yXPc6GqVauqQ4cOks6vXZSdq4quloy+PgAAAMD/EiEQAFyDnnrqKZUoUUIpKSmaN2+e5syZo44dO8rX1zfTMTNnzlRUVFSGbSVLltTMmTMlSSdOnLismuLj4/Xaa69Jkho1aqRGjRpJkmbMmKG33npLvXv3Vo0aNS5rbkl69dVXFR4eriFDhqh8+fKXPc+FPB6PsxCzt/344486ePBghm179uzR6tWr/8cVAQAAwG0IgQDgGuTr6+usc/PBBx9o69atatGiRZZjTp065dz+lJHUYCVXrlyXVdPEiRO1Zs0a+fr6atSoUU4gtWjRojTzX66cmudCZqaNGzdKku655x7n6WVZOXfuXI7tP1W3bt2UmJiof/7zn0pKSkrXHhYWpnz58uX4fgEAAIALEQIBwDXq/vvvV968eRUbG6vOnTurQoUKFx3z8ssva+/evRm2LVmyRJIyfcR8ZpKTkzVp0iSNGTNGJUqU0Guvvab7778/0/kl6eTJk+medpX6tK6MPr/w/y+c58CBA/r666+dzxMTE7V///5s1/7f//5XGzZskL+/vwYOHCg/v///PIQyZcqk29+ff/6pUaNGZXv+7Hr00UeVP39+LV26VO3atdNPP/3ktL3//vvasGGDqlevnuP7BQAAAC5ECAQA16jbb79dnTp1kqRsLwi9d+9eNWvWTD///LPOnDnjbP/pp580aNAgjRo1Sn379k0zZtmyZc7/v/nmm4qMjHQ+PvjgA1WqVEnPPPOM2rZtq2XLlumJJ55IM75v377y9/fXf//7Xz3wwANO37vvvlvS+cejP/roo054k7ro9ZQpU/TMM8+oYcOGypMnjx5//HFJ0siRI9WlSxc9/vjjCg0NVePGjSWdD7hCQ0N19uxZJSYmauXKlU4NEyZMSFP3okWLdM899+hf//qXihUrpk8++UQPPvhgmrpT1zQaNmyYunXrpgEDBqh///4aM2aMpPOLSQ8bNswJqL799lslJiYqOTlZERER6V771NcxKipKO3fuTNPWtGlT53VfvHixmjRpokKFCqlQoUJ64403NHv2bKfvqVOnJEm//vrrZd+6BwAAAGTEY2bm7SIAwBt69OihGTNmaMGCBWrbtq23y8nQ1q1b1bt3b61atUqBgYFZ9h09erRq1KihP/74Q5s3b9amTZtUuHBhSecXXe7UqZOGDh3q9F+3bp02bdqkH3/8USkpKZnO27FjR5UrV0533nlnpn3eeustJxwaNGiQhg8froSEBN17773Kly+fxo0bp5YtW0qSzpw5o65du2rJkiW68847NX78eOfKoiFDhuj111+XdD706d+/v/bs2aMHHnhAt912m9566y2dOnVKkZGR+vnnn7N8PQoWLKiQkBDddtttKl68eLp2M1NYWJj+85//KDo6Wo8++qgmTJigffv2qWbNmho6dKg6duyou+++W9OnT9e6deucgCZ//vyqVq2aWrRooUKFCik8PDzN61iyZEndeuutevjhh53b71JSUjR79mz95z//0fr16yVJDzzwgKZOnaqSJUtKOr+u09q1a53wp0KFChowYIDzdbzaPB6PgoODdfr06f/J/gAAAPC/RQgEwLWuhxDIzJSSkpLlgtCpUlJS5OPj44xLTk522nx8fJy2q1Vn6v58fX2dJ3olJyfL4/Gk23dKSopT74VtlzpPTkhOTpaZOftLreHCW8dyUuqxS2mP8VpACAQAAHBjuzrvcAEAOcLj8WQrAJKUJiDxeDxXLcTISGb7y6z2zEKpS50nJ/x97qv92l3tQA4AAADIDO9CAQAAAAAAXIAQCAAAAAAAwAUIgQAAAAAAAFyAEAgAAAAAAMAFCIEAAAAAAABcgBAIAAAAAADABQiBAAAAAAAAXIAQCAAAAAAAwAUIgQAAAAAAAFyAEAgAAAAAAMAFCIEAAAAAAABcgBAIAAAAAADABQiBAAAAAAAAXIAQCAAAAAAAwAUIgQAAAAAAAFyAEAgAAAAAAMAFCIEAAAAAAABcgBAIAAAAAADABQiBAAAAAAAAXIAQCAAAAAAAwAUIgQAAAAAAAFyAEAgAAAAAAMAFCIEAAAAAAABcgBAIAAAAAADABQiBAAAAAAAAXIAQCAAAAAAAwAUIgQAAAAAAAFyAEAgAAAAAAMAFCIEAAAAAAABcgBAIAAAAAADABQiBAAAAAAAAXIAQCAAAAAAAwAUIgQAAAAAAAFyAEAgAAAAAAMAFCIEAAAAAAABcgBAIAAAAAADABQiBAAAAAAAAXMDP2wUAgLeNHDlSEydO9HYZAAAAAHBVEQIBcL1NmzZ5uwQAAAAAuOo8ZmbeLgIAvCEqKkonTpzwdhnIRLt27XT48GFFREQoX7583i7HNXx9fVWrVi1vlwEAAICrgBAIAHBNKl26tP7880+dPHlSBQoU8HY5AAAAwHWPhaEBAAAAAABcgBAIAAAAAADABQiBAAAAAAAAXIAQCAAAAAAAwAUIgQAAAAAAAFyAEAgAAAAAAMAFCIEAAAAAAABcgBAIAAAAAADABQiBAAAAAAAAXIAQCAAAAAAAwAUIgQAAAAAAAFyAEAgAAAAAAMAFCIEAAAAAAABcgBAIAAAAAADABQiBAAAAAAAAXIAQCAAAAAAAwAUIgQAAAAAAAFyAEAgAAAAAAMAFCIEAAAAAAABcgBAIAAAAAADABQiBAAAAAAAAXIAQCAAAAAAAwAUIgQAAAAAAAFyAEAgAAAAAAMAFCIEAAAAAAABcgBAIAAAAAADABQiBAAAAAAAAXIAQCAAAAAAAwAUIgQAAAAAAAFzAz9sFALg0K1as0OnTp71dBnDVnTt3TpK0cOFC5cmTx8vVAO5TsWJFValSxdtlAACAHOQxM/N2EQCyr3r16vrtt9+8XQYA4AY3fPhwvfLKK94uAwAA5CCuBAKuUyEhIcqbN6+3ywCumtmzZ+vcuXPq3r27AgICvF0O4BqRkZFau3att8sAAABXASEQcJ2aMGGCypYt6+0ygKtm2rRpMjP5+fnJ4/F4uxzANSZNmkQIBADADYoQCABwTfLz4xQFAAAA5CSeDgYAAAAAAOAChEAAAAAAAAAuQAgEAAAAAADgAoRAAAAAAAAALkAIBAAAAAAA4AKEQAAAAAAAAC5ACAQAAAAAAOAChEAAAAAAAAAuQAgEAAAAAADgAoRAAAAAAAAALkAIBAAAAAAA4AKEQAAAAAAAAC5ACAQAAAAAAOAChEAAAAAAAAAuQAgEAAAAAADgAoRAAAAAAAAALkAIBAAAAAAA4AKEQAAAAAAAAC5ACAQAAAAAAOAChEAAAAAAAAAuQAgEAAAAAADgAoRAAAAAAAAALkAIBAAAAAAA4AKEQAAAAAAAAC7g5+0C3OjAgQM6efKkt8vAdSouLk6StH37dsXExHi5GlwPbr31VuXNm9fbZSALO3fudL63AW/766+/JElHjx7V5s2bvVwNcJ6fn58qV67s7TIA4LrnMTPzdhFuExoaqmnTpnm7DAAuERERoWbNmnm7DGShZs2a2rhxo7fLAIBrVpEiRXTkyBFvlwEA1z2uBPKiihUrqnDhwt4uA8ANKjIyUidOnPB2GbgENWvWVFBQkLfLAIBrhplpzZo13i4DAG4YhEBeNHbsWHXt2tXbZQC4QXXq1Enz5s3zdhm4BLNnz1a5cuW8XQYAXDPi4+MJxwEgB7EwNAAAAAAAgAsQAgEAAAAAALgAIRAAAAAAAIALEAIBAAAAAAC4ACEQAAAAAACACxACAQAAAAAAuAAhEAAAAAAAgAsQAgEAAAAAALgAIRAAAAAAAIALEAIBAAAAAAC4ACEQAAAAAACACxACAQAAAAAAuAAhEAAAAAAAgAv4ebsA4Go7deqUUlJSJEnBwcHy8/NTSkqKkpKSFBAQcNHxMTExio+Pdz739/dXvnz5JElJSUmSJD8/vpUAAFdfQkKCzp49K0ny9fVV/vz5JUnx8fEKDAz0ZmkXlZiYqO+++05nzpxRx44dvV0OAACuxG+uuGasWLFCS5cu1fbt251tBQoUUJMmTdSrV690/b///ntNnTrVeTNcokQJDRgwQFWrVpUk7dq1S++8844iIiJUsmRJnTlzRj4+PurQoYPOnDmjKlWqqHPnzpnWExkZqbfffluLFi1SiRIlnDfaBw4cULly5dSqVSvFxcWpfv36qlOnTk6+FACA61xCQoI++eQTrVixQnFxcc72atWqqXXr1rrrrrvS9DczTZgwQT/99JOzrV69ehoyZIj8/f0lSUuWLNGYMWOUO3duBQYGav/+/apQoYIeffRRTZkyRQsWLFB0dLTCw8O1ePFi5w8gtWvX1ogRIzKsc+PGjfrll1+0fPlyJSQkKDg4WI0aNVLTpk1VoUKFHHs93n33XU2fPl0//PCDQkJCCIEAAPAWw/9cnz59TJKFh4d7u5RrzqFDh6xmzZomySTZxIkTs+wfFRVlkuzmm2+233//3dm+d+9eK1WqlNWsWdMOHjxoZmYJCQm2cuVKu+eee0ySzZ49O8M5k5KSbNSoUZY/f34bMGCA7du3z+Lj4532EydO2PTp0+2mm24ySbZu3bocOPJrX2Jiop07d87bZeASdOzY0SRZRESEt0vBRdSoUcMkWVRUlLdLQQ6bPXu2BQUFOee1mJiYTPvGx8fbqFGjTJL16NHD4uLinLZJkyaZv7+/vfDCC5aUlGRmZqdOnbJJkyZZ3rx5rVChQmnm2rx5sz300EMmyXLlymVr167Nss6PP/7YJNmKFSuu4Ggzd+TIEZs5c6ZJspCQkKuyD9yY4uLiTJIVKVLE26UAwA2BNYFwTSlWrFiav1bmzp07y/6FCxeWJIWFhTlXAEnSe++9pxMnTmjx4sUqXry4pPO3cTVt2lTz589XqVKlMp3z5Zdf1ksvvaSRI0dq8uTJKlWqVJrbxgoWLKgePXro999/V0BAgL755pvLOtbrzfvvv6/vv//e22UAwHWlc+fOuueee5zPszqvBQQEKDg4WCVKlNDbb7/t3N6VnJyssWPHqmvXrho9erR8fX0lSfnz59fAgQP1/vvvp5urSpUq+uijjyRJsbGxat26tX755ZdM992gQYM0/81pRYoUUaFCha7K3AAAIPsIgXDN6dChg8qWLStJzhvYzPz000+qXLmyOnXq5GwzM7366qvy8/NT0aJF040pUKCABg4cmOF8r732ml544QU99NBDGjJkSJb7Ll68uN577z0dPHjwYod03YuOjtaLL77o7TIA4Lo0ePBg+ficf8uVnfNa//790wQmH374oQ4ePKibb745wzFdunTJ8tatQoUK6fjx4xoxYoRzCzUAAHAnQiBcc/z8/PTcc89JkjZt2qQdO3Zk2jcsLEz333+/s1BzquTkZJ09e1Zvv/22zCzduJCQkHTbNm/erLCwMPn7++uZZ56Rx+O5aK3NmjXLMGiSzodRiYmJzsfFpPZLXWw6M0lJSc46DxeO+/txpqSkKDExUcnJyVnOl9ovszrj4uLUtWvXLMOu1JpTj/nC+gDA7dq0aaPatWtLkubMmZPheUk6f85bvny52rZtm2Z76s/x8PBw7dy5M904X1/fLNfYGT58uDwej5YuXarnnnsu0/1fzIXntYudWy6nf3Jy8iX1BwAAl44QCNekFi1aKF++fIqJidGoUaMy7LNz505t375dTz75ZLq2xo0bKzk5WYMHD9brr7+err1MmTLpFnOeM2eOjh8/rjx58qhmzZrZqrNUqVIaM2ZMuu2HDx9Wz5491bx5c9WuXVv58uXTqFGjlJCQkK7vvn37NGrUKFWrVk3NmzdXiRIl9Oijj+rIkSNp+m3atElhYWEqWrSovvjiC8XHx2vkyJHKmzevAgICNGTIEOcvvCtXrlSzZs0UEBCgSpUqacaMGRnWf+jQIfXo0UPNmzdXrVq1VKBAAb3wwgtOqLN69Wo1btxYS5culSSNHz9evXr10j//+U+dPn1ay5cvV69evVS1alUdOXJEXbp0UUBAgBo3bqxnn31WvXr1cj5mz56d4XFn1AYAN5rUBxEsXLhQK1euzLDP119/raZNm6pWrVpptqfeTrZv3z41bdpU27Zty3T+jLRv314ffPCB/P399fbbb+vjjz++5Po3bdqkDh066K677lLt2rVVs2ZNPf/885n+kWPz5s3q3r276tSpo3r16qlmzZr67dJzoIoAACAASURBVLffMp1/+fLl6tSpk5o3b66yZcuqcuXK+uKLLy65TgAAcBFeW43IxVgYOnv69etnkixPnjxpFsdM9eSTT1rDhg0zHLt06VLz9fU1Sebn52ctW7a0I0eOZLqvxMREZ0Hqxx577IrqXrBggbVq1cpZ4DUmJsY6d+5skiw0NNQSEhKcvpGRkXbrrbfav//9bzt+/LiZmY0fP958fX3TLGp96tQpGz16tFWvXt0k2UcffWQDBw60hx56yPr162d58uQxSfbMM8/Y5MmTrXTp0jZ06FDr27ev+fn5WWBgoG3bti1NnXPmzLE2bdrY3r17zczs7Nmz1q5dO5NkAwcOtISEBDt48KBFRkZay5YtTZJNmzbNIiMjLTIy0hYvXmyDBw82SVagQAGrX7++Pfnkk1a5cmW74447bNOmTXbbbbeZJGvdurUlJyene60+/vhj69y5c4ZtuHIsDH39YGHoG9/BgwetRIkSzs/Yv0tOTrbg4GD76KOP0rWlpKQ4izxLssKFC9vEiRMvulh/fHy8SbLIyEgzM2vTpo1JssDAQPvll1/S9N2xY4dJyvB8Gx4ebrly5bI5c+ZYbGysxcTEWKdOnUyS9e3bN815zcxs2bJlVrBgQfvss88sJibGYmNjbebMmRYQEJDhwtBPPfWUjRgxwo4ePWpm58+NZcuWtaCgIPvss8+yPEbc+FgYGgByFiGQFxACZc+ePXucN7zjxo1L116mTBlbuHBhpuPHjRvnjJdk+fLls6FDhzqhx4U2bdrk9Hv66acznTM+Pt4WLFiQ4cfixYvNzKxJkya2adOmNOPi4uKsbt26JslWrlxpZuefQtakSRPLnz+//fXXX2n6DxkyxCRZvXr10mxPDcYGDBhgW7ZscbYvW7bMJJmvr6/169fPzp4967Q9+OCDJslef/31NHM1aNDA/vjjjzTbYmJinF9Gf/zxR2d7ly5dTJItWbIkTf+TJ0+aJAsKCrK5c+eme70mTZpkkqxx48aWmJiYrn3EiBG2fPnydNuRMwiBrh+EQO4wYsQIk2S5c+e2AwcOpGlbsmSJVapUyaKjozMce+zYMbv77rvTnNeqVatmH374Yab7+3sIdPbsWatSpYpJsvLly9uff/7p9M0sBDp48KAFBwdbkyZN0gT2sbGxVrt2bZNko0aNcrYfPXrU6tata4MHD05XzzPPPJMuBIqMjLS77rorXd/du3c75264GyEQAOQsbgfDNevCW7beffddnTp1ymn7/PPPlZKSonr16mU6fsiQIVq3bp0qV64sSTpz5ozGjRun5s2bKzw8/LJq8vPzU506dXTmzBl17dpV7dq1U8+ePVWgQAHVrFlTS5cu1Z49e5Q3b17t2rXL+Thw4ICCg4Od2qXzi3+uWrVKDRo0UIkSJdLsJ/Wy/l9++cW5FetCjRo10h133OF83qJFC/n6+iogIEBvvPGG8uTJ47S1bNlSkrR3715n24IFC3TkyBEFBgamqfPQoUPO+kqpdWZH0aJFM1yPok+fPipfvry+//57/fDDD2nazp07p19++UWNGjXK9n4A4HqW+rP93LlzevPNN9O0ZbbGXarChQtr+fLlCgsLU4ECBSRJv//+u3r37q1u3bpp165dF91/njx59MEHH6hgwYKKiopSz549L7pm3aRJkxQdHa1OnTo5i1tLUlBQkNq0aSPp/K3CqfNMmzZNW7du1aBBg9LNdf/992c4/+23357mXLRr1y5nbbmzZ89q/vz5Fz02AACQPX7eLgDIyvDhw9W5c2ft3r1b69evV7NmzSSdX78nNDRURYoUyXSsj4+P6tSpow0bNuizzz7ThAkTFBkZqZ07d+rhhx9WTEyMevfufUn1+Pj4qHjx4nrooYc0depUrVy5Ug899JATZMydO1fHjx/PcB2jYsWKqUePHqpRo4ZzDJKczy+Uui0lJUXz5s3L8I1zZvXlypXrov3mzp2rI0eOZFhnqVKl1KNHD915553Z2mdWAgMDNXLkSPXu3VthYWFq0qSJ07Zy5Uo1atTIeQQyANzoatSooQceeECLFy/WokWLNHr0aOXOnVu7du3S+vXrNX369CzH58mTR8OGDVO3bt307rvv6o033lBycrJmzZqljRs3KiIiQqVKlcpyjnr16unTTz9V27ZttWrVKg0ZMkRvvfVWhn1jY2P19ddfO7VndDzS+QcIfPPNN2rTpo3mz5+vvHnzZvm0sgvNmTNHefPmzfB81KNHD0nnz58AACBnEALhmtaxY0fdfvvt2rp1q8LCwtSsWTNt3bpVc+fOzfYjy4OCghQaGqp27drppZde0qRJk5SUlKQXXnhBnTp1UoECBXTzzTerdOnS2rdvn3788cfLrvfgwYMqWrToRd/IS9KqVauyrLlbt24KDw+/Ko+gP3jwoG655ZZs1XmlQkJCFBYWpqVLl2rJkiVq2bKlkpKS9MEHH2jSpElXff8AcK3weDwaPny4Fi9erN9//10LFy5Ut27dNGnSJFWtWjXTR8D/Xbly5TR+/Hi1atVKQ4YM0caNG7Vjxw699dZbGj9+/EXHt2rVSiNHjtTYsWP19ttvq3bt2mrYsGG6ftHR0dqwYUOm87Rv316FChXSiRMndPDgQSUkJOinn35S8eLFs3Uc0vnz0aBBgzRx4sRsjwEAAJeP28FwTfPx8VGXLl0knQ9NfvzxR82dO1ft2rVLczvUhcxMW7duTbe9WLFievvtt/XBBx9IOv+UldQQ5KabbnJuydq4cWO2LqvPTHR0tA4cOJDt/hnV6vF45Od3dTPakydP6tChQ1d1H5IUHByswYMHy8z08ssvS5LWrFmjsmXLXtIvCgBwI6hVq5bKly8v6fwtYNL5q2GGDx+e6Zg//vgjw+3NmjXT0qVL1b59e0nSe++9p2PHjl20Bh8fH40ZM8a5neuJJ5646B9AMjpX+fr6yuPxXHR/F5PR3AAA4OogBMI1b9iwYSpSpIgSExO1YMECzZkzRyEhIVm+8Ux9Y/13Ho9HvXv3Vt++fSVJx48fd9pS34CfO3dOixYtuux6jx07lulVPrGxsc7aBqkByMXeeKc+GjinHTp0KN06PaliYmL01Vdf5di+Hn/8cZUrV06rV6/W999/r6+++sr5pQUA3CRv3rwaM2aMJGn79u2aNm2aPB6P7rrrrkzHrF69Wt99912GbUWKFNF7772n4sWLKzo6WklJSdmqw8fHR++//77uvPNOnT59Wi+99FK6Pv7+/ipUqJCkSztXnTp1Shs3bsxWHZL0/fff68iRIxm27dq1S2vXrs32XAAAIGuEQLjm5c6dW0888YQk6Z133tGff/6ppk2bZjlm1apVWf419LbbbpOkNOvRtG/f3ll/4O23387WX1P/LvWqpf79++v06dPp2r/55htt375d0vnbpKTzgcuOHTvS9EtMTNSWLVuUO3duPfDAA5dcR3brfPTRRxUbG5uuff78+dqzZ0+O7nP48OEyM/3rX//S7t27r1q4BQDXupCQEFWqVEnnzp3TU089pQYNGmS5xp2Z6csvv8y0vVixYgoODpa/v/8lXZlTvHhxzZ07VwEBAdq5c2e69kKFCjlr8W3evFnJyclp2rdv367Y2FhVrVpVlSpVUlBQkNq2bau4uDjNmzfPWdw5K126dFFsbKxCQ0PTzS9Jr776arbWugMAANlDCITrQuvWrRUUFKSzZ8+qe/fuKlOmTJb99+3bl+nVQJK0bNkyFS1aVKGhoc42j8ejt956S3fffbciIyPVqlUrHT169JLqbNGihapVq6YzZ86ocePG+uijj5y2n3/+WePHj3dCnUceeUS33HKLYmJi0i3KuWvXLm3atEmdOnXS7bfffkk1ZEerVq1UuXJlRUdHq379+mnWBlqzZo0mTpyY4WLUqU8YMzPt27fvkvbZtWtXVahQQb/99hsBEABXy5Url1q3bi3p/C3EWd0KlurTTz/N9GqcLVu26MCBA+rTp88lL6Jcrlw5ffbZZwoICMiwfciQIQoICNCGDRu0ePHiNG2LFi3SuXPnNHToUPn6+srHx0edOnWSJI0ZM0avvfaa0zcpKSnNOTFVaGio8uXLpwULFqhz585at26d0zZt2jT9/vvvOfKgAgAA8H+8+oB6l+rTp49JsvDwcG+Xcl3p2LGjSbJvv/02y34pKSkmyTwejz399NO2Z88ep+306dMWFhZmJUqUsA0bNmQ4/vjx49a/f3/z9fW1WrVq2fz58+3IkSNO+8GDB+2LL76w0qVLW+HChe3TTz9NM37+/PkWFBRkkkySFSlSxIoUKWIFCxa0hQsXpum7detWK1OmjAUEBDj/HmJjY6179+5WvXp1++uvv9L0f+ihh0ySvfvuu2m2nz592nx8fCxXrlwWHR2dpm3ixIkmyXr37p1m+6xZsywwMNB5rS6sc+nSpWn6hoWFmSSrXLmyDR8+3OrXr2/nzp2zvXv3miQLDg62X3/9NcPX80Lvv/++lSlTxo4dO3bRvrhyqd8zERER3i4FF1GjRg2TZFFRUd4uBf8jO3futODgYKtWrZrFxcVl2XfKlCkmyQoUKGDLly+3EydOOG179+61unXrWqdOndLNs2jRogzPGRnp1q2bScqwlhkzZlhQUJDdeuuttnXrVjMz279/v5UvX9769Olj8fHxTt/4+Hh75JFHTJL5+vpagwYNbPjw4da+fXtr2rSpSbKKFSva888/bwcPHjQzs0GDBjnnzMDAQOd8dMcdd9jevXsvWjtubHFxcc77KQDAlfOYmf1vYyeEhoZq2rRpCg8PV9euXb1dznVj3bp1evrppxUREZHloslmpo4dO2rgwIH69NNPFRkZqbx580o6/xSSOnXq6N///rfq1KmT5f5++OEHzZ8/X1999ZWio6NVqVIlSecviW/SpImqVKmixx57TCVLlkw3dsOGDXr++ee1cOFCSVKVKlX06quvqm3btun6btu2TWPHjtXXX3+tGjVqyN/fX02bNk3zF93Tp09r1qxZWrVqlcxMBQsWVP369dWjRw+tXbtWy5Yt07Zt2yRJd9xxh1q2bKnatWvr008/1Zo1a3T69Gn5+vqqcePG6t69u/N6rF+/Xs8995yWLFkiSapWrZrGjRuX7ha048ePq02bNlq7dq1q166tN954Q2amiIgIRUVFSZKKFi2qRx99VFWrVs30Nd22bZteffXVDP8ajJzXqVMnzZs3TxEREc4tHbg21axZUxs3blRUVJTKlSvn7XLwP9K3b181bNhQvXr1yrLfe++9J+n8o9h//vlnrV+/3jk/REdHq2nTpnrppZeUO3duSVJUVJRWrlypX3/9VWfOnJG/v78aNmyoOnXqZPiod+n8enj/+Mc/9Pnnn6e5VTpVeHi4PvzwQ/3222+qWLGi8uXLpy5duqh79+7priKKj4/XCy+8oNdff10JCQkqXLiwhg4dqlq1aqldu3YaMmSI2rVr56yDlJSUpC+++ELjx4/Xb7/9Jkm6//779cEHH+iWW265hFcUN6L4+HgFBQWpSJEima4dBQDIPkIgLyAEujxmpsTExEwvWb+wX0pKinx9fSWdf3N54UKZQUFBl7TfxMTEdOsUBAYGXnTdhZSUFCUkJEiS/Pz8Lvq0r/j4eJmZfHx8LnqMOSm7daa+jtk5lsz07t1bQ4cOvSq3uCE9QqDrByGQOyUlJcnj8Tjnq8wkJyen6ZN6vpDOP6HL398/R+pJTk6Wj49Ppue3Kz2vpaSkKDExMcOQSUp7vg4ICJCPD6sWgBAIAHLa1X0GNZCDPB5PtsKRv7+hvpLQQjr/dJTLeYPt4+NzSYFTZm+Kr7bs1nmlr+P27dv1xx9/EAABwP/J7s/Uv4dEV+t8cbEw6krPaz4+PlnWfqXnGQAAcHH8iQXAVZGYmKhvv/3WecpYeHi4Ro4c6eWqAAAAAMC9CIEAXBXTpk3Tvffeq1q1aqlKlSrav3+/2rVr5+2yAAAAAMC1uOYWwFXRokULDR48WMeOHdNTTz2l2rVre7skAAAAAHA1QiAAV0WFChX05ptversMAAAAAMD/4XYwAAAAAAAAFyAEAgAAAAAAcAFCIAAAAAAAABcgBAIAAAAAAHABQiAAAAAAAAAXIAQCAAAAAABwAUIgAAAAAAAAFyAEAgAAAAAAcAFCIAAAAAAAABfw83YBbjR37lxJ0jPPPKOXX37Zy9UAuFHt3r3b2yUgG15++WVt27ZNktSmTRsFBgZ6uSIAuHakpKR4uwQAuKEQAnnBiRMnJEl79+7V3r17vVwNAMCbDhw4oLi4OElywiAAAADgaiAE8oJu3bopPDxc77zzjlq3bu3tcgDcoPr166dly5Z5uwxcxIsvvqhvv/1WW7du1bfffqvSpUt7uyQAuGYkJCSocuXK3i4DAG4YhEBekC9fPklS0aJFVbZsWS9XA+BGlSdPHm+XgGy46aabnFvASpUqxXkBAC4QHx/v7RIA4IbCwtAAAAAAAAAuQAgEAAAAAADgAoRAAAAAAAAALkAIBAAAAAAA4AKEQAAAAAAAAC5ACAQAAAAAAOAChEAAAAAAAAAuQAgEAAAAAADgAoRAAAAAAAAALkAIBAAAAAAA4AKEQAAAAAAAAC5ACAQAAAAAAOAChEAAAAAAAAAuQAjkAkePHtXs2bM1e/ZsLVq0yNm+e/duL1Z1ZVauXKlWrVpp79693i4F15C//vpLzz77rMaPH+/tUgAAAADgmuPn7QLw/5mZpk2bpqlTpyoyMtLZ3qtXL3Xt2lWNGjVKN+b111/X1KlTdfDgQfn6+mrgwIEaPny4cufOrbi4OL3++uuaOHGi+vfvr/z582v9+vUKDQ1V165dtWDBAkVFRTlzTZ8+XZs3b9aUKVNkZpKkFStWqFatWtmqv2HDhtqyZYskqXPnzqpfv7569uypoKCgK3lZ0ti1a5d69+6t9evX6+zZszp79myW/ffv36/FixcrPDxcP//8s7O9fPnyCggIkCRFR0erVKlSqlatmnr37q3y5csrMDAwx2q+HH/88Yd+/PFHTZ48Wbt27ZIklSlTRrlz55aZadu2bXrwwQcVEhKiFi1ayNfX96rVMmfOHP3++++aNGmSEhMTJUmzZs3Sfffdl63x7du313fffSdJeuCBB9SiRQt16dJFBQoUyNE6R4wYoTlz5igyMlI9e/a87HlWr16tzZs365VXXlF0dLQkKTAwUOXKlXP6HDhwQK1atVK1atXUqlUrlS9f/orrBy7m2LFjOnLkSIZtFSpUcH6mpTp+/LgOHz6cZluBAgV08803O58fPXpUn332mfbv3y9Jaty4serXr688efJo48aNGZ53MrJhwwblzp1blSpVupRDuu4lJyenOV9fqHDhwipWrFiabWamrVu3putbqVIl5+d4cnKyIiIitGTJEklSoUKFFBISottvv11LlixRy5YtM9zf8ePHNX36dOePI/Xr11fDhg0VHBys9evXq3Hjxpd9nDlp/vz56tWrl2bOnJnpsWTl8OHD+umnnxQWFqbmzZvrlVdeybDf3r17Vb16dX300Ufq2LHjlZadpZiYGEVGRmr69OnOtsKFC6tjx4665ZZbFB0drejoaFWpUkWStHXrVs2ePVuvvfaaNmzYoLJly2ZrPw0aNFBAQIC+/fZbZ1tkZKTmz5+vsLAwff/996patepF59m3b58iIiIUFhamkSNH6pFHHrnEIwYAXNcM/3N9+vQxSRYeHp5h+65du6xMmTImySRZdHR0lvNNmTLFJNnYsWPTbH/xxRfN4/HYnDlz0mz//fffrWrVqubv75/hfJ07d3b2PWzYsGwd0zfffGMej8ckWa1atSw2NjZb4y5X/fr1TZJt3rw5W/2PHj1quXLlMkk2fPhwi4mJcdqOHDliEyZMsJtuuskk2V133WW7d+/OkTq3bdt2ReM3btzofC1WrVplZmZJSUkWHh5uefPmNUn23HPPXZV9/12/fv2cWkJDQ7M15ocffjB/f3+TZOXLl7/ov+UrNW/ePJNkPXv2vOK5PvvsM+d4V65cmaZt27Ztzvdxrly5rFevXpaSknLF+8zpr1nHjh1NkkVEROTovMh5NWrUMEkWFRWVaZ99+/bZ9OnTLSAgwPm3Wa1aNVu9enWGP3MPHDhgL730kuXJk8ck2X333Wc7duxw2j/55BMrVaqU9e3b11avXm2rV6+2Nm3aWIkSJez222+30aNHZ6v25ORka9iwoQ0ZMuTSD/w6l5SUZKtXr7ZGjRo5XxNJNm3aNNu1a1e6/ikpKfbll19a3bp1TZLlyZPHZs6caUlJSWZmdujQIbvvvvusZMmStnTpUlu9erVzfmrQoIGVKFEiwzpmzpxpZcqUsV69ejlfy5CQECtWrJhVqVLFhg4delVfh0sxY8YMk2Tz5s27rPFjxoyxhg0bmiR78sknM+03YcIEk2Rjxoy53FKz5csvv7QqVapYtWrVbPTo0c7rP378eLv77rutQoUKVrp0aZs/f76ZmW3fvt369OljhQoVMkm2c+fObO+rcuXKVr16defz3bt322OPPWZFixY1SbZp06aLznH27Fl76qmnrEqVKibJpk6deukH/T8WFxdnkqxIkSLeLgUAbgiEQF5wsRDIzKx///7Om8mLvUGYMmWKVahQwU6ePOlsO3r0qAUGBlrfvn0zHLNt2zYrUKBAhm0DBw509l2gQAE7ceLERY8pNDTUGdOsWbOL9r9SlxoCmZkTmkybNi3D9qSkJOvQoYNJslKlStn27duvqMbFixfbgAEDrmiOgwcPpguBUq1YscJpe+WVV9K0bdiwwUJCQq5o33/3/PPPO/vzeDx2+PDhi44ZNmyYM+bOO+/M0XoykpMh0LJly5zajx8/nq49JSXFoqKirHTp0ibJQkJC0oSLl+rkyZNWq1atKyk5HUKg60d2QqBUqf/OJdmgQYMu2r906dJWq1Yti4uLc7bt2LHDJNm//vWvNAFmSkqKrVu3zgoVKpTtEGjlypUmyfLmzWvHjh3L1pgbQXR0tPM9f+bMGeeXakkXDYVTA4ply5Y521JSUqxt27ZWpkyZdP8OUs9PBQsWTDfX/v37TZL16dMn3dfyt99+s5tuuskrIdCiRYvs7Nmz6banpKRYcnLyFQXnU6dOzTAEWr9+vYWGhtrhw4dtzZo1zs+/o0eP2oABA2zNmjVp+mfnPJaVkSNHmsfjsaFDh6Z5D5YqMTHR2rVrZ5KcEChV6vf8pYRAKSkpGb5uqaFYdkKgVE8++SQhEAC4FGsCXaMGDx6sPHnySDp/O05mkpOTNWvWLA0cODDN7TVLly5VfHy8c/vO31WqVEnVqlXLdN6QkBD5+fnp1KlTevfdd7OsdceOHZo1a5ZCQkKy7Het8/X11euvv66iRYvqzz//VJcuXZSUlHRZcyUmJmZ6iXpOadSokXN5/7hx45xak/4fe/cdFsXVtgH8piOIKBp7xQp2sWHvQX0VsZdYMCbGEo1KrNHYS6JYIjZsUWIXLBiEiMYCtrxRo5hYYw2IgoCItN3n+4Nv52XdZQGDQbP377q4EmfOnDkzOzs788w5z6SnY8GCBW9lnZ06dYK9vT1EBIsXLzZY9unTp1i/fj169er1VtqS30xMTODo6Ii5c+fCzMwM/v7+b/yZiwjWrl2Lp0+f5nEr6d/I1dVVGdJ17do1g2XT09MhIpg8ebLWMNdFixYBAL788kuYmJgo001MTNCwYUN8/vnnOW6Pv78/ACAxMREhISE5Xu599fDhQyxfvhwuLi5Kbr2CBQtqDW3K7nNJTU1FmzZt0Lp1a2Xa1atXERgYiN69e2sNPwX+9/tUpEgRnboMfZa1a9eGl5dX7jfyb0pMTMTEiRORkpKiM8/ExASmpqZabc0rO3fuxMaNG+Hm5obixYujQ4cOqFixIrp27Yq1a9di27ZtWuW7du2KL7/8EmfPnoVKpcrVuhYvXowFCxagXr16WLJkid4hzubm5ti5cyfc3NwMXsvllImJyVvZb0REZFwYBHpHOTk5KWPY16xZg7i4OL3lIiIicPz48SzHu2/dulVrjHpmhsaAlyxZEpMmTQIA+Pj4KLlR9Jk9ezZGjRqF4sWLZ1lG47fffkNwcDCCg4MNJqY+fvw4goODcf78eQBQ8lVkJTk5GcHBwQgLC8u2DYY4Ojpi+fLlSlv9/Px0yjx9+lTZhuDgYMTHx2vNT0pKQp8+fZQ8OFk5e/asUselS5dy3VYLCwvY2dkBgHJ8pKen45NPPsG+ffuyXC45ORmXL18GkLFfg4OD8eLFixyt097eHl999RUAYNu2bQY/l/nz56NXr15wcnLKtt6EhARlX5w4cSLLcqdPn0ZwcDBOnz6ttD87mmMuq1wqf9fQoUOVAKi3tzeioqJ0ymQ+Xm7fvq0zf/Xq1Zg+fbrB9dy+fVupwxhutClrxYsXx8cffwwACA8PR2RkZJZlt2/fDpVKhX79+mlNz+7c2rVr1xzlRnvw4AF27NihBDO8vb2RnJyco+1439y5cweTJk1C5cqVsXPnTvj4+Cg5XgDgiy++QIECBQAYfnijebgyevRoWFhYKNOz+0wcHR1Rv359nenZLde5c2fY2Nhks3V5a82aNXpzH71tM2bMwJw5c/DBBx9gwIABqFWrFoYOHYrChQtj5syZmDt3rlb5zZs349mzZ2jRogXc3Ny0cgca8uTJE3h7e0NEMG3aNINlbW1t8fXXX2d5HUdERPRPYxDoHabpQXH//n3s3LlTb5lNmzZhwIABOkkF3d3d4eDgABHB8OHDsXXrVrx69UqrTP/+/Q2uf+TIkShSpAj++usvfP/993rL/PHHHzh58iRGjhxpsK7nz5/Dy8sLPj4+CA8Px5QpU1C/fn0sX75cSUINAJGRkWjWrBlWr16N8PBwzJ49G46OjhgzZkyWdV+5cgW1a9eGm5sb2rRpgw4dOuDly5cG22OIm5ub8v+aXovZIgAAIABJREFUxJwAkJKSgsWLF6NBgwYIDQ1FeHg4hg8fDicnJ4SHhwPIuCFyc3NTAkD+/v5wdXWFq6urMi08PBydOnXC119/jfDwcKxduxbt27fHsGHD9D41zYpKpVI+UxsbGzx9+hTdunVDYGAgAODnn39W1n3gwAGEhobik08+gaOjI+bPn4/NmzejTp06cHNz03tjkZXBgwejTJkyiImJwYYNG/SWefDgAfz9/TFhwgSDdaWnp+PkyZPo168fwsPD4e/vDzc3NzRv3lwroW18fDzatWuHxYsXIzw8HEuXLkWVKlUwcODALOtOTU3FqFGj4OrqCjc3N9SsWROHDh3K8XbmhuaYefXqFU6ePKlM9/f3R8OGDbFlyxaEh4dj/vz5aNy4MRYuXAi1Wg0RwdChQ7F06VIAGTcWms9M09Pq2bNnGDFiBLp164bw8HAcOXIE/fr1Q6NGjfh2PCM2ZcoUmJqaIiUlBd7e3nrLqNVqBAQEYPjw4TrzNEGBXr164cqVKzrzGzVqhAoVKmTbDm9vb3h4eGDq1KkAgF9++QUPHz40uExSUhKuXLmCwMBApKSk4MiRI5gzZ46SBD81NRX379/Hli1boFKpEBYWhjlz5uDChQvK70Xm5TR/f/31l7KOyMhIPHr0SOsvNTVVqx1//fVXlvM0UlNTERwcjE8//RRt2rRBXFwcrl+/jtOnT+skxy9XrhwGDx4MIOO3OavA88WLF5GWloauXbtqTdd8Jnv27MHMmTP19kzR1+NWs1z//v3xyy+/6MyvU6cOqlatqjP9yZMn8PPzQ2xsLF69eoWAgADMmTMHq1evxvPnz/W2/fLly1r7PDw8XKudiYmJWLJkiRLU1uzjzOfzhIQEbNq0SfndzOz27dta9R87dizLHs362NvbY+LEidi0aRNatGiBrVu3ok6dOti0aRO+/PJLFC1aVKt87dq1sWXLFty/fx/dunVDz5490bVrV2zatMngw69Vq1bh6dOncHZ2hru7e7btatSoUbblfv/992z3/6VLl96ox2lKSgqOHj2q7Fd933kg4zf50aNH8PX1hYjgv//9L+bMmYPTp09r9YxOTEzEjh07lPoOHz6sE/x98eIFtm7dqlz7xMXFwcfHB3PmzMmXACEREWWSbwPRjFhOcgKJiCQlJSljxjt06KC3jI2NjU7iZ41ly5ZpJars3r27XL9+Pdv2jR49WkaPHi0iIu3btxcA0qpVK71lvb29pWPHjiLyvzxG+nIC1atXT06fPq38OyoqSmrXri0A5LvvvlOmDxs2TJo3by6pqanKtEmTJinr0NDkBNq9e7e4u7vLvn37JCgoSJydnQWAbNy4UacN2eUE0khJSZFmzZoJAClZsqSScHXr1q0CQFatWqWUvXv3rhQuXFicnJy0kh5v375dAOjkBHrx4oU4OztL5cqVJT4+Xpn++eefCwDZsmWLVnlDOYHCwsKUeZlzd2hy2byeE+j06dOyYMECASAlSpSQdu3aSVBQkPTu3VvmzZtncJ+IZOQE6tOnj4iI9OvXTwCIs7Oz3rLbtm2T+vXri0hGzgRkkRNozZo1MmzYMCUpqsj/jtv69esr+Rq8vLykVq1aWvklFi1apKxDI3NOIC8vL5k1a5YEBQXJ7NmzBYBUrVo12+3UyC4nUGYPHz5Uyg4bNkxEMpL4FihQQDp16qSVw0GTQPby5cvKtOfPnyu5qF6nydF1/vx5ZdrRo0cFgPTq1ctgu5gT6P2Rm5xAGl26dBEA4uDgIJGRkTrzr1y5IgDk3r17OvP8/f2VY7ZEiRJy6NChN2p3wYIF5dy5cxIbGytly5YVAOLp6Zll+a+//lrq1KkjAOSTTz6RgQMHKu2oVKmSbNy4UTm/t2rVSubMmaP1O/bq1Sv5448/pFGjRlK3bl0JCgqS3bt3S6NGjcTOzk5CQkJEJOM7UqpUKWW5pUuXap1zRUT2798vRYsWlWXLlunMExEJDQ2Vpk2bipmZmYwfPz5HeeKCg4O11vk6tVotbdu2lYkTJ+rMU6lUUrFiRWX5CRMmSFRUVLbrDAoKUpYpVqyY7Nu3z2D5e/fuSZcuXcTOzk7JrafJh6f5K1eunBw7dkxZJiEhQYYOHSoODg7i5+cnQUFBMmDAAAEgc+fOVcotX75cevfuLTY2Nsp1R+/evWXq1KmSlpYmo0aNkipVqggA+fbbb5XlUlNT5bPPPpMiRYqIr6+vBAUFKec+zfVIZlnlBDp+/LiSm2nKlCni6+src+fOFQBSvXp1+fHHHw3um5iYGFmyZImULl1aqlSpIitWrJC0tDSdciVKlBAA0qNHD4P1GZI5J5Cfn5/yEgXNd+H+/ftK2VOnTsmHH34oAMTGxkanLkM5ge7evStNmzaVLl26SFBQkCxcuFDq1q2rvIBEkxNoz5490rp1awEgNWvWFB8fH61j4uHDhyKSkXPQ09NTVq5cKUFBQTJo0CABIH369JG0tDRRqVQyduxYqVatmgCQefPmyf3798XR0VGpy8LCQrZv357jfcWcQEREeYtBoHyQ0yCQSMbNtOZHM/NNoIjIhg0bpGbNmnovUEQyEklOmzZN7O3tlTqsrKykX79+BpMhZg4CHTt2TEkE/PpNQkJCglSqVEmOHz8uIlkHgVavXi1jxozRWY/mBqVWrVpKoKV8+fLSoUMHraBAbGyszs2u5iZh4MCBWgEjzVtH9AWtchoEEhHx8PBQ9pkm8DBkyBABIP7+/lplXVxcBIDWDUJWQSBNMtasgheDBw/Wmp45CJT5TSoPHz6UTp06KYENzcWZSNZBIJH/3aDUqVMn12/qyhwEyvzWstcDVyqVSpydnZXjO6sgUEJCgtSsWVPrQlezvObmVnMz06BBA3FxcdFKbJuSkiJubm5ay2r2Y7FixeTs2bPK9MTERHF2dhZTU1M5c+ZMjrY3N0EgEVHejqcJWO7Zs0cAyPDhw7XKff311wJAvL29lWmGgkA1atQQAPL48WNlWlpamgDQmyQ2MwaB3h9vEgT65ZdfxMrKSgDIrl27dObPmjVLevToISqVSmdecnKycsMHQExNTWXQoEG5Wv/GjRulWbNmym+QJshcqlQpefHihd5l4uPjlRt4S0tLmT17tkRFRcmyZcvk1KlTkpiYKKdOnRIAYmZmJh999JHExcWJj4+PHDhwQNRqtQwePFgASEREhFJvRESEmJmZScOGDZVpP/74o5iZmQkASUlJ0WnLzZs3pWnTplq/N9HR0eLt7S3NmzeXypUry9atW/UGiLKSnp6unJtdXV115sfExEiBAgWyfCDz/fffa739rVatWrJ7925JSkoyuM6OHTsqy5iYmEi/fv2yfNtgSkqKxMXFSd26dQWADBo0SMaNGyeRkZHyyy+/SNeuXQWAODo6ytOnT0Xkf79pK1asUOpJTEwUJycnKVy4sE5yY00wK/O5U61WS1xcnEyfPl0nCKQ5306ZMkWrniZNmoiFhYVcunRJa3pWQSBNwH/mzJkSExMj1tbW8vDhQ1mwYIGYmJjIl19+meV+zOzly5cSGhoq7du3l0qVKsmkSZOUt71lfhtq5odYuaX5zs+bN08mTZokUVFREhcXpwR0Vq9erZR99eqVxMXFiampaa6CQMnJydK4cWMZPXq01nF+9epV5dyhCQK9fPlSIiIilPNBly5dJC4uTjZt2iS7d+8WlUolcXFxUqNGDa3AcmpqqgwdOlQAyJAhQ5TPWRN8GzZsmIwYMULCwsIkLi5Oli9frlynZXX9+joGgYiI8haHg73jOnfurOQYeD0R7+7du9G9e3eYm5vrXdbMzAwLFy5EYGAgGjZsCCCjS/Du3bvRpEkTHDx4MNv1t2rVCs2bN4eIYOHChVrdvnfv3o2yZcuiRYsWBuvYtWsX4uPjsXHjRq0/zdCca9eu4ebNm0r5Y8eOaeUxKlKkCMaNG6e37unTp2vlVNAku85N9/Gc+uSTTzB69Gi0atVKmRYTE4Nnz57luI4yZcpgxowZmDx5stb0GzduZLtsQEAAmjdvDldXV9SrVw9PnjzB3LlzceLECZQtWzbnGwKgatWqSj6hN1GnTh1lKMOyZcu0ht8dOnQIZmZm+M9//mOwjlOnTiEqKgohISFax8XmzZuVYR2ahLMA8N///hc+Pj7Kvy0tLbPMxeDm5oamTZsq/7a1tYWjoyPUanWuk3++qXbt2uGzzz5Tcrdo5OSzzmz69On4+uuvUaxYsTeug/6dXFxcUK1aNQD/Sw6sER0djY0bN6Jfv34wNdX9qbeyssKBAweU41OtVuOHH35A3bp1DQ6/1Xjx4gW8vb0xY8YM5TdIM1QpMjIyyyHEhQoVUoYvdenSBV9//TVKlCiBiRMnomXLlrC1tUXBggUBZJzPN2zYAHt7e4wePRru7u4wMTFRki5bWloq9To7O8PMzEwrIXPnzp3RuHFjAMDhw4d12vL777+jW7duMDMzAwD4+fnBxcUFK1euxODBg/Hrr79i6NChKFSoULb7Q8PMzAx9+/YFkJGrJzQ0VGv+okWLUK9evSxzpQ0ZMgQbN25UhuJdu3YN/fr1Q5MmTbR+J19f5759+zB69GgAgIhg9+7daNCgAUaMGKFT3tLSEvb29sp2165dGytXrkTJkiXh4uKCXbt2oVq1arh7966SF0/fPtecV+Pi4vD48eNs942JiQns7e1hbW2tM09f/Zq2paWlZbntr/vyyy8RHh6OuXPn4siRI0hOTkZgYCCmT5+Os2fPYubMmTmqx8bGBu3atcOxY8ewevVqnD17FnXr1sX48eOVZOt5xdLSEkuXLkWJEiVgb2+v/K5l/v2ztraGvb19rpNCr1y5EhcuXMBXX32lfN4AUKtWLZ2XNtjY2CjXBRUqVMCuXbtgb2+P4cOHo2/fvjA1NcXKlSvRo0cPraGiFhYWmDNnDgAgNDQUz5490/qc//zzT3z77bdo1qyZUl+5cuVw6tSpXF0/ERFR3mEQ6B1XrFgxJRFvWFiYkgBUc3E5Y8aMbOto0aIFLl68iJCQEFSpUgUAcO/ePXh4eOgdk5+ZhYUFFi5cCHNzc5w7d05J2hsfH4/58+dj4cKFWkGY1924cQNnzpzRO69kyZLw9fWFr6+vEsTQXPwMHToU3bp1w2+//QYAWoGX/NKiRQv4+PigaNGiOHHiBHr37o2hQ4fmqo4CBQpg/vz56N+/P6KiorBo0SK0bt06y32U2fDhwxEWFoazZ8/i2bNnuHz5MmbOnIkyZcq86Sa9MRMTEyxcuBDW1ta4du2acoP18uVLzJgxAwsXLlSCl1nZuHFjlvPGjBkDX19f5QZGc1xMmjQJHTt2VI7bd+G4yErRokWxdu1aNGvWDHfu3MGECRPg6uqa6wTVgwcPxuzZs6FWq+Hn54euXbvim2++eUutpveNJvfKlStX8OOPPyrTz507B2tra4O53woXLoyNGzciKChIeVCQmJiINWvWoGzZsvjjjz+yXPbgwYOwsbFBhw4dlGk1atRQAkEHDhzINuBaokQJg/MLFSqk9zzi5+eHwMBA5ffs/v372L59u963OWrOHTNmzNDJFbd582atfElt27ZF9+7dER8fj02bNiE0NPSNbvY//vhjFC9eHGq1Wuu7mpSUhKCgoGwTCQ8ePBinT5/GqFGjYG9vDyDjzWHVq1fP8s2PhQoVgo+PD0JCQtCsWTNlfZs2bUKpUqWU31J9Xg8GFCxYUHnwoklwPW3aNPj6+uLTTz8FkHENEBoaarDe3Bg9ejR8fX3x5ZdfKm0/e/as8hKAnLKxsYGrq6vWNM05t0mTJrl++BEREYHNmzcjPDwc7du3x6BBg3K1fE68vv+z+17kxqJFi+Dp6YlSpUrpzDO0nswBIY2UlBQEBgbixIkTGDFihNbflClTAACPHz/WeelHhw4dtN6cltX3moiI/jkMAr0H3N3dYWZmhujoaOV17f7+/nB3d8/VD2nHjh1x5swZjBw5EpaWlhARLFiwINsL9VatWuGDDz4A8L8LwnPnziE9PT3bXkAazZs317loyPzn4OAAIOPiOTAwEA4ODggMDETTpk3Rt29fXL16Ncfb+XfFxcXh2LFjALR7YgEZSXq7d++O1atXY8WKFQgMDNTqoZETqamp2L59O1q3bg1nZ2f89NNPOr1F3geZk41qjos//vgDd+7cybYXkIadnZ3B46Jt27YAMnoYHDt2DGXKlMGxY8fQpk0bdO/ePcdvcnnb/P39lZvFzIlbX716hVmzZqF///7o27cvzp49i5YtW+aqbhHBtWvX0Lp1a0RERGDbtm3YtGlTnraf3l8eHh6oXr06gIxel5rjcNGiRXqTCOvj5uaG06dPY//+/bC1tQWQcTPXq1evLHtVLlq0CO3bt8erV68QHx+v/GmSpB87duytfT+dnZ3RtWtXREdHw8vLC5MnT8aLFy+0ejpodOrUCa6urrhx44ZWz4pbt27Bzs4OJUuWVKaVKVMGq1evxuXLlzFq1ChMmTIFbdq0wapVq3L9sgFNoCcsLAwPHjwAkNFL8ubNm+jWrVu2y5crVw5r1qzB5cuX0bJlS2XbZs2ahSNHjmS5XMeOHXHixAkcPHhQCSBFRUXBw8MjVz1kNceOpgeOvb09RowYgdTUVGzevBn9+vXD8ePHdV5K8aYsLS0xYsQIWFhYYM+ePfDw8MDevXtRq1atN66zd+/emDBhgsE3oeqTkpKC/fv3Y9CgQWjbti1q1aqFiIgIBAQEKD3L3gfBwcEGk1vn1pMnT3Dx4kW0adMGEyZM0PqbOXMmrl27hmvXrik9somI6N3FINB7oGbNmujevTsA4LvvvgOQ8drfsWPH6u3mD2S8Slvfm6ZKlCiBdevWYfbs2QCAH3/8UXkjiyGaC9pdu3bhzp07WLx4cbZPMzN7vUt8ViwsLNC1a1f8+eefmD9/PhwcHLB3714MHTpU5+1mb8uDBw+UV6Z7eHgo+/inn35CpUqV0KZNG+zfvz/XQ7CAjJ4yffr0waxZs3Du3Dm4u7vrdH9/n2h6IRw5cgRXrlzBokWLcnVcREdH5yjAZ2pqivbt2+POnTtYunQpypYti8OHD2PgwIF5epH7pjRDGaytrZVhclFRUWjYsCHOnDmDCxcu6DydzqlVq1ahdu3a8Pb2xqJFi3TebkPGzcrKSgm6bt++HdeuXcOjR4/wxx9/KMODcsLa2ho9e/bE/fv3lZ4J169fx7Zt23TKXrp0CZGRkbh8+TL69eun9bd//37lnJY56JKX1Go1tmzZgg4dOqBBgwbYvXs3Ro8erXeojJWVFebOnQsTExOtIXMrV67E+PHj9dZfoUIFeHp64ubNm+jfvz/Wrl0LR0dHLFy4EE+fPs1RGzt16gRbW1u8fPlSeS25v79/rs6PAFCxYkWcOnUKK1asQOnSpaFWqzFnzhyDb5K0tLRE9+7dce/ePQwYMAAAcPfuXaxfvz7H6y1SpIjOtAsXLqBFixa4fv06jh49igULFvytYcWvu3z5Mjp16oTjx4/j8OHD8Pb21tuOnCpQoAC8vb1RsWLFHJVXq9XYunUrGjVqhM8++wwVK1bE1atXMXv2bDg7OyvlXFxclABbTq9t8sOLFy+gVqvzvN6SJUuiZs2aWf6xlw8R0buPQaD3hObCMT4+HqNGjYKFhYXBXjgPHz5UxvLrM2nSpFw9YRs0aBAqVKiAuLg4DBs2TOvi0hBzc3NYWloiLCwMd+7c0Vtm06ZNyutCExMTAWR0F54xYwZCQ0NRsWJFXLp0CatWrcpxe99USkqKcsFevXp15XW/KpUKXl5eMDc3x6hRo964/iNHjuDQoUMYPXr037q4fVf06NEDTk5OePXqFT799FOcO3cux72abG1tkZSUBH9/f70XqrGxscqrcDXHhZWVFSZNmoSTJ0+iZs2auHPnDubNm5d3G/QG7t27B19fXwDAZ599hnLlygHIuMm8fv06pk2blus8DhoPHjzAvHnz0LZtW60cR0SZjR49Wrkp3bdvHwICAlC/fn2DvTQ0x+zrihYtCj8/PzRq1AhARm+CzNRqNRYuXIgvvvgCR48e1funyXm2bds2PHr0KC82UcsXX3yBUaNGYefOnRg4cGC25Tt06IBGjRrh999/h5+fH6Kjo/Ho0SPUr18/22VHjRqFCxcu4NChQ7hw4QIaNGiAadOm4ZdffjE4VMzZ2Rk9evQAkHHej42NxU8//aQ80NFnx44dyrnudWPHjsWsWbNgbm6OixcvIjY2VpmX1WdZuHBhbN++XQlAv/5Z5oSmZ9j+/fvRsmVLjBgxAkuXLs11Pdk5deoUmjVrhjZt2mDdunX/6MOR6OhozJs3Dy4uLvDx8cHs2bPx+++/Y8GCBXqHTJUuXVrZpzdv3kRqauo/1tY3kZiYmKc5jHbu3JnlvNTUVIMBSiIiejcwCPSeaNiwITp27AgRwbp16+Dm5qY3uWJmmiE6+lhaWsLS0hLFihVTknAa4uDggJEjRwIAzpw5g88++0wZwmVI5cqV0bhxY0RGRmb51HXXrl1KrxrNTb9G9erVleWSkpKyXd/ftXv3bmW/zZw5U9nHarUav/32G0xNTf/WU65Lly4B+N+F9fvO2toaEyZMAJDxlLh///457iGlCSLOnj0b169f15lv6LgoV64cpk6dCuCfOS4MmThxIh49egQHBwdlXwB581k/fPgQMTExsLa21jvUhQgAHB0d0a9fPwAZAQEfHx+DuYCAjHw4WbG2tlaC4a+7fPkyzpw5g7Fjx2a5vCYQHB0dnaN8Z7lx69YtbN26FU2bNkXNmjVzvJzmQcrixYuxd+9euLm55fg7ZWdnhyZNmuDAgQM4cOAArl+/jkaNGuGjjz5CXFxclstpekpGRUWhd+/eKF26NFxcXLIs//LlS+zZsyfL+SNHjkTlypV1phv6LM3MzHSShueG5jiaN28eUlNT39rQ5YULF+LVq1f/+NDor7/+Gk5OTvD394eXlxcuXryInj17ZjvMO3NvuZy8ZAMATpw48Y/1aAaAsmXLwsLCAnv37s2TIJCNjQ1KlCiB69eva+Ufy2zFihW4cuXK314XERG9XQwCvSdMTEy08jvkpEt5cHBwlkkkf/75Z1y5cgUTJkzQmzBQHy8vL1hYWMDKygoTJ07MWcORMYTNxMQER44cQY0aNfD999/j2rVrOHPmDLp27QpXV1elS/mBAweyTFbdpEmTHK8ztyIjIzF//nx8/PHHKF26NPbu3avT06lw4cKIjY2Fj48P0tLSEBcXhxUrVijJU2NjY3HmzBllKBmQkTsJAJ4+fYqLFy8qyRHXrVunvAFLM4wKyMhHlJSUpCTg/jt+++03JCUl4fnz5zh79uzfri8rnp6eSl4NzU1PTnz44YfKU/GGDRtiyJAhSk6BFStWYNOmTWjTpg2AjKF4ISEheut5m8eFIZcuXUKPHj0QEBCADz/8ED/99BPKly+vzNd81itXrkRsbCxUKhWOHj2K7du3AwCeP3+O2NhY5RjRTPvjjz+QnJyM48ePw8bGBpaWlggJCUFYWBiAjGNV8/1TqVRISEhAUFDQP7XZ9I7S/CZERkbiyZMn2eZBefHihcHcUs+fPweg+/3y9/dHmzZtDD4EKF++vNIL5u8EIPR58eIFXrx4gZcvX2r1OIiLizM49KVbt25o2bIlIiIisHDhQr1vzcoJFxcX+Pv7Iz4+HhUqVDCY6N3JyUnZDydOnMjyLZeZrVu3LsueFJptdnJy0hqGlZ6ejtWrV2dZZ1afpSHbtm2DjY2NEpTRvP1LUxeQ8RbOzL93f4e++vX9O68lJiYiLCwM58+fz1XS5+HDhyu/X0OHDs22nTt27ICI/KNDpZo2baq8OMLT0xPJycla83O7b4sVK4ZWrVohMTERU6ZM0UklEBcXh4CAAIOBTiIiekfky4vpjdzHH38sAGTPnj25Wi4+Pl7Kly8vrq6ukpKSYrDsDz/8IADExMREvvzySzl37pyoVCpRqVRy+PBhKV26tEyfPl1rGZVKJTdv3pRSpUpJqVKl5MaNG6JSqbTK9OrVS/r06aOz3I0bN6RkyZICQAoVKiShoaGiUqlErVaLiMjUqVMFgM7fxIkTlTIiIuXLl5ciRYrI9u3bRaVSSWRkpNStW1cGDx4sycnJolarJSYmRhwdHQWA7Nu3T1lerVbLvn37BIA4OjpKTEyMqNVqUalU8t1334mpqaky75tvvpENGzbIhg0bZOrUqVKyZEkxNTWVGTNmyL179/Tu0wULFijtbtCggVSpUkW2b98uLi4uAkBKlSolXl5ekpKSItHR0WJhYSEmJibSpEkTqVq1qly6dEmePHkipUqVEgBSokQJadKkibRp00a2bNmi1N26dWu5ePGiqFQqmThxojK9e/fukpaWprW/9ImLi1M+CxcXF3F0dJQTJ06ISqWSlStXCgBxcHCQCxcuZFuX5vO9f/++VK1aVRwcHOSXX37ROS5GjhwpHTp0kPT0dK3l7t27J1WqVBEAYmNjI/v379c6LiIiIqR06dI6x0X58uXl1q1bSl0NGjQQOzs7Wb16tahUKnn+/Lm0aNFCunXrJomJicr6Fi9eLACkSZMmyr5Sq9WSmJgoderUEQCyfv16g9utVqslJSVFunTporSnXbt2yvGyYcMGGTBggFhZWUmlSpVkw4YNkpCQoFPPxYsXxcLCQgBIpUqVpGHDhjJkyBCZNm2aAJACBQpI586d5cmTJ5KWliZt27YVAFKjRg2pXbu2LF26VERE3N3dBYBYWlpKkyZNxNnZWcLCwpS2VatWTdavX693W3r06CEAJDQ0NNvPmfJXvXr1BIDcuXPnjZZPSUkRV1dXASDDhg3LtnzNmjXF3t5efv75Z515ycnJ0qBBA2nZsqU8f/5cmR4ZGSklS5aUvXv3Zlv/jh07lGP08OHDWvM0v0+ffvqp3mV//fVXASAtW7bU+a7eu3dz5rxUAAAgAElEQVRPihYtKgBk6dKlolKp5Pz58zJs2DAxNTUVc3NzuXnzpnzzzTc69R49elQAyIgRI7Jtf17Ztm2bsh/i4+MNlt2wYYMAEE9PT53tVqvV4uvrK1ZWVhIUFKQ1r2HDhmJnZyfBwcE6daanp0vTpk2lcePGEhMTozWvQYMGAkCWLVumNT06OlpcXFxk5MiRyrRmzZoJABk4cKBER0fLo0ePZPz48VKuXDnlvOrv7y83b94UEZGKFSsKANm8ebOoVCrx9fVV1j937lwBIN9++61Sf8+ePQWAdO3aVe7fvy8xMTHi5eUl1atXFwAyZ84cOXnypJw9e1ZERHx9fQWATJgwweA+fZuePn0qtWvXFgBSuXJlCQkJ0frc1Gq1pKamyty5c2XlypU6y2u+87dv39aafvHiReV353VmZmZiY2OjM7158+YCQK5cuaI1XXNMAZABAwbIrVu3RKVSiY+Pj5iZmQkA2bBhg/Kb/uDBAwEgzs7Oen8nnz17JgUKFBAAUrBgQRkxYoRs2LBBvL29pUqVKvL9998rZb/55hsBIPPmzdOpp1q1agJAIiMjdebpk5ycLADkgw8+yFF5IiIyzEQkDwcKU46MGDECmzZtwp49e9CnT59cLbtjxw6UKlVKeWtSVkJCQlCyZElYWloiPDwce/fuVRLoVq5cGT179lSeUGau+/UnRdbW1lo5F549ewYTExOt5LQ//PBDlk8uBw4cqAypioiIwOLFi5WnR2PGjNHJ5zB37lyULVsW27dvV8bZ9+3bVxkS9ueff+r0kilTpgw+/PBDBAcHK08TNapVq6a83cSQJk2a5GhowaxZsxAaGoqCBQtiy5YtKF26NCIiIvDpp5/io48+0soXFBgYiEWLFqFkyZKYNm2a8grm27dvw9PTE2q1Gv369VOeDn/xxRd4/vw5pk6dChHR6iGSmZOTU7ZJhsPCwjB58mTY29tj6tSpaNWqFQICAnSe/HXt2jXb19H6+/vrHfKQ+dXKiYmJiI+P13pd/f79+xEfH6+3zl69eik5TADA29tbGYZXu3ZtTJs2DRUqVFDmf/PNNyhWrJjWcdy5c2dMnToV5ubmAIC9e/fqPJV2d3dHSkoKjh49qjW9aNGicHd319u2sLAw3LhxQ++8zPr27ZvtUMqjR48qOYtmzpwJNzc3JCYmYvjw4ShbtiymTp2K4sWLA8gY+jV8+HAkJSVh3LhxyvCelJQUeHp64v79+6hUqRK2bNmivEFn7dq1mDZtGjp16qR3/R4eHjhw4ABCQ0PRrl27bLeJ8k/9+vVx+fJl3LlzB46Ojm9Ux4kTJ9C9e3ecOXMGdevWNVi2Tp06sLOzw/Xr1+Hh4YEhQ4bAwsIC0dHRWLx4MQoWLIhDhw4pwxmvXLmCPn364NatW2jbti2mTZuGRo0aab36WePixYtYvny5kjukRIkSmDJlCoYMGYK7d+/C29sbu3btgomJCbZs2YK+ffsqPSSuXbuGH374AYsXLwYAzJkzB2PHjtXqebRgwQJ89dVXyr/btWsHPz8/NG7cGI8ePUKhQoUQEBCgc8ynp6ejefPm2Llz5xvv4zfh4uICV1dXg711gIyhfEuWLEF6ejoqV64MDw8PJW/RwYMHsW7dOuzfvx8dO3bUWq5Ro0awtLREREQEevbsiYEDB6JAgQKIjY3FokWLYGZmhsDAQK1zrqZdv/76K8qXLw9PT0+l3pEjR6Ju3br44YcflLKhoaHo2bOncv6tWrUq1q9fj+3bt2PLli0AMnp9aYbpbtiwQRlCDmQMw/Py8sK5c+cwbdo0nD59Gh06dMDs2bPRrFkzXL58GR07dkRMTAyAjOTcy5Ytw6+//qoMBx4/fjxWrFiB8+fPY8mSJQgICEC9evWwevVqNGzYEFZWVrn7YPJATEwMFi1ahG3btuHp06coV64cOnTooMy7cOECpk2bptULLDo6GufOnYOnpydiY2Mxb9489OrVC05OTrh69Sr8/PzwzTffoFSpUtiyZQsaNWqEhIQE/Pzzzxg+fDhMTU2xZcsWtG7dGra2tjh//jw8PT0RHR2N6dOnY+DAgVrXM97e3pg0aZJWu7t06YJKlSrBx8cHlStXhpubGz7//HMcOHBA+QwnTpyIyZMn61wjBAUFYezYsVo9gSwtLbFp0yZ89NFHEBGEh4dj9uzZOHbsGFq1aoWFCxeiadOmePr0KcLCwjB8+HAkJCTg22+/Rffu3VGtWjWD+zklJQXW1tb44IMPDPa+IyKinGEQKB/8nSAQEVFOMQj0/siLIBCQ8Ta5nAw7Cg4Oxocffohbt27h5s2bOH78uDKvV69eqFWrFgoVKqRM+/PPP3XymZQvX15vIPTmzZtIT0/XmV62bFlERUXpzKtcubJyA3///n2d17GXK1dOa/iTWq3G+vXrcfv2bVSoUAGjR4+Gubk5rl27hm3btmHMmDFaQWSN+Ph4DBo0CP7+/v9o4uHg4GBUqFABNWrUMFju3LlzqFGjBlQqFZ48eYKdO3cqOc9q1KiBjh076n3TleazvHPnDm7fvq01dNbd3R116tTRG6zTBIHOnj2LCxcu4P79+wAyhg5VrlxZZ+jSsWPHEBQUBDMzM8yYMQP29vZISEjAkiVL0L59e7Rt21ZJgp+WlgYfHx88fPgQ//nPf9CmTRuIiDJ8OjMnJyeYmJjg/PnzSk4kLy8vlCpVCklJSfD29kb9+vXRqVMnWFhY4MaNG1CpVFp1VK1aFRYWFgb379v0+PFjnD59GhcvXlSmNWvWDM2bN1eGS2vEx8frPLCys7NDuXLlcO/ePZ08d+XKlUNSUpISINMoVqwYrK2tdZKv29ra6hz/J0+exKFDhwBknGt69OiB0NBQREVFoW/fvihSpAgePXqk87bN0qVL6z12nj9/jj179igP2YYMGaIEnkVEedlHZjVq1EB8fDwiIyO1ptvb22s9QNKHQSAiorzFIFA+YBCIiP4JDAK9P/IqCERZmzx5MurVq5ejN4oZA00Q6NatW6hSpUp+N4coSwwCERHlLSaGJiIion+1lJQUnDt3TmcYNBEREZGxMc/vBhARERHlpeTkZIwZMwbx8fHo3bs3jh49iilTpsDGxia/m0ZERESUr9gTiIiIiP5VXr58iWPHjmH//v2YPn062rVrBzc3t/xu1jvh+fPn+Pnnn/Hw4UMAwOHDh3Hv3r18bhURERH9U9gTiIiIiP5VihYtikuXLuHWrVtwcnLSSnJt7FQqFQoUKIDDhw8r0zRv4yQiIqJ/PwaBiIiI6F/HwcEBTZo0ye9mvHOKFSuGYsWK5XcziIiIKJ9wOBgRERERERERkRFgEIiIiIiIiIiIyAgwCEREREREREREZAQYBCIiIiIiIiIiMgIMAhERERERERERGQEGgYiIiIiIiIiIjACDQERERERERERERoBBICIiIiIiIiIiI8AgEBERERERERGRETDP7wYYs127duHKlSv53Qwi+pe6fv16fjeBcmnZsmUoUqRIfjeDiOidkZ6ent9NICL6V2EQKB/5+/vndxOIiOgdsmbNmvxuAhERERH9izEIlA8GDBiAunXr5ncziMhIVK1aNb+bQNmYPHkynj17lt/NINISEhKCwMBAdOvWDR07dszv5pCRK1CgQH43gYjoX4FBoHzQvn17tG/fPr+bQURE74gBAwbkdxOIdLx48QKBgYFo1qwZPv/88/xuDhEREeUBJoYmIiIiIiIiIjICDAIRERERERERERkBBoGIiIiIiIiIiIwAg0BEREREREREREaAQSAiIiIiIiIiIiPAIBARERERERERkRFgEIiIiIiIiIiIyAgwCEREREREREREZAQYBCIiIiIiIiIiMgIMAhERERERERERGQEGgYiIiIiIiIiIjACDQERERERERERERoBBICIiIiIiIiIiI8AgEBERERERERGREWAQiIiIiIiIiIjICDAIRERERERERERkBBgEIiIiIiIiIiIyAgwCEREREREREREZAQaBiIiIiIiIiIiMAINARERERERERERGgEEgIiIiIiIiIiIjwCAQEREREREREZERYBCIiIiIiIiIiMgIMAhERERERERERGQEGAQiIiIiIiIiIjICDAIRERERERERERkBBoGIiIiIiIiIiIwAg0BEREREREREREaAQSAiIiIiIiIiIiPAIBARERERERERkRFgEIiIiIiIiIiIyAgwCEREREREREREZAQYBCIiIiIiIiIiMgIMAhERERERERERGQETEZH8bgQR0b9NSEgIvLy88rsZRERvLDo6Gk+ePEHJkiXxwQcf5HdziIjeiJ2dHcLCwvK7GUTvDPP8bgAR0b9RfHw8rl69mt/NICL626KiohAVFZXfzSAieiOFCxfO7yYQvVMYBCIieov69u2LJUuW5HcziIhyzcfHB0uXLsXkyZMxatSo/G4OEVGuqNVqVK5cOb+bQfTOYRCIiOgtKliwICpWrJjfzSAiyrUiRYoo/+V5jIjeNyqVKr+bQPROYmJoIiIiIiIiIiIjwCAQEREREREREZERYBCIiIiIiIiIiMgIMAhERERERERERGQEGAQiIiIiIiIiIjICDAIRERERERERERkBBoGIiIiIiIiIiIwAg0BEREREREREREaAQSAiIiIiIiIiIiPAIBARERERERERkRFgEIiIiIiIiIiIyAgwCEREREREREREZAQYBCIiIiIiIiIiMgIMAhERERERERERGQEGgYiIiIiIiIiIjACDQERERERERERERoBBICIiIiIiIiIiI8AgEBERERERERGREWAQiIiIiIiIiIjICDAIRERERERERERkBBgEIiIiIiIiIiIyAgwCEREREREREREZAQaBiIiIiIiIiIiMAINARERERERERERGgEEgIiIiIiIiIiIjwCAQEREREREREZERYBCIiIiIiIiIiMgIMAhERERERERERGQEzPO7AUSk382bN+Hj45PfzaA3dOvWLQDAuXPnMH78+HxuDb0NM2bMQPHixfO7Ge80lUqFiRMn5ncz6A1dvHgRAHD48GFERkbmc2vobejfvz9cXV3zuxkAAD8/P+WYI8oLIgIASEpK4rUY/SOaNm2KAQMG5HczsmUimm8HEb1Tjh8/jvbt2+d3M4goCzdu3EC1atXyuxnvtPT0dFhYWOR3M4goC76+vhgxYkR+NwMAMGTIEGzfvj2/m0FE9MY+/vhjbNy4Mb+bkS32BCJ6x9WvXx+ff/55fjeDiP7fnDlzcP/+/fxuxnvFxsYGq1evzu9mENH/27VrF0JCQvK7GXqNHTsWDRo0yO9mEBHl2MWLF7F27dr8bkaOMQhE9I6rUKECPD0987sZRPT/fHx8GATKJSsrK57HiN4hV69efWeDQO3bt0ePHj3yuxlERDlWsGDB9yoIxMTQRERERERERERGgEEgIiIiIiIiIiIjwCAQEREREREREZERYBCIiIiIiIiIiMgIMAhERERERERERGQEGAQiIiIiIiIiIjICDAIRERERERERERkBBoGIiIiIiIiIiIwAg0BEREREREREREaAQSAiIiIiIiIiIiPAIBARERERERERkRFgEIiIiIiIiIiIyAgwCEREREREREREZAQYBCIiIiIiIiIiMgIMAhERERERERERGQEGgYiIiIiIiIiIjACDQERERERERERERoBBICIiIiIiIiIiI8AgEBERERERERGREWAQiIiIiIiIiIjICDAIRERERERERERkBBgEIiIiIiIiIiIyAgwCEREREREREREZAQaBiIiIiIiIiIiMAINARERERERERERGgEEgIiIiIiIiIiIjwCAQEREREREREZERYBCIiIiIiIiIiMgIMAhERERERERERGQEGAQiIiIiIiIiIjICDAIRERERERERERkBBoGIiIiIiIiIiIwAg0BEREREREREREaAQSAiIiIiIiIiIiPAIBARERERERERkRFgEIiIiIiIiIiIyAgwCEREREREREREZAQYBCIiIiIiIiIiMgIMAhERERERERERGQEGgYiIiIiIiIiIjACDQERERERERERERoBBICLKM1FRUYiMjERkZCTS09MBAOnp6UhJScnR8nFxccrykZGReP78uTIvJSVFqZP+nZ49e4b58+cjOjo6v5tClGPPnz9XzlmJiYnK9KSkpHxs1d8TFRWF+fPnIzY2Nr+b8kbi4uLw3Xff4ffff8/vphDlORHRulZSqVQAgLS0NKSmpuZz67J35coVLFmyJE/rfP36MfN15/t8LiZ6W8zzuwFE9M87evQogoKCcPv2bWVa8eLF0alTJwwYMECnfGhoKNasWYPk5GQAQMWKFTFu3DhUr14dAHD9+nUsX74c//3vf1GxYkXExMQAANzd3fHo0SN06dIFHTp0yLI9ly9fxvLlyxEaGgpnZ2cULFgQAHD37l2UKVMG7u7uePLkCfr374+qVavm2X4wRpGRkQgICMCRI0eUaZ07d8bYsWP1lg8LC0NERAQOHjwIAChVqhSaNm2Krl27olSpUnnSpsePH2Ps2LH4+eefERcXB3d3dxQvXjxP6ibSiIiIwKFDh3DmzBmt6T169EDPnj1RtGhRrek3b97EypUrce/ePQCAtbU1Ro0apZzLYmNjsXr1avj7+8PR0REAcPv2bbRv3x7Vq1fHX3/9hblz5wLIOJcdP34cJ0+eVAIrDRo0wLx583LU9jt37mDcuHHKvzt37oyaNWuibdu2b7AnsvbgwQOMGTMGp06dQkJCAgYMGAAHBwe9ZZOSkrBjxw4cOXJEufGsXbs2Fi9erLf8tWvXcO7cOQQHByMpKQl2dnbo0KEDWrRogRo1auRJ++Pj4zF+/HiEhobi0aNH2Lt3L5ycnPKkbqI3cejQIRw9ehT3799XppUpUwYffvghevXqpVM+KCgIa9euVQI7VatWxRdffIGKFSsCyAigLFu2DBEREahQoQKioqJQoEABeHh44OrVq/jkk0/QsGFDXLlyBYcPH8bZs2eVuidMmJDltVhAQABu3LiB06dPAwBq1qyJatWqwdPTE2ZmZnmyL06fPo3Fixfjxx9/hK2tLaZMmfK36/ztt9/g7e2N0NBQ1KhRA3Z2dnj16hViYmJQrVo1eHh4YM+ePdi9e3cebAHRv4gQ0TspNDRUAEiPHj3eSv2PHz+WOnXqCAABINu2bTNY/urVqwJAqlWrJnfv3lWm//777+Lg4CCtWrWShIQEERFJTU2Vn3/+WZo3by4A5KefftJbZ0pKiowZM0YKFSokU6ZMkZiYGElPT1fmJyQkyPfffy8lSpQQAHLz5s082PJ33/Pnz99q/SqVSi5duiQeHh4CQIoXLy7Xrl3LsrxarZZvvvlGbG1tJSIiIs/bk5KSIjExMdK4cWMBIL/99lueryMvubi4CAC5ceNGfjflnZeWliYApEiRIvndFBHJODd9/PHHynmvf//+olarsyyfmJgoTk5OYmNjIwcOHNCa17BhQ/nggw/k8uXLyrS7d+/KiBEjBIBMmDBBp74LFy4o6zY3N5dHjx7lqN3Dhw9Xlps+fbqoVKocbnHuJCcnS0xMjNSuXVsAyO3bt7Nd5t69e/LJJ58o23T8+HGD5Q8ePCgAJCQkJK+arUhLS5OYmBgZOHCgAJC9e/fm+Tr+LSZMmCAAxNfXN7+bohg8eLAAkICAgPxuSp66c+eOVKtWTfkOHzp0yGD5M2fOCACpW7euPH78WJn+66+/iq2trXz44YeSnJwsIhm/nyEhIcrv0sWLF5XyKSkpEhwcLA0aNBAA0qBBA4mLi8tyvampqdK3b19xdnaW2NjYv7nVul6+fCkxMTFiYmIitra2f6uu1NRUGTdunBQqVEi6d++udf2Ynp4uMTEx0qNHDwEgzZo1y4vm0xt6+fKlcrz+m+3Zs0cAyMcff5zfTckRDgcjMlKlS5fWerJsZWVlsHyhQoUAAMuWLUOlSpWU6d999x3Mzc1x4MAB2NnZAQAsLCzQunVrHDp0SOfpemaTJk2Cj48PVq1ahcWLF8PBwUHriZOdnR2GDBmC8+fPAwACAwNzv6HvoWHDhr3V+k1NTVGvXj18++23AIDo6Gh06tRJq2dYZiYmJmjYsCFsbW3h7Oyc5+2xtLSEg4MDzM3ZOZXeLgsLC8yfP1/5t5WVFUxMTLIsb2trC3NzcwwdOhTu7u7K9MDAQPzyyy/44YcfULduXWV6pUqV4Ovri65du+qtr2HDhsr/p6en4/Dhw9m2OTY2FidOnFD+7eLiAlPTt3P5ZmVllevvYoUKFbBhwwaYm5sjPT0dHh4eOHnyZJblNfsg877IK+bm5nBwcMj294zon+To6IiRI0cq/87p9dZ3332H0qVLK9OXLl2KkiVLYu/evUodlpaW6NixI3788UdYWlpq1WNpaYlOnTph4sSJAIBff/0V3bt3R0JCgt71WlhYoF69eqhSpQqKFCmS+w3Nho2NDRwcHAyec3Nq8uTJWLVqFT777DMcPHhQ6/rRzMwMDg4O8PPzQ/fu3REdHY24uLi/vU56M3PmzFF61NK7g0EgIiPm6emJDz74AACwefNmg2XPnDkDFxcXdOrUSZkWFxeHNWvWwNraWu8Fg4ODg9aFT2bTpk3D6tWrMXbsWAwZMsTgusuXL4+1a9fiyZMn2W3Se8/Hxwd37tz5R9dZrFgx/PXXX5g1a5Yy5I/o36pEiRIYOnQoAGDbtm1IS0vLsuyff/6Jp0+fKjdRGpohTyVLltS73LRp0wy2oXnz5gCA2bNnIz4+3mDZXbt2ad0IvsuKFSuG+Ph4TJ8+nTddRJl88sknynVSdtdbp0+fRsuWLdGyZUtl2r1797Bjxw7Y2toqD9wyK168OEaMGJFlnTY2NrCxscGpU6ewbt26N9yKd8P27duxYsUKFClSBF999VWW5WxtbbF//34lXxD98/766y/lgSO9WxgEIjJipqamys1KWFgYHj58mGXZRYsWoVu3bjpPmoCMPDPr1q2DiOjM0zfmPSwsDGvWrIGdnR0+//zzbJ8KmZiYoEOHDihWrJje+SqVComJiUhMTMxRAkBN2VevXhks9/LlS61k1JrlXpeWlobExMRsE2Cnp6cbbGdQUBCmTp1qsA7Ncpptzotk2V999RVMTU2xc+dOeHt7v3E9r169UrZP37HwuuTk5FyV15RNTEyEWq1+43aScTMxMcHEiRNhZWUFEcGePXuyLLt+/XqUK1cOVapU0ZquOV7nzZun9ztYr149JU+QPtOnT4eZmRmePHli8IYwLS0NS5YswYwZM7LbLADa3ylDwa3Xz4GGygKAWq3O0fl1+vTpMDc3R3h4OMaPH5+j77U+KSkpShs1uVEMSU1NfePyDHzTP0FzvQNk5GXM/OKL1y1atAg9e/bUO+/mzZvw8/PTO0/f9ZZGtWrV0K9fPwAZ39OQkJCcNl3Hy5cvc3y99Sblk5KSlO/n6+fXlJQULFu2DAAwbtw4vQGxzMzNzQ3mHsp8zjR0XZGSkqJ1rtAs93r7RASJiYl4+fJllnWp1Wqt68+cnLOBnJ/n0tLStPa1ZrnskoZrrmUNXR+npqZqzdOcq/W1PTIyEp07d37j3wF6uxgEIjJybm5usLW1RWJiopLE9HWXL19GXFwcPv30U63pNjY2aNy4MdLS0jBq1Ci9T5eqV6+OWrVqaU3bs2cPEhISULRoUVSrVi1H7axSpQq8vLx0pt+7dw99+/aFh4cHWrRogRIlSuCrr77S+2N+69YtfPHFF2jcuDG6d++OihUrwtPTE0+fPtUqd/bsWUyfPh3FixdHSEgIXr58ifHjx8POzg6FCxfGxIkTlR/BgIAANG/eHHZ2dqhTpw727dunt/23bt1S2tmsWTOUKlUKs2bNApDxwzt16lT07NkTiYmJePjwIfr374/+/fvDz88Pz549Q0BAAPr374/mzZvjwYMH6NSpE+zs7NCmTRulbP/+/eHl5YVbt25prfvHH3/EwIED9c4DgJEjRypPaubOnaskgc6p2NhYfPvtt3B1dYWHhwfKlSuHfv36ITw8XG/5+Ph4rFixQilfsWJFLFmyJMueA4mJiRg3bhw8PDzQrVs32NnZYdCgQXj27Fmu2kmkUadOHSXJ/Ny5c/HixQu95fbv34/p06frTNckZN67dy8GDBigc8Fsa2uLzp07Z7n+ihUrYsyYMQCA5cuXZ3nBvWrVKjg5OWn1wMzK2rVr0atXL3h4eKB8+fJo2rSpkuRVIykpCRMmTECTJk3g4eGBpk2bon///srNqT7R0dHo06cP7OzsULZsWa3hdK9r164ddu3aBWtra2zbtg3fffddtu3OLDk5GRs2bECzZs3g4eGB6tWr4z//+U+W59W0tDRs2bJFKV+zZk2MHz8ejx8/znIdx48fR58+feDh4YE6deqgevXq2LhxY67aSfR/7N13WBRn1wbwm46CKGBDiIoNe0PsaGzYe4xijS32GPurxpYYMYkxGmPUWLEXwPYaCVGsqyYRNTYsKIolAiog0lnO9wffzsu6u4CoQd37d11eCTPPPHN2lh1mzzxznrzo1KkTrKysEBcXh6+//lpvm1OnTsHc3BwDBgzQWl6sWDFUr14dycnJGDhwILZu3aqzbZ06dbJNPq9evRq9e/eGWq3G4MGDcfXq1ZeK//bt25g6dapy/vjggw/Qr18/g6NsIiIiMGPGDKW9i4sLNm/enG1SYM6cOejRowe6d++OokWLolWrVlrXLb/++iv+/vtvAECjRo1yFfegQYN0RlPGx8dj2bJlynVIuXLl0L17d/z2229a7e7cuYN169ahTp06GDp0KABgw4YNShHqFi1aKMfx2rVrGD16NAoVKgRHR0dMnTpVK/Fy7949bNy4ET169IC3tzcSExPx+eefw87ODoUKFUKzZs30lj1Qq9Xw9fVVznPVq1eHl5cXfH19tdpFRkZi165daNKkiarCYBMAACAASURBVPI36uDBg6hbty4KFSqEBg0aaD1anNUff/yhnBfr1q2LcuXK4ccff1TW379/H5s3b0b9+vWVBOWuXbtQo0YNFCpUCE2bNsVff/2ltN+5cyeaN2+OixcvAgAmTpyY498a+pflWzUiIsrWmy4MnVW/fv0EgDg5OUlSUpLO+kGDBknnzp31brt3714xNTUVAGJhYSFeXl4SFRVlcF/JyclSrlw5ASDTpk17pbg3btwoPXr0kH/++UdEMovPderUSQDImDFjJCUlRWkbEhIixYoVk6+++kqePXsmarVavv76azEzM5N69epJdHS0iIhERUXJl19+KdWqVRMA4ufnJ/369ZPhw4fLiBEjxM7OTgDI7NmzZf78+VKlShWZNWuWjBgxQszNzcXa2lqn2OuaNWukT58+8ujRIxHJLDbr5eWlFI9NTk6WO3fuiEqlUopv37lzR+7cuSNPnz6Vffv2ybhx45QiznXr1pVZs2ZJlSpVpH79+rJs2TKl4KShoqzu7u5y8uRJrWVhYWECQJKSkiQtLU0aNGggAKRAgQJy9+5drbbBwcFSvHhxnX5jYmKkUaNG0rp1a4mMjBQRkePHj4utra3Y29vLH3/8obNNixYtpHXr1srxiIyMlHbt2imvIWth6CtXroinp6f88ccfkpGRIWq1Wr788ksxNTWV+vXry5MnT/S+3jeJhaFz720rDJ3Vli1blN85lUqls37Hjh1SqlQp5fySVXx8vNjY2CjbV6xYUc6cOZNjweaMjAwBIFeuXJHg4GDl3Hns2DGdtmlpaeLp6Sm//PKLpKenK/vy9/fXapeeni7t27eXDRs2SEJCgoiIqFQqsbOzEzs7Ozl16pTSdsaMGVK9enWl6Gt0dLR07dpV5/xep04dASCnT5+WNm3ayJQpU2TWrFlia2srACQgIEAnXnNzc6VItqYws7m5uRw5ckSr3YMHDwSATuHZpKQk8fb2lsqVK0t4eLiIiFy9elXKlCkj1tbWsnPnTp19jhw5UmrUqCHXrl0TEZEnT57ImDFjlGP1YmHoyZMny4wZM5R9R0RESLVq1cTCwkJ++uknnf7fZywMnT86duyo/J3Peo2i0bVrVxkwYIDebTdt2iQmJiYCQKysrKRnz57y+PHjHPe5efNmqV27tohkFq93dnYWAFKtWjWdgr0LFiyQLl266PRx+fJlcXFxkalTpyrFpZcuXSrm5uZSo0YNneue+/fvS/ny5WXy5MnKZBcXL14UNzc3AaBTGDoqKkqaN28ugYGBynHZtm2bWFlZiaurq/IZ79+/vwCQkiVLSmJiYo6vXZ+EhARp166duLu7K+f3s2fPSrFixaRgwYJaRetXr14tvXv3FgDSt29fWbdunbRr105mzZolFStWFABStWpV+euvv6R06dIyatQomTVrlnKMly5dqvTl6+ur/I537dpVevXqJc2aNZNZs2Yp15w2NjZy/vx5ZZuUlBQZMWKElC1bVq5evSoime+hm5ubWFpaan1+AwICZNSoUQJA6tevL0FBQdK8eXOZNWuW9O/fXynI/eJkCF9++aWMGzdO+V2Kjo4Wd3d3MTMzEx8fH1Gr1bJlyxb55JNPBIC0a9dO/Pz8pHXr1jJr1izp1auXABAXFxelz0ePHsmdO3eUSQaCg4Plzp07uZ4M4V30rhWGZhKI6C31byaBLl++rFw0//zzz1rrnj9/LiVLltT6IvGiuXPnKtsDkCJFisjUqVP1nuyPHz+utPvqq68M9hkfHy9+fn56/x08eFBEMr+M37p1Syfe6tWrCwA5d+6ciGR+uXB3d5dSpUrpJA0+/fRTASAtW7bUWt6nTx8BIFOnTtXax549e5QLsM8//1xSU1OVdZqLu19++UWrr5o1a+okVZ49e6ZcDGlm3Lp7964AkOrVq+scj/DwcAEgdnZ2OomehIQEqVWrlgCQHTt26D2eDRs21FmWNQkkIvL48WMpWbKkABB3d3etZJ6hJJDmi8TRo0e1lvv7+wsAcXR01PoSvWrVKnFwcFC+5Gncu3dPHBwcdJJAw4YNEz8/P539amZL+v777/W+3jeJSaDce5uTQPHx8VK1alUBIJ06ddJZ37t3b5k5c6bB7Q8dOqQkhTX/PvroI63ZeV6UNQkkIsoMiu3atdNpe+TIEXFxcZHExMRsk0D79++X/v3762y/b98+ASDNmjVTlhUvXlz69eun1S4kJMRgEqhTp05KslZEZOHChQJA75fUrEmgpKQkqVevngAQZ2dnuXnzptLOUBJo5cqVAkBWrVqltVzz98nKykrr2P76669SpEgRnQSeWq2WMmXK6CSBbt++LXXq1NGJ+8GDB2JlZSVmZmY6695nTALlD83MXwBk69atWusePXokjo6Oypd9fT7//HOtc06xYsVk5syZyk0YfbImgUQyP/Oa7fv27as1K6u+JFB6ero0bdpUChcurHU+EBGZMmWKAJB69eppLR8yZIhUrVpVJxbNte2LSaDFixfLvHnzdNp///33AkCGDBkiIqKcs7MmHF7WggULlJt8WR07dkwASKFChbT+vu/fv18ASIMGDeT48ePK8tjYWHFychIA0qhRI61rxa1btwoAad68udY+goODlRt6WRNE6enpSpLFw8NDSc7t2LFDAMg333yj1c+9e/fE1NRUzMzMtK6/rl69KgCkcOHCMmfOHK1tNNeJmmtokczkW61ateT58+dabaOiosTR0VEAKDP/an53ixYtKosWLdKKvUyZMmJubq5zs1Hzd0CTxHufvWtJID4ORkSoUKECatasCUD30YT169fDzs5O55GurGbNmoWzZ88qj1fExsbi22+/RatWrbBr1648xVSgQAG0bNkSiYmJ6NevHz766CN89tlnqFChAho3bowdO3YgMTERKSkpCA0NVf5FRETA2toaQGbxQAAICgpCSEgIWrRoAQcHB639aJ6hP3r0qN7Hl5o3b641vLpVq1YAAHt7e3z77bewsLDQWXf//n1l2aZNm2BiYoKEhAStOO/fv6/M7qGJMzfKlCmjDPPVKFiwIGbPng0TExP4+PjobPPLL79kWzBSw9HREb6+vrC1tUVISAhGjRqV7TPy9+7dw+bNm1G+fHmtGZIAKI+8PXnyBL/88guAzMdK5s2bB29vb5QtW1arvYuLCypXrqy17MGDB9iwYQNcXFy0jl1oaKjOe0z0smxtbdGuXTsAmTU6zp8/r6y7ceMG/Pz8sq2x0apVK9y+fRsdOnRQZtPy8/NDkyZN8M033+RYIwz4XwHpoKAg/P7771rrfHx8MGHCBBQoUCDbPnx8fFClShWdz4imVoVKpdKa+W/nzp24du2a8nPt2rXRp08fvX1/8803KFGihNZrBrTPcfpYW1tj/fr1cHJywoMHD9C7d+9sa+8kJydj8eLFsLOzQ5s2bbTWaf4+paSk4IcffgCQWXdj6tSpqFevHho3bqzV3tTUFC1bttTZx4oVK1C+fHmd4xQXFwcTExOo1Wq9j9gQvU41atRQrpVe/Hu9evVquLi4oHz58ga3X7RoEVQqFUqXLg0AiI6Oxtdff402bdrkegZVzeygZmZm2Lp1a461AE+cOIGTJ0/C09NT63wA/O8aKiQkRHmU6q+//sL69ev1Fshv2bKl3tkNfXx89H4+NTUjc3qMLLeePn2KlStXomTJkjrnjlq1aqFChQqIj4/HTz/9pLNt+fLltYp1Fy5cGB4eHgCA2bNn671WNHSudHd3x9ixY5WfzczMMG/ePDg4OOCvv/5StvPx8YGFhQU6d+6stb2LiwsaNGgAtVqNb7/9Vm+ss2bN0lqmL6bVq1ejZMmSiIiI0Drujx8/VmZbe/E6q1atWpgwYYJW7C1atEB6erpRTODyvuB8vEQEKysrTJo0CYMGDcLNmzdx+fJl5Q+bv78/xo0bl23xPVNTU7i7u+P8+fPYvn07Fi5ciLCwMFy/fh0DBgxAamoq+vXr91IxmZmZwd7eHgMGDMCSJUtw7tw5DBgwQEk2BAQEIDIyUu+sAzVq1ECNGjVQt25d5TVolutrC2QW6tuzZ4/ORUF2rzlrAsgQf39/g7MjuLu7w93dXSeBkhc9evRAzZo1ceHCBfz666/o0KGDsm779u04cOBArvrx8vLC4sWL8emnn8Lf3x8LFy7UWxMFyLwwjI6ORvXq1VGkSBGtdSVLlkSxYsXwzz//wN/fH7Nnz8aZM2fw8OFDve+DPvv27UN6ejqWLVumtyD54MGD35lZk+jtNHXqVCxduhTp6enYt28f6tSpAwDYu3cvvLy8ULt27Wy3d3R0xIEDB3Ds2DHMnTsXR48eRWpqKv7zn//g+vXrOc4C1Lp1a3h4eOCvv/7C/PnzlQTIqVOnEBoaih07dmS7/c2bN/H333/D1NRUK9GjMXjwYACZCS8gsybJunXrUK9ePcybNw+TJk2Cqakp+vbtq7f/V5lqvXr16ti+fTuaN2+Oc+fOYcSIETo1LDSuXLmCGzduoFSpUnB1ddWJwc3NDRcvXsRvv/2G58+f48GDB7h8+bJOwig7/v7+MDc313su9vb2BgDlizXRm2JnZ4exY8di/PjxuHTpEm7cuKHURvT398fkyZP1/r3TMDMzQ+PGjXHp0iVs2bIFCxcuREREBC5evIjevXtj27Zt6NKlS7YxmJqaYvLkybh69SrWr1+PefPmoXLlyjqJBo2AgAAAUG4WZqX5ey4iCAgIQNu2bbF7926IiN72+hw5cgRPnz7F1q1bcfjwYZ31mvPY63D27FlERESgRo0acHJy0lpXuHBhlC5dGmFhYfD399eqiZOTlz1XWlpa6iTDSpcujXr16iEoKAj+/v7o3r07Ll68CGtra1SpUkWnjxo1auD06dNQqVR49OiR1myV5ubmShInO/7+/kpdxxd17NgRAHQmRrCwsNCbyKN3C5NARAQAaNCgAWxtbfH8+XOcPXsWHh4eePjwIUJDQ+Hi4pKrPmxsbNCjRw88ePAAPj4+SE5ORkpKCoKDg9G3b1+YmJjAzMwMpqamyMjIyNWdckOioqJQokQJTJkyxWAbzXSsmsJ0hmJ2dXVFeHg4oqKi8hxPdnGWKlUq2zhfHJ2UV/Xq1cPff/+N4OBgJQkUGxsLGxsbZaRCbjRu3BiFCxdGXFwctm7dqhRDfFF2xxXI/BJ48eJF5bjm1P5Fmu3GjRsHOzs7vW2yu1gmykmJEiVQo0YNXLhwAefOnUNGRgZMTU1x+PBhlClTJseZCzUaN26MKVOm4OLFi3j69CkA4Pfff0dqamq2v6NWVlZKQc2sn48TJ06gRo0aOsnVFyUmJiIhIQHt27dH9+7dDbbTnAvbtGmD7du3IyEhAT///DNKliyJHj165DjaKK8qV66snF8PHjyI0NBQFC5cWKddbs4lu3btwpMnT6BWq1/6XAJknk/atWuX7bn4xS+FRG9Cs2bNYGFhgbS0NISEhKBSpUoIDw/HnTt34OzsnKs+7Ozs8PHHH+P27dtYtmwZUlJSkJiYiKNHj+aYBNJo06YNNm7ciISEBKxevdpgEii7z5u5uTkqV66Ma9eu5flvveZz3bdvX+Xm3ZuSm3NNcHDwG7kezI2aNWsqM7dduXIl29HYmhH6cXFxeb6ejoqKQrVq1bI9L744+oveD0zjEREA7Vm8Fi5ciJiYGJw8eRKOjo7o1q1brvuxt7fH7Nmz8ccff8Dd3R0AsG7dOly/fh1A5pclzV0FQ9Oc5pbm7oihf5q7InFxcQb7sLOzQ9WqVV8pjpwUKFAg2zhf1x/YGTNmwM7ODhs2bMDDhw8BZM7e0K1bt1yNWtKoVq0aDhw4AHt7e1y5cgULFizQ2y674wpkJhZfpr0hbm5uBo9ddsPmiXJD8zjDvn37lDuqFy5cwGeffZbrPiwsLNChQweEh4dj4MCBADKH3OdmdqyuXbvCzMwMsbGxCA4ORlpaGvbt25fto2gvKlWqVLbnGM1d6j59+uDq1avw9PTE7du30b9/f9SpU0e50/+6FS9eHMHBwShdujSio6MxY8YMvTOh/VvnEnt7+2yPU05JN6LXoXbt2sp10FdffYXnz5/j999/R9WqVXUe986Oo6MjvvvuOxw5ckQZdbN06dJsZ8fLytvbG6tWrYKJiQkOHDhg8HHI7D5vlpaWygjK3LTPTtmyZbP9fJqYmCiPej558gQXLlx46X287Lnm35b1HPRvxWpnZ5ftcX9dNyrp7cIkEBEpNM9vR0RE4OzZs/D391emgtQnLi7O4OMKNWvWxLZt25REjObOBgDlTs+9e/dw8uTJPMd7+fJlXLp0yeD658+fa/28bdu2bPuzsbHJcyzZCQkJUZJg+rwYZ16VK1cOffr0wZMnT5TaGZs3b0b//v1fuq8mTZpg9OjRADKnqc6u9o5KpcLdu3cNrn/xuL7s683ufXtdx46M1+DBg5VErL+/P4KCguDs7Ixq1aoZ3Gb16tV661PY2dnB19dXqRuR9bxnSPPmzdGkSRMAwNy5c3H48GFERUXho48+yvVryO4zkpycjLS0NOXnMmXK4NChQwgKCkKjRo1w/fp1TJ8+/Y3Vcihbtizmzp0LCwsL7Nmzx+DU2ADw6NEjBAcHG1xfoEABrdFZr/NcIiI8n9C/RnO9FRoaiitXrmDPnj3ZXm/du3cPBw8e1LuuUaNG2Lx5M4oUKYKMjAwcOnQo13EMHToUrVq1QkZGBgYPHowrV64YbJtTzaw3/bdeRJTkeFJSEm7duvVS/WcVGhqqVQfuRW/qejC3su4/KSkJe/bsMdjWysoqV49+GbJ//348e/bM4HqeF99PTAIRkcLLy0sZvePj44OdO3caLBgKZF40b9iwweD6ihUr6i1IPGfOHDg7O0OtVmPv3r15itXV1RVpaWlYunSp3vU3btxQvmxoir8mJiZm22d2rzWvNHEaerb8ypUreov65dV//vMfAJlFUP39/VGnTp081/WYP38+xo8fDyCzQPiL2rZtCwBITU2FWq022I/muGpqfeRU50RD037Dhg14/Pix3jaffPJJrvoiMsTZ2VkZvbNhwwYsWbIkx3PBhg0bsi1S+s0337xUDJrP7YkTJzBs2DCMHTvW4COQWRUuXBj29vb4888/cfz4cb1t5s2bh/DwcADA7du3AWTevdcUkm3cuDFu3LiRY/2iVzF48GDlXJ3duSSnx4Q7duwIOzu7lz6XAJnnk+fPn2PlypV61x84cAB+fn657o/oVXTr1g1ubm4AMhNCBw8ezPa8o1arsXHjRoPra9SokacbPkBm8rtNmzZITU3Fli1bdNZrPp85XUNpamtpPp/bt2/P1f5dXFxgYWGB3bt3G0zsaP7W169fXylRsGjRIq0EtyGPHz/GX3/9BeB/ryU9PT3bbd/E9eDL6NOnD9q0aQNTU1OIiN4RlBqenp65LtvwIldXVyQnJ2P58uV61x89elTvOZvefUwCEZHC2tpaqfh/5MgReHl56czY9KLff/892ztHMTExALSHrVauXBnTp0+Hubk5lixZkqdHEbp37w4TExNs2LABe/bs0fniMH/+fOUxNs2do7CwMJ3ZMx49eoTAwEDUq1cPjRo1euk4cqK5s7dmzRrs379f66JDRPDll19me/fvZZUtWxajR49GQkICvL29MXHixFfqb/r06QZHRDRq1EgpzKwvGbdx40bY2NgoNYXatWuHggULIiQkBIsWLdJqq6lnkJWXlxdsbW3x559/YunSpUqtFY1169YpBcyJXoXmrnxcXBzCwsJylVw0lIAG9J/3suPl5aUUObawsFBG4eWkbNmycHd3R2xsLKZPn64zIi8yMhKnT59WHj158dFOBwcHdOrUKVf7elVDhw7VO2sXkDmTjaYI97Jly3SSyhs3boS5ublyXFq2bIkiRYrg2bNnGDNmjM55VXP8s9KcZ7/88kucPn1aa11ycjLmzp370hMYEOVVoUKFMG7cOACZ11u9evXKsSaVn59ftjPzxcTEwNTU9KX/LtrZ2cHHx0dvvS7gf9dQ0dHROqOBEhMTsWvXLri5uSkJlqzXPS8Weo6JidFJoDds2BClSpXCw4cPMWvWLPzzzz9a60+dOqUUty9YsKByPjhz5gwWLlyY7Wt78uQJFi1apIxAzzo7m6HrFisrK3z66afZ9vumbNy4Ef3794eDgwNKlSqlXJf+/PPPSE1N1WlrYmKiNcvYy9K8V4sWLdIZhZmamoo5c+YYnDiA3m1MAhGRlnbt2inDUD/++OMch5iq1Wr07NlT74VJREQENm/ejDFjxqBevXpa68aMGYOFCxciPT0dAwYMUGaTeJGI6F3euXNn9OzZE2q1Gt27d8eHH36INWvWYM2aNejWrRuePXum1Djy9PTEkCFDICJYsGCB1heMvXv3Qq1WY+bMmS9VPDm3evbsic6dOyM1NRVdunRBy5YtlTi7du0KtVqtzAyicevWLVy+fBmPHj3SufNn6HhomJiYYPz48bCzs4OHh4fWbBEv0vSTXX8lSpTAr7/+anCdZsTD+vXrtb6AXr16FaGhoRg0aJByV1DzuFpGRgamTZuG6dOnIz4+HiKCUaNGKc/3a15jyZIllf7nz5+PevXq4dtvv8WaNWswevRoLFu2LN/v1tH7IevU5K1bt0axYsVy3Gb27Nl6Z90TEfj4+KBOnTrKSLqs67L+V8PMzAy9evUCkHnOeLGGV9b2L26rGY156tQp1K5dG2PHjsWaNWvwzTffoEmTJpgwYYIyk0tQUBC2bt2qtz9DRWFzQ/OZze5cYmlpiYCAAL3nJEtLSyxevBi2trY4ePCgctceyHwUITAwEM2aNVPqpZiYmCiJu59//hmjRo3CvXv3ICL49ttvlUcnssY0depUVK1aFf/88w88PT3Rq1cv5VzcuHFjtG7d+qVqpxG9qqx1vz7++OMcZ1xKT09Hly5d9BYtDgsLw86dOzFt2jSdOoe5+Xy6u7tj1apVBteNGzcOIoLvvvtOa1SKZhbPGTNmKNdQ3bp1Q9WqVZGUlIQePXpg1apVSnK2Y8eOWvFoYtLMHLht2zbUrVsXM2bMwJo1azBjxgwMGzYMI0aMUB4FbdGihXIjycfHB4MGDdJ5fSKC06dPY9KkSZg4caJyLVu4cGEsXrwY5ubm2LZtG27cuKFs8+DBA5w+fRpdunR54wWqjx8/jtjYWK14t2zZgqioKEyePFl5rYsXL4aDgwNOnjyplaQREWW0d9euXfMcx6hRo1C/fn08ffoUrVq1QteuXZXzYsuWLfXO/poX+/btU15jbmtW0RsmRPRWOnz4sACQbt26/ev79vHxkeLFi+fYLiYmRooUKSJ169YVV1dXmTRpkqhUKlGpVLJy5UopU6aMTJgwIds+wsLCpGnTpmJjYyOenp6yZMkSpY+ZM2dKlSpVpESJEjJt2jSJjY3V2jY6Olo6dOggALT+denSRdLT03X2NXz4cAEgnTt3FpVKJbt27RI3NzdZu3at0ubZs2dy7NgxKVeunACQ4cOHy7lz55RYly9fLgCkYMGCsmPHDrl//76IiJw6dUratm0rAKRJkyaiUqkkLS1NREQePXokXl5eOnH27NlTJ8Z+/fop6wsVKiSBgYFy7do1WbBggbJ8ypQpEhkZme1xHTJkiAQEBOhdd//+fVGpVNKgQQMBIJ06dRKVSiVRUVEG+9u6dat88MEHetdt2bJFrKyspHTp0hIcHCwqlUo8PDxkxIgRetv36tVL51jMmDFDGjduLACkVq1asnz5cqX9mDFjxNbWVqu9m5ub3Lt3L9tj8Ka4u7sLALl+/Xq+7P9dkpaWJgDE3t4+v0PJ0Z9//im2trZy8uTJHNs2btxYGjZsKHZ2djJkyBAJCgoSlUolBw4ckKZNm0rDhg3l6dOnSvvo6GhRqVTSvXt3ASB16tQRlUolERERShu1Wi3lypWT8PBwne26du2q/O67uLjIoUOHtH7/duzYIaVLl9b6jBQsWFD27NmjFXfx4sUFgEyYMEFUKpX4+fmJg4ODrF69WkREoqKiZN++feLg4CAAZP78+RIaGioiIpcuXZKpU6cKAHFycpLAwEC5efOmqFQq5TNdo0YNUalUcvfuXYPH7uTJk1KkSBGt46Nx4sQJKVKkiBQuXFh2794tKpVKOnToIB999JHEx8frtP/iiy/0nlcHDx4sAKRSpUoybdo0pf3Vq1elWrVqOtvMnTvXYLzvqwkTJggA5b1/GwwYMEAAyO7du/M7lH/NtGnTpGLFijm2Cw8PF0dHR6lZs6a4ubnJ9OnTlWulH3/8UZycnGTevHla24SGhkpgYKA4OTkJAJk2bZqoVCpJTEw0uJ8pU6ZIly5d9K6bPHmyAJCWLVuKSqWSvXv3StWqVeXHH3/UaRsVFSV169bV+pxZW1vLzp07xdTUVExNTaVRo0Zy9OhRZZtFixYp5yjNPwcHBwkJCdEbz8GDB6VevXpK2x49esiQIUNkyJAhUqpUKWnbtq3Ba6UDBw6IjY2NlChRQn799VdRqVTy4YcfSr9+/SQ1NVVpd+7cORk2bJgAkHLlysnx48clPj5eYmNj5fDhw8p5d+zYsXLhwgUREblx44YsXrxYuY7z8/OTf/75R0REgoODlb+JDRs2FH9/f1GpVLJixQqxs7OT4OBgnVgvXLggjo6OUqBAAdm+fbuoVCr56KOPpFOnTvLkyROl3dWrV2XOnDkCQIoWLSr//e9/JTo6WpKTk0WlUkmdOnUEgHTv3l3OnDmjbHfr1i3x8PDQOS+OHz9eaXPx4kXlnOHs7Cy///67xMTEyPPnz+XkyZNSsWJFASCDBg2Ss2fPKtv5+/tr9Tlp0iS978f7YOfOnQJAhg4dmt+h5IqJSDZpYSLKN8HBwWjVqhW6deuG3bt3/6v7fvToEY4dO4bevXtn2y4pKQl//vknGjVqhJs3b+LMmTPKo2FWVlbo378/KlWqlKu7qj1gDQAAIABJREFUq7dv38Zvv/2Gmzdvai3/5JNPUKxYMYPDpDMyMnDkyBHljryHhwe6dOmit6hfSkoKwsLCsH79emRkZKBUqVIYOHAgihcvrvWaNHUzNKysrFChQgU8fPhQ5zGDEiVKoGjRorh69arOXbbKlSsrd5/UajUOHz6MwMBAAJnDnzt16oSCBQtqbRMXF4cFCxYgPT0dY8eOhaurK+7du6dTtM/Z2dng3Zn09HR07twZO3bs0FtX5PHjx3qLwGbXJwAEBgYq9ZVedPPmTfz3v//FvXv3AACjR49WHkF5UVJSEvbv348zZ84AyHxGv3Xr1li+fDlcXFzQoUMHWFtba20THh6uzLTk7OyMAQMGaL1v/6Z69eopxb5fHMVF2tLT02FhYQF7e3udx/neRkuXLtUZvaNPYGAg2rZti9u3b+PWrVvK5xrIHFFTu3ZtZVp2IPNzrW+0ZPHixbVGHcXExORqOyDzjnbWOhCPHz/Gli1blBF5I0aMUGqOaOzbtw/ly5fHhg0blBGR3t7eyuMjsbGxOndpCxUqhNKlS+POnTtISEjQWmdvb6/30atixYpl+/k8duwYPDw8dM5/AHD37l0EBwcrRf979epl8FFdtVqNQ4cO4bfffgPwv/Pqvn37kJSUhJ49e+qcAxMTE7Fv3z78+eefAID27dujVatWOY7CeN9MnDgRP/zwA1avXq23dl9+GDhwIDZt2oTdu3e/1Kyk77Lw8HBcunQpx2ndnz59irCwMNSsWRO3bt3C8ePHleulQoUK4eOPP0aVKlW0fo/1XTsAQIUKFQzWCkxPT8eRI0eUkZEvrrt+/Tq2bNmC5ORkFC1aFIMHDzZ4ffbkyRNs27ZNuaYaOnQoqlWrhkmTJqFnz55o3LixzjYPHz7E2rVrERMTAxsbG3z66af44IMPDB6X5ORk3Lp1C2vXrlWW2draonfv3lrXYPq8eN05aNAg1KpVS6tNWFiYTrmBcuXKISMjA3fu3NFaXqBAAZQrVw4PHjzQGuUDAE5OTnBwcMCRI0fQsmVLdO3aFTNmzFDqJlWtWhWtW7dG2bJl9cZ6//59HDt2DCEhIQCATp06oUWLFlqF8iMiIhAfH6+1nYuLCwoWLKg14gnIHH2atdxDcnIyDh48iBMnTgDIfOS2bdu2yvV7eHi4ziP7ZcqUgbm5uU4dJ0tLS+WROxHBypUrcfPmTbRu3RpeXl5vZNT922DXrl34+OOPMXToUKxZsya/w8kRk0BEb6n8TALRu23r1q24cOHCay04Tf/DJFDuvWtJICJjwSQQ0b8vaxIouxm/6N3zriWBjOu2BxHRe05EcODAAQwYMCC/QyEiIiIiorfM+zkei4jIiMyZMwdnzpzBoEGDcPPmTVStWhU1atTI77CIiIiIiOgtw5FARETvuKCgIAQFBWHixIlITU3FlClT8jskIiIiIvp/t27dQlBQEADg8uXLOHfunE6dNaJ/C0cCERG9444cOYJz587B1dXVYIFGIiIiIsofz58/R+fOndG5c2cAmcWY09PT8zkqMlZMAhERveOsra31zrJBRERERPnvxZnHiPITHwcjIiIiIiIiIjICTAIRERERERERERkBJoGIiIiIiIiIiIwAk0BEREREREREREaASSAiIiIiIiIiIiPAJBARERERERERkRFgEoiIiIiIiIiIyAgwCUREREREREREZASYBCIiIiIiIiIiMgJMAhERERERERERGQEmgYiIiIiIiIiIjACTQERERERERERERoBJICIiIiIiIiIiI8AkEBERERERERGREWASiIiIiIiIiIjICDAJRERERERERERkBJgEIiIiIiIiIiIyAkwCEREREREREREZASaBiIiIiIiIiIiMAJNARERERERERERGgEkgIiIiIiIiIiIjwCQQEREREREREZERYBKIiIiIiIiIiMgIMAlERERERERERGQEmAQiIiIiIiIiIjICTAIRERERERERERkBJoGIiIiIiIiIiIwAk0BEREREREREREaASSAiIiIiIiIiIiPAJBARERERERERkRFgEoiIiIiIiIiIyAiY53cARJS9M2fOoEuXLvkdBhH9v7CwsPwO4Z3z/PlznseI3iJXrlzJ7xAM+vrrr7Fu3br8DoOIKNcePnyY3yG8FCaBiN5yjx49wv79+/M7DCKiPEtLS+N5jIhy5ezZs/kdAhHRe81ERCS/gyAiXTExMfj777/zOwwiMqB+/fooWLBgfofxVhMRHDt2LL/DoDzavHkz1q5di+HDh6Nv3775HQ69AW5ubnBycsrvMAAAoaGhiIyMzO8w6D2SkZGBVq1awdbWljci6F/h5OQENze3/A4jRxwJRPSWsre3x4cffpjfYRAR5ZmJiQnPY++wU6dOAQDKlSvH95HeuCpVqqBKlSr5HQa9R9RqNQDA3Nyc5zCiLFgYmoiIiIiIiIjICDAJRERERERERERkBJgEIiIiIiIiIiIyAkwCEREREREREREZASaBiIiIiIiIiIiMAJNARERERERERERGgEkgIiIiIiIiIiIjwCQQEREREREREZERYBKIiIiIiIiIiMgIMAlERERERERERGQEmAQiIiIiIiIiIjICTAIRERERERERERkBJoGIiIiIiIiIiIwAk0BEREREREREREaASSAiIiIiIiIiIiPAJBARERERERERkRFgEoiIiIiIiIiIyAgwCUREREREREREZASYBCIiIiIiIiIiMgJMAhERERERERERGQEmgYiIiIiIiIiIjACTQERERERERERERoBJICIiIiIiIiIiI8AkEBERERERERGREWASiIiIiIiIiIjICDAJRERERERERERkBJgEIiIiIiIiIiIyAkwCEREREREREREZASaBiIiIiIiIiIiMAJNARERERERERERGgEkgIiIiIiIiIiIjwCQQEREREREREZERYBKIiIiIiIiIiMgIMAlERERERERERGQEmAQiIiIiIiIiIjICTAIRERERERERERkBExGR/A6CiIiI3j/p6ekoVqxYfodBeZScnIzk5GRYW1vD2to6v8OhN2Dp0qUYOHBgfocBABg5ciR27NiR32HQeyY2NhYmJiYoXLhwfodCRmDAgAH48ccf8zuMHJnndwBERET0/oqNjc3vEOgVaZJB9P5JTU3N7xAUiYmJPF/QGyEi/N2if0ViYmJ+h5ArTAIRERHRG1WkSBE8efIkv8Mgov83adIkLFmyJL/D0CsgIABdu3bN7zCIiHLNz88PvXv3zu8wco1JICIiInqjTExMYGrKMoREbwsTE5P8DsEgni+I6F3zNp9T9eEZloiIiIiIiIjICDAJRERERERERERkBJgEIiIiIiIiIiIyAkwCEREREREREREZASaBiIiIiIiIiIiMAJNARERERERERERGgEkgIiIiIiIiIiIjwCQQEREREREREZERYBKIiIiIiIiIiMgIMAlERERERERERGQEmAQiIiIiIiIiIjICTAIRERERERERERkBJoGIiIiIiIiIiIyAeX4HQERERERERP+TmpqK2NhYAICZmRkcHR0BAElJSShQoEB+hpZnSUlJOHjwIOzs7NC6des89ZGSkoK4uDjlZ2tra9jZ2SnrzM3NYWZm9lriJXpfMQlERERERESUR2vXrkVwcDDi4+OVZdWqVUOHDh3g6emp0/6nn35CUFCQ8rOHhwcmTpwIGxsbAMDRo0fxxRdfwMrKCra2trh79y5Kly6NQYMGYdWqVVrbbt26FTdv3kRISIiybMWKFXB2ds5V7NOnT8eVK1cAABUrVkTVqlXRt2/f155omjt3Lvbu3YsLFy5g/PjxL50Eevr0KVasWIH9+/cjNjYWbm5uAKAcm549e+LgwYP4/vvvc/3aiYwVk0BERERERER5NHToUJQtWxbdunXD8+fPAQCrV69GiRIl9LYfOXIkUlNTMWnSJHTv3h1Tp06FlZUVAMDX1xfDhg3D5MmT8dVXX8Hc3BwJCQnw9/fHiBEjlNFBGn379kVycjLatGmDkydPAgBq166NL7/8Mse4z58/j++++w5qtRrlypXDqlWr4OTk9CqHwqCxY8fCwcEB48ePf+ltDx06hI8++ghFixbF1q1bUa1aNSVhFhMTgx07dmD48OFIS0vD999//7pDp1xKSEiAlZUVzM2ZYnjbsSYQERERERHRK2jVqhXmz5+v/Hz27FmDbc3NzZGcnIwuXbrA399fSQD99ddfGDZsGAYPHgwfHx/ly7SNjQ0GDhyI69evo0yZMjr9WVtbo3bt2ihatCgA4Ntvv8WFCxeyjTc5ORnDhg2Dvb09AKB06dJvLAEEAEWLFkWhQoVeersGDRqgTZs2GDZsGMLCwlC/fn0lAQQA9vb2GDlyJJ49e4Y6depg3bp1rzNsyqWEhARUr14d0dHR+R0K5QKTQERERERERK9oyJAhyqNIAQEBBts9fvwYv/zyC3r27AkTExNl+a1bt5Ceno4rV64gLS1NZztHR0d8+OGHBvvt3r07KleujJSUFHz33XcQEYNtf/vtNyQkJKBHjx65eWn54sCBAzh79izMzc0xffr0bNtaW1tj6tSp/1JklJVarcbMmTNx586d/A6FcolJICIiIiIioldUqFAhDBs2DADg5+eHGzdu6G0XEhKC9PR0DBw4UGt5iRIlYGpqilOnTqFnz55ISEjQ2bZnz54G929mZqYkQrZu3Yrz588bbOvj44MpU6bk+OiOWq3Gxo0b4e3tDW9vb4wYMUKpIZTVhQsX8Mknn8Db2xvjxo3DoUOHsG3btmz7vn37NqZMmQJvb29s2bJFK2mVnJyMuXPnIiMjAwMHDlQKY2enT58+cHd311melpaG9evXK69h6dKlCA0N1duHn58f+vXrByCzOPe6devg7e2NL774Avfu3VPa3blzB9OmTYO3tzc2bdoEtVqt1U90dDQCAgKwfPlyAMCpU6eU/a9btw6pqakGX8e+ffuUtl999RXOnTunt92JEyfg7e2tjL7Zs2cPvL298dlnn+H69et6t4mNjcWSJUuU/mfMmIG7d+/qtAsMDIS3tzeSkpIgItiyZQu8vb0xZcoU3L59W2n34MEDjB07FkuXLlViOnToEM6cOWPw9dFbQIiIiIjegLS0NAEg9vb2+R0KEWUxYcIEASCrV6/O71AUAwYMEACye/fu/A7llVy7dk0sLS0FgIwfP15vm+bNm8u4ceP0rmvSpIkAEADStm1bCQkJydV+x44dKyNHjpSkpCQpW7asAJCZM2fqbRsUFCSurq6SlJQko0ePFgDy4Ycf6rQLCwuT4cOHy/LlyyU8PFyOHj0qDg4OYmNjI0ePHlXaBQYGSpEiRWTHjh0SHh4umzZtkjJlykirVq20+lu3bp1yXC5duiRubm5SsmRJsbGxEQAydepUpe3169eV4/Djjz/m6hjoc+3aNalZs6b069dPrly5IocOHRI7OzspVKiQnDp1SmkXHBwsDRs2FFNTUzE3N5fk5GQZMmSIVnwVKlSQBw8eyOLFi8XFxUVr3eeff670NWPGDHFzcxMA0r9/f1m5cqUUKVJESpYsKWZmZgJAGjVqJMnJyVqxRkZGStOmTaVLly5y+vRp+fPPP6VMmTJibW0t27dv1zo2jRo1kgIFCggAuXXrlsyZM0ecnJykZMmSAkAcHBzk8uXLWv2rVCoZNmyYbNu2TcLDw2Xjxo1iaWkprq6ucv36dREROXv2rDRs2FAsLCwEgDx58kQ+//xzKVmypJQoUUIAiLOzs9y6dUtERDZt2iQzZ84UBwcH5b2dOXOmLFu2LM/v2bto586dAkCGDh2a36HkCpNARERE9EYwCUT0dmIS6M0aPny4ABAXFxeddffu3ZPixYvLtWvX9G574sQJsbe3VxIgxYoVk1mzZklkZGS2+9QkgURExowZIwCkePHiercbPXq0jBo1Svl/Q0mg9u3by969e7WWnTlzRhwdHcXOzk5JBDRt2lS6deum1W7Pnj0Gk0BeXl4yatQoJfEQGBgoAKRixYoSGxsrIiJz585VjkHWZM3LSE9PFxcXF6lVq5bW8uPHj0uRIkXE3t5eTpw4obWuYMGCYmpqKj/88IPs3LlTRP6XSAIgn3zyiXTs2FFCQ0NFROTIkSMCQFxdXSUmJkbr9QOQZs2aSdu2beXSpUsiInLgwAElUTN9+nStfXt6eoqTk5M8e/ZMWXbjxg1xcXERKysrJR6NGjVqCAAZOXKkrFixQlJTU0VEpG3btgJAFi5cqLSNi4uTSpUqyd27d7X62LZtm5ibm+v8rjo7OwsA+eyzz2T9+vUiIpKamiqNGzcWAPLLL79otdckvR4+fKjzPhiDdy0JxMfBiIiIiIiIXpPu3bvD1NQU9+/fVx4H0vjhhx9Qvnx5ZYrzFzVt2hSBgYFo2bIlgMzHir766itUqFABO3fuRFJSUo77/+KLL2BjY4OoqCidQsm3bt3Ctm3b8MUXX2TbR0hICB49eoQOHTpoLW/QoAGqVq2KZ8+e4dChQwCA+/fv4/Lly1qPr7Vv3x61atXS23dqaip++OEHVKpUCQDQunVreHh44ObNm1qPXL2q5cuX4/79+zp1jzw9PeHu7o6YmBjMnDlTZzsTExOMGjUKvXr1AgC4ubkps5rduHED/v7+qFy5stJXkyZNEB4ervWYlEZ8fDz8/f1RvXp1AECHDh2wZs0amJqa4vvvv1ceC9u/fz9UKhXatGmjVUC7YsWK6NChA1JSUjBz5kwkJibq7KNVq1YYOXIkLCwsAECpn3T48GGlTUBAADw8PPDBBx9obdunTx8ULFgQ9+/fx59//qnTd9euXfHJJ58AACwsLDB58mSdvundwyQQERERERHRa9K+fXvUrl0bALBlyxZl+fPnz/Hbb7/lWOS4fv36CAgIwE8//YTSpUsDyEwm9O7dG0OGDMlx/yVLlsTIkSMBAIsXL0ZKSoqybsGCBfjkk09QqlSpbPvYs2cPbty4gRYtWsDT01Pr399//w0AuHTpEgCgQoUKCAsLQ48ePRAZGQkAsLS0xJQpU/T2XatWLWVGNCCzlpEmgfE6aY69JpmTlWbZ2bNndWrimJiYaMUHQPm5Zs2aLxV71unsNTp27Ah7e3ukpqbiv//9LwBg27ZtyMjIyDbWmzdvKsc8Kw8PD62fra2tddoEBATg0KFDaNasmc77qUne5bVvevcwCURERERERPQaaRI9p0+fxrFjxwBkjvZ4+PAhWrRokeP2hQsXxpgxY3D79m189tlnyuiQ7du34/vvv89x+7Fjx6JQoUKIjo7GmjVrAGSOYgkMDMS4ceNy3P748eOoVKkSgoODdf49fvwYqampWLJkCQBg9uzZKF++PIKCguDs7IyZM2ciIiICJUuWzHE/b8qlS5f0jmzRaNy4MQAgMTERISEh/1ZYisGDBwMAIiMjkZiYiO3btxtsW7lyZTg4OADIfF/y4vjx42jfvr3e9zMpKQmpqalKTPT+YxKIiIiIiIjoNWrSpAlKlCgBIHP0DQD4+/tj/PjxsLW11btNenq6zrTuZmZmWLp0Kfz8/FCzZk0AwM8//4yYmJhs91+2bFllpiw/Pz9kZGTg0KFDqFChAlxdXXP1GkREGemi75+ZmRmAzEeiQkJCMGzYMJiZmWHBggVwd3fPVbLKkG7duin/HxAQkOd+gMzj+qIqVaq8Up+vytRU+2u45n3XF6uLi4vWI2J5lZGRAXNzc4Pv54sx0fuL7zQREREREdFr5OTkpIysOHnyJEJDQ3HmzBl07NjR4DZ+fn64efOm3nVeXl747rvvUKhQIdy+fRtRUVE5xqAZjXT06FHs3bsX3333XY6PomV14cIF5dEvfR4+fKj8f+HChbF69WqEhoaiX79+ePz4Mb777rtst89OxYoVlaTX5cuXdZJjL8PX19fgOnNzcxQrVizPfb8qJycnrZ+zi1Vf+5exceNGg+tEROv9pPcbk0BERERERESv2fTp01GgQAEkJiZiwIABsLGxQb169bLdxt/f3+A6Ly8vpSBxbrRo0UJ59GzgwIEoU6YMWrVqlattNUWdZ8yYoXf9H3/8gZ9//hkAcP78eWV5uXLlsHbtWvTu3RuRkZHw8/PLdbxZFSxYEN26dYOJiQkCAwNx+vTpHLdJSUnB7t27AWQWc9a8Bn3FlDXLihcvDk9PzzzF+CoSExNhbW2NDh06wNraGp07dwYAJCcnIyMjQ6ttSkoK1Go1rKyssk0iZien93PDhg04evRonvqmdw+TQERERERERK+ZnZ0dvL29AWTOtpWbUTgrV67E06dP9a6Li4tDTEwMqlatCmdn5xz7srCwwJw5c2BqaoqEhATMnTs31wWYu3fvDhMTEwQFBWHRokVaM38BwJw5c/DRRx8BAHx8fLTWWVlZKTV3XsW8efOUWbUGDx6MZ8+eGWybmpqKyZMno1mzZgAyC1N36tQJQObomgcPHmi137ZtGwC81Mio12nbtm2YPHkyLC0tYWpqqsxgFhgYqJVUA4ATJ07g/v37GDVqFOzt7fO0v549ewLI/P3atGmT1rpnz55h4cKF6Nu3b576pncPk0BERERERERvwLBhw2BpaYmCBQuiXbt2ObaPiIhAhw4dEBcXp7NuzZo1ePz4MTZs2KBTVyguLk7vNs2bN0fRokXh6OiIDz/8UGe9ZpvExERlunIgcxTR+PHjkZGRgSlTpqBixYqYNm0apk2bhmrVqqF69epKgubs2bOYPn061Gq1Vr8FChRQphfPq19//RXVq1fHjRs3UKFCBfz222948uSJ1n5OnjyJTz/9FMOGDYOjo6OybubMmWjZsiUSExOxcOFCpd5OSkoK1qxZg5o1aypJujdl586diI6OVn5OT0/HlClTUKRIEQwfPlxZ3q9fP2Xmty+//BJJSUkAMuv4rFixAs7Ozhg7dmye4xg9ejRatWqF2NhYDBw4ELVq1VLez6pVq2LixIl57hvITHgCwJIlS3Djxg3MmzdP63XTW0aIiIiI3oC0tDQBIPb29vkdChFlMWHCBAEgq1evzu9QFAMGDBAAsnv37vwO5bXr0qWLjBkzJsd227Ztk3r16knDhg2lUqVKMmbMGPH19RVfX1/p3bu3ODo6ysmTJ7W22bFjh8yePVtMTU0FgHzxxReyfft2rTY//PCDfP/991rLtm/fLrNmzRITExMBIABk6NCh4uvrK0lJSSIi8uzZMxk3bpyyXvNvzJgxolarlb7Kli0rAKRdu3bi6+srixYtEjs7OwkICNB6bZ6engJAypQpI76+vhIfHy937tyRpUuXip2dnQCQgQMHSlBQkFasDx8+lPnz50vhwoUFgJQuXVo8PT3F09NTKlasKI0aNZKzZ8/qPaaxsbHSsmVLASCjR48WX19fGTBggHTs2FH++ecfpd25c+d0jqOmzx07dkiLFi0EgDg7O4uvr6/ExcVJRESELFu2TImrb9++EhgYKCIie/bsEQDi6uoqlSpVksWLF4uvr6+MHTtWPvjgA7lx44ZOrCkpKcrnoGfPnuLr6yuTJk0ST09PuXjxotLu5s2bsmjRIilYsKAAkBEjRsiRI0dEROTXX3+V3r17CwApUqSILF++XO7fv68cx3bt2um8n6tWrVL6vnz5snz99ddiaWkpAGTixImiUqlERGT37t3SqVMnASDFihWTNWvWSHR0tIiIBAQEaPW5du1ave/H+2rnzp3KZ+hdYCLyClW2iIiIiAxIT0+HhYUF7O3tDT7eQET/vokTJ+KHH37A6tWrMWzYsPwOB0BmzZpNmzZh9+7dWjNDvQ/+/vtv2Nraonz58tm2u3nzJj744ANYWFhArVbDz89PGalTrlw5tGzZUudxrrS0NJ2iySYmJlrtNDVmss7+pG87DQsLC5iYmADILBh89+5dHDx4EADg4eGBunXravV1+fJlVKpUCZs3b0ZKSgqAzMfJsk4Rn3WUUdb9iIjOjFimpqYwNzfXaZ+WlobDhw8jPDxcWda5c2c4OTkpM5Xpo1arcefOHQQFBQEAGjZsiFq1amm9BrVarTWSCcicmc3MzEzvsTIUu+bY7927F926dUP//v3xzTffYO/evQAya/PUr19f7+sDMt+rJ0+eKLWUqlatCk9Pzxxj1RwzfbGam5sr22dkZODChQv4448/AABt27aFq6ur8n7ntW8RwcGDB3H37l20b98eZcqUUfo0Brt27cLHH3+MoUOHYs2aNfkdTo70//YRERERERHRK9MU5c1JxYoVlf83MzPLVY2W3NT40Tf1d25rA5mYmKBs2bIYNWqUwTaax8I0jzPpY2lpabB/Q+teZGFhkatH6l5kZmaG8uXLZ/saNAkfQ/vVJ7exlypVKtt9Z2VqaopixYq99liz9l+3bl3UrVv3tfZtYmKCDh06ZLtvenuwJhARERERERERkRFgEoiIiIiIiIiIyAgwCURERERERET0Ghw6dEiZhv3IkSMICAhAbGxsPkdF9D+sCURERERERET0GtStWxcrVqzAihUrlGW2trb5GBGRNiaBiIiIiIiIiF4DBweH/A6BKFt8HIyIiIiIiIiIyAgwCUREREREREREZASYBCIiIiIiIiIiMgJMAhEREdF7LT4+HlFRUYiKikJCQoKyPCkpKR+jypu4uDgsXboU4eHhee7j2rVr+Pbbb19jVP+umJgY+Pj4IDo6Or9DyZO0tDQcPXoUW7duze9QiIjICLEwNBEREb0VwsLCsHfvXhw/flxruZeXF7p3745SpUppLb979y5+/PFHhIWFAQBMTU0xbNgwdOzYEQDw/PlzrFq1Cps2bULp0qUBABEREWjWrBk8PDxw/vx5LF68GEDmNL5Xr15FUFCQ0v+oUaPQrl27XMW+detW7NixAwBgb2+Ppk2bomXLlihXrlwejoSuJ0+eYMKECfj999/x6NEjVKtWDa6uri/Vxx9//IEFCxZm2H3PAAAgAElEQVTgv//9L8zNzTF16lRl3ebNmxEWFobz588ry1auXAknJ6dc9f2f//wHoaGhAICKFSuicuXK6N+/P6ytrV8qxuw8fPgQn332GYKDgxETE4MuXbqgWLFiBtsfPnwYgYGBuHHjBgDAxMQEP/74o/K7kFVGRgbWrVuHsLAw5XU0atQIbm5u6N69+2t7Db6+vli3bh2OHz+OFi1aoG/fvq+tbyIiolwRIiIiojcgLS1NAIi9vX2ut0lNTZXPP/9cAAgA8fLyErVabbB9fHy8NGrUSCwtLWXt2rVa6zp06CC2trZy/PhxZVlERIR8+umnYmpqKoMGDdJqn56eLtOmTVP27enpmauYY2NjxdXVVdnu1KlTuX69uZWSkiKRkZHSoUMHASC///77S/cRHx8vkZGRYmVlJZaWljrrk5KSpHHjxsrrmDdvXq76DQkJERMTEwEg5cqVk4cPH750bLmRlJQkkZGR4u7uLgDk8uXLOW4THx8vGzZsEEdHRwEggwcPlpSUFIPtnzx58n/s3XdUVNf6N/AvVUAsYEWDsffYYsVOjF1EQWOM2L0GMSqYoP5iLxC7aGJUxqAh2AGNKGJvaAQVxaBYwF5QpPe23z9851zGKQyWizrfz1pZK+zz7H2ec+YwNzx3n71F48aNxaBBgzTGvamEhARx+PBhAUB07979nY+vLVdXVwFAeHt7l1gOr3NychIARGBgYEmnQkRULLt27RIAxLhx40o6Fa3wdTAiIiL6YBgZGWHp0qXSz6VKlYK+vvr/XDE3N4exsTEGDhyIsWPHSu1nz57F4cOHsWnTJnTu3Flqt7a2xsaNG/Htt98qjWVgYIC2bdtKP1+5cgUxMTFF5hwREaHwelb79u2L7FNcxsbGqFy5MkqVKvXGY5ibm6Ny5crQ09NTedzExAQtWrSQfg4ICNBq3MDAQAghAAA1a9bUevZQcZmYmKBy5cowMjLSuo+5uTlGjRqFESNGAAB8fHwwbdo0tfGWlpZo0KABWrVqBWNj47fO+XUWFhbcPpqIiEoUi0BERET0QTEyMsIPP/wAADhw4ADi4uLUxr548QK3b9/GrFmzFNpXrFiBvLw8pVfI5F6PL6xy5cqoXbs2UlNTsXDhwiLz9fT0RIcOHYqM+1jIr+Xq1avYunWrxti4uDhs3rz5o7h+efFl8+bNOHr0aAlnQ0REVDK4JhARERF9UPT09DB58mRs3boVKSkpCAgIgLOzs8rYrVu3onTp0mjatKlCe35+PgBg2bJlsLGxUZo9UqdOHYVZL4VZWFhgwoQJ+PHHH7Fjxw7Mnj0b9erVUxkbGhqKGzduYO7cuTh//nyR15aXl4eCggIAr4pd6mblqIsvzvj6+vowNCz+f+o1b94clpaWOHDgAFauXImhQ4fC1NRUZayPjw9at24NKyurIq+/cG4GBgYwMDBQGZeTkwPg1XNgZGSE/Px8tbEAIIRAbm6uFK/OoEGDcO7cOdy4cQMODg64efMmqlatqjFnTecDtLvHr8cXJT8/X3p+i7qmT1FwcDCePHlS0mkQEWnt8uXLJZ1CsbAIRERERB+c+vXro1mzZjh79iwWLVqEb7/9FuXLl1eK8/f3x08//aT0h3KXLl0QFBSEgwcPwt7eHjt37oS5ubl03MTERFpAWpXp06dj1apVePLkCVatWoXff/9dKSYvLw+zZ8/GrFmzUK5cOY3Xk56eDj8/P2zYsAFlypTB9evX0bVrV0ycOBFff/21UnxWVha2b9+O3377DaVLl8bNmzcxfvx4xMfHqz1HcHAw1q9fj5SUFNy5cwfm5uZYsmQJHB0dNeb2On19fSxcuBDHjh3DtWvXcODAAZVjxMfHY82aNQgJCVF5fwrbunUrduzYgYyMDFy7dg21atXCqlWr0LVrVykmOzsbCxYsQEBAAKpUqYKEhAS0bNkSJiYm2LRpk8pxExISMHXqVPz1118oV64cfvrpJ/z8889qr+vkyZPo1asXrly5AkdHR+zfvx8WFhZa35t///0XHh4eiIqKgqGhIdLS0jBw4EDMnz8fZmZmSvHR0dFYvnw5Lly4ADMzM8THxyssyP26c+fOYdmyZUhMTMSDBw+Qn5+PuXPnYvz48Vrn+LFT91kTEdG7wSIQERERfZBmzZqFfv364enTpzh//jz69OmjcPzo0aO4ffs2bG1tlfo6Oztj5cqViIuLw8GDB9GsWTNs374drVu3lmaVqJvdI+fg4IB169bh6NGjSE5OVir0JCYmIjQ0FL6+vhpnwWRnZ+O7777D3bt3ERQUBGtra4SHh6Nv374ICQnB33//je7duyv0+c9//oNr165hz549qFOnDuLi4jB16lScOXNG5TmmTJmCChUqYOvWrbC0tER0dDR69+4NJycn5Ofn45tvvtF4ra9r1aoVatWqhRs3bsDf319lEejIkSOoVKkSmjdvrnGswYMH4+uvv8auXbtQpkwZhIaGol+/fhgwYABCQkKkV8lWr14Nf39/nD59GlWqVEFcXBwmTZqk9nXA5ORk/Pjjj6hbty7c3d3x+++/Y/bs2WjQoIHawlflypWxdOlSDBgwAKGhoXB1dYWPj0+RM7IAICQkBA4ODvj1118hk8mgr68PZ2dnLF++HPfu3YOvr6/Cmk1hYWHo06cPlixZAi8vLxgbG+PYsWNqc5s/fz6Sk5OxadMmVK5cGY8ePUKvXr0wadIk5OTkwNnZWas8P3aDBg0q8neTiOhDcvPmTezbt6+k09Beya5LTURERJ+qN9kdrLCsrCzRpk0bAUB07dpV5OXlKRx3cXEREydOVNs/NDRUWFpaSrtdARADBgwQYWFhavv4+/uLBg0aCCGEuHnzpihTpozaXZRcXV3F2LFjhRD/3RkEgCgoKFCIW758uQAgtm/frtB++vRpAUCUKVNGREdHS+0BAQHCwsJCXL58WSE+JSVFVK1aVWl3sKioKNGxY0el/G7duiUAiAoVKii0m5iYqNwdTAghJk2aJCZNmiSEEOLPP/8UAETp0qXFtWvXFOIyMzNF69athZ+fnxBCiIkTJwoAwtbWViHu6NGjwsHBQek8wcHBAoBo27at1FajRg2l2MjISNGzZ0+Ftvbt20s7xz169EhqX7lypQAghg0bpnS+qVOnigkTJkg/r1+/Xvq8vLy8FGIHDRokFi1apNAWHx8vrKysROvWrUVmZqbUnp+fL7p16yYACBcXF6k9KSlJdO/eXYwYMUIpFw8PD6XdwR49eiSaN28ucnJyFGIfP34szM3NBQCRm5urNNab4u5gRETvDncHIyIiInoHSpUqhf79+wMATp06pTDb5sWLF/D29oaDg4Pa/jY2Nrh9+zb69+8v7fS0f/9+dO7cGQsXLkRmZqbG89evX18af/HixcjIyJCOPXjwALt27cL06dM1jpGUlIT169ejUqVK6NSpk8KxZs2aoU6dOkhNTcWvv/4KAMjMzMSsWbPQrVs3tGzZUiG+TJkyKhdgXrt2LRo3bozY2FiFf+Tr7yQkJCA4OFhjnqoMGjQIDRs2RHp6Ojw8PKQdwIBXs7DS09Nhb2+vcYxffvkFLVq0UMpNvjbO5cuXcePGDSk+KChI4ecmTZpg+PDhKsdesmQJqlevLv3cs2dPAK8+m6KMHTtWmh01ffp0nDp1SmP81q1b8fTpU/Tr1w8mJiZSu76+vnQPvL298eLFCwDAzp07cfr0aZWvfsnzLGzTpk2oXbs2Hj58qHCfsrKypJlrfn5+RV4XERFRUfg6GBEREX2wnJ2dsXr1aiQlJSEgIEAqpBw4cABffvmlwpoyqlhaWmL//v04d+4c5syZg+PHjyM7Oxvz5s1DVFQUtm/frnGx3lmzZmHLli24f/8+Nm/eLO1aJpPJYGNjg8aNG2s8/5UrV3D37l00btwYn332mcKxcuXKoXbt2oiJiUFAQADWrVuHqKgo3Lx5U23h43V5eXnYt28fLCwsMGfOHKXj8nEqVaqk1XiFmZubY8qUKZg0aRK2b9+OOXPmoFGjRgBe7Yg2bdo0levgyD18+BDh4eFITk5WKOy8nlvp0qUBAH369MHGjRvRunVrLF68GNOmTYO+vj5GjRqlcnx1i1Vro1SpUvDx8cGtW7cQERGB7777DqdPn0bt2rWVYgsKChAYGAgAKhcTl7fl5OTgwIEDGD16NAICAmBoaIgvvvhCq3wCAgKQnp6u8jOUr131+vNDRET0JlgEIiIiog9WpUqVMGHCBCxfvhy+vr5wdXWFtbU1PD09MXr0aGmGT1FsbGxw+PBhbNq0CTNmzEBqaip27doFFxcXdOnSRW2/evXqwcHBAf7+/ti7dy+cnZ1haGgIT09PhIWFFXnekydPajw+atQoHDlyBE+fPtUq/nVCCDx79gxOTk5YtmxZsfpq4z//+Q/mzJmDly9fwt/fH7Nnz8bJkycRExODcePGaeybkZGB5ORkjBs3DhMnTizyXL/88gvMzMzg5eUFNzc3rFmzBrNmzcKwYcNULgr+tkxNTfHXX3/hq6++wuPHj/HNN9+oXHMpPz8fZ8+eVTtOp06dULt2bcTGxr7x5yifZbR169biXQQREVEx8XUwIiIi+qA5ODhAT08P8fHxkMlkuHTpEpKTk9VuGw9A5cwTAwMDODs749KlS1JRwdPTU+O59fT0pIV8jx8/jrCwMOzduxeNGjVCgwYNtL6GhIQEPHv2TKn9TbZwV0XV9b4LBgYGGDRoEID/vu7k7+8Pe3t7jdu2v0lu5cuXx6pVq3DkyBF0794dDx8+hLOzM5ydnRVeRXuXGjduLL1mdfHiRY3PFKD+udJm6/ei3Lx5U9oanoiI6H1hEYiIiIg+aO3atcPQoUMBvNoSPigoCJ06ddI4O2TdunVITU1VeaxevXrw9fUFAI1brssNGzYMbdq0AQDMnTsXc+bMweLFizW+CiVXpUoVAMCzZ89w9+5dtXGvz0Yqao2a1506dUrttdy+fRuXLl0q1niFzZ07F2XLlsWDBw+wZMkS+Pr6Yu7cuVr3DwkJQVpamspjoaGhePjwoUKbra0tjh8/joCAAJiZmWHHjh3vdT0cW1tbLF++HACwbds2pXulp6eHypUrA3i1hbsmhT/H3NxchIaGap3HhQsX8PjxY5XHnj17VuzZRURERKqwCEREREQfPHd3dxgYGCAqKgorV67E4MGDNcbL16NRR74FdeEtvTWZNWsWAODYsWMAIC1YXRQ7OzsYGRkBACIjI5WOy9vk1yOfdXT58mVER0cXOb6hoSHs7e2RmpoKZ2dnaTHowpYuXar1dapibW0NJycnAICXlxdGjRqFatWqFdmvVq1a+PLLLxEdHY2FCxeqjFmxYoU0G0pemJOzt7fHTz/9BAC4c+fOG+evjenTp2PYsGHIyclRWlja0NAQAwcOlPJ4vaD14MEDJCYmok6dOmjevDmAV59jQUEBdu/erdXsHvnn7uTkhLy8PKXjy5Yt0/rVRyIiIk1YBCIiIqIPXqtWrVCrVi0AQI0aNWBnZ1dkn9mzZ+Ply5cqjx09ehTAf4s7Rendu7e0W9fMmTO1fv2nevXqGDlyJADlV88yMzNx8OBB1KhRAyNGjAAAVKtWDe3bt0dSUhJ69OiBW7duSfHXr1/HP//8ozCGnp4exo8fj9KlS2PPnj0YNmwYIiIiALxa0FgmkyE6OhpNmzbVKl915EU4IyMj/Pjjj1r1MTY2xvfffw8AWLVqFVxcXHDz5k0AQGpqKlavXg0DAwNYWVlJMc+fP1cYo1y5cgBeFaLeJz09Paxbtw7t2rVTeXzKlCkwMzNDdHQ09u7dq3Ds1KlTePnyJX744QeYm5sD+G9Rz8vLS2nWlI+Pj9L4Tk5OsLCwwOnTp9G3b1+Fz3n37t04duyY2tyIiIiKg0UgIiIi+ijICza9evWS/tjW5Pz58+jbty9iYmKQnZ0N4NVuWidPnsTChQuxZs0a9O3bV4rPy8vDmTNn8OLFC/z7778KY5mamqJfv36oWLGi0qtb8n5yr7+2s27dOvTr1w/379/H5MmTkZOTA+DVH/e3bt2CTCaDpaUlgFeFk40bN8LKygqPHz9G69atMXHiRMyePRsjRoyQXoHz8fHBli1bALzaPUq+09bu3bthY2MDKysrVKtWDV5eXtixY4eUS1paGgoKCiCEUJrRkpaWhvDwcFy8eFHpWI0aNdCmTRu0bdtWqSCTmpqKixcvAgBiYmIUZtKMHz8etra2yM/Px/r16/Hll1/CysoKtWvXxt69exUWQk5ISEDv3r0RGxsLAMjKysL58+fRokULaaZMTk4OsrKypPO+noe8n/wev35d6l4RBICKFSvC09NT5Wt+TZs2xa5du2BmZgZ3d3dcvXoVAJCUlITly5dj0KBBCotfDxgwAC4uLgBeFf/atWuH2bNnY9iwYYiKigIAxMbGYt68eXjw4AE6duwoxR85cgRdu3aFlZUVrKysMGPGDOzatUvrNZiIiIg0MZg/f/78kk6CiIiIPj0FBQVYtGgRTE1NMWPGjLcer06dOti3bx82btyIMmXKaIw9ffo0FixYgNzcXGzZsgW///47duzYgT/++AOnTp3ClClT4OLiAj09PQDAiRMnEBISguvXr6NOnTqIiYnBw4cPUbNmTWkr8qZNm6JWrVoK29IfP34chw4dkmbbNG3aFHfu3MGzZ89Qvnx5WFhYwMjICHZ2dkhPT8fBgwexa9cubN++HUlJSdi8eTM6dOigkHuVKlXQo0cPREZGIiYmBpcuXUJOTg7Wr1+P6OhoGBkZYeTIkbC1tZVmyvTu3Ru1atXC7du38fTpU6SlpaFz587Ys2cPqlevDgAIDw+Hn58fKlasiMaNGyM2NhampqaoXr06/vrrLxw6dAh5eXmwsLBAbGwsHj58iGbNmkl5NWzYED179lQoAsn7FRQUoGnTprC2tkZMTAzu3r2Lxo0bS6+rVa1aFdevX0d8fDzS0tIwbNgw+Pj4oGzZstJYR44cQfXq1fHTTz/hyJEj2LBhA8zMzLBz505UqFABsbGx8PPzQ1ZWFpo2bYqnT58iPz8fdevWxaFDh3Do0CFYW1ujQoUKePbsGapUqYLg4GAcOnQI2dnZqFixImJiYnD//n3pta3X1apVCy1atEBSUhJsbGwUjtWvXx/NmjXDs2fPsHTpUgQHB2P//v347rvvsGDBAoUt6w0MDNCrVy8UFBTg8uXLuHv3LiIiItCvXz9MnjwZmzdvxtixY9GnTx/pHtva2kqfy6NHj5CWloZWrVph586dxVqEXBshISH4559/YGdnh1atWr3Tsd9UYGAgIiMjMWzYMDRs2LCk0yEi0tr169exe/dutGrVSquZyiVNT7yv7RaIiIhIp+Xl5cHIyAgWFhZISEh4J2NmZmYq/LGtTm5urrQWT35+vjR7BHi1DtC72pWruLKzs6U1X0xNTTW+VpaXlyfNYJLnnJWVBX19fbXrw+Tk5CA3NxcAYGJi8kHNHil87WZmZlIBTk7+mWVkZEi7gRV1j96Xws/P6woKCpCZmQng1XpBRa23lJmZiYKCAujr68PU1FR6HkuXLq323PKZTO/rWXVzc8Pq1avh7e2N8ePHv/Px38TIkSPh6+uLwMBA2Nvbl3Q6RERa2717N4YOHYpx48ZBJpOVdDpFKpn/AiIiIiJ6A9oUgAAo/AFvYGCg9g/u/7VSpUppvUizoaGhUgHAxMREYx9jY+MPdgHhoq5d/plps+va+6auAAQA+vr6xXqeXn9mi3oejYyMNJ6fiIjobXBNICIiIiIiIiIiHcAiEBERERERERGRDmARiIiIiIiIiIhIB7AIRERERERE9AmT7xr4scrOzsaDBw9KOg2dEhcXh5SUlJJO443l5ubi3r174D5YylgEIiIiIiIiIiLSAdwdjIiIiIiIPjohISFITExUarewsECvXr2U2o8dO4YXL14otHXp0gXVqlWTft6/fz/Wrl0r/TxixAj07dsXYWFhaNy4MWrVqgUAOHXqFJ4+faowlo2NDWrUqKFV7jExMQgPD1do69atG6pWrapVf20dP34ce/fuxZYtW/Dbb7/ByclJbez169cRGRmp0NarVy9YWFiojD906BCSkpKU2ocOHQp9/Xcz1yA5ORnBwcFYuXIlbt26heTk5GL1f/HiBY4dO6YxpmPHjrC2tn6bNLVy/vx53L9/X6Htyy+/RL169bTq//DhQ4SGhiq0dejQAZ9//vk7yxEAQkNDsW/fPmzevBlz5szBtGnT1MbeuXMHFy9eVGjT9ByfOHECcXFxSu329vZF7n6prczMTOzbtw+bNm3CiRMnkJOTwx0XX8MiEBERERERfXQ6d+4MPz8/uLi4IDc3FwCwZs0a2NnZqYy3sbHBnDlzsHLlSpQuXRo7duxA5cqVAQCJiYno2bMnHj9+jEOHDqF27dq4d+8ePDw8MH36dCQnJ+Py5cvSWG3btsXLly9hZ2eHiIgIAICrqytWrVpVZN5ZWVkYMmQIIiIioK+vj6VLl+L7779/Z38Ey6WkpOD69euIiIhAampqkfF169aFEAKenp4IDAxERkYGRo4cia1bt6qM79KlCx49eoS+ffvixYsX2Lt3L9q0aQM9Pb13dg1RUVGIi4vDxYsXUbZs2WL3t7S0RP/+/bFlyxa4uroiLy8PgwYNQteuXQEAO3bswOjRo9GuXTssXboU7du3f2e5v65ly5aoW7cuBg8ejLNnzwKAxvtbWG5uLkaNGoUTJ04AAH7++WfMnDkTpUqVeqc55uTkICIiApGRkUhISCgy/vPPP4eenh48PDywZ88epKSkYMCAAdi7d6/KQmD79u3x/Plz2NnZ4c6dO/Dz80OPHj1gbGz8zq4hOjoacXFxuHDhwjsb85MjiIiIiN6D3NxcAUBYWFiUdCpEVIirq6sAILy9vUs6FYmTk5MAIAIDA4vdd+rUqQKAACBOnjypMTYsLEwAEF5eXgrtM2bMEJUqVRKXL19W6hMQECAAiMjISKVjMplMOnfjxo1FampqkflGRkZKfcqVK1dk/NtycXERAMSff/6pdZ/ly5cLAEJPT0+sXr1aFBQUqI1dtGiRsLe3fxepqgVAlC1b9q3GsLKyEgDEmjVrpLbc3FwxceJEAUBYWlqq/Px/+eWXtzrv6wIDA6XPv0aNGuLFixdF9nn8+LHUB4DIzc19pzm9bu7cuQKAWL16tdZ9/vjjDym/uXPnanxm1q9fLzp37vwuUlWrQoUKAoDIycl5r+cRQohdu3YJAGLcuHHv/VzvAtcEIiIiIiKij5aDg4P076dPn9YYGxcXh5o1a2LKlClS29OnT+Hj44OaNWuiZcuWSn0KzxxRxdzcHKamprh+/Tr27dtXZL6enp7SDKQPlTw/IQRcXV3xzz//lHBG74ehoSE2bNiAZs2aISEhAUOGDFGYNXXlyhWtZuoUl4mJCcqWLYsHDx5g27ZtRcZ7eHh8NM8MACxcuBAHDhwowWxIExaBiIiIiIjoo9WhQwf07NkTALB3717k5+erjfX09FQoGgGv1p15/vw5nj17hkePHqnsN3jwYLVjNmnSRHoFbcmSJdKraapER0fj1KlTmDBhgtqYD0Xjxo3RrFkzAMCQIUMQExNTwhm9PwMGDADwaq2m6OhoAK+ei8mTJyMrK+udn++zzz7DiBEjALx6JnNyctTG3r9/H3v37lUoXH6oqlWrhi5dugB49arbv//+W8IZkSosAhERERER0UfL0NAQzs7OAIDLly/j8OHDKuMePXqEGzduYNKkSQrtpUuXhoWFBR4+fIivv/4aT548Uerbs2dPmJubq81h1qxZAIAbN25onDmyatUqODg4FLmYb0JCApYuXQpHR0c4OjrC3d0d9+7dU4q7desWfvjhBzg6OmLIkCEIDg7Gb7/9pnHsS5cuYcSIEXB0dNQ4c8rExAS7du2ClZUVHj9+jNmzZ2ssVqhz8eJFDB8+HI6OjnB2dlb7+chFRERg1KhRcHR0xPjx41Uu/i0nhMCWLVuk+zRq1Chpjaa3ERkZib59+yI0NBQZGRkIDg5GcHAwoqKiALwqFm3cuBH+/v54/Pgx5syZg6FDhxZrHRp3d3cYGBjg2bNnWL16tdq4DRs2oGvXrmjUqJHG8dLS0uDl5SXdi6lTp+L27dtKcXfv3sVPP/0kxe3btw9r1qzROPa1a9cwbtw4ODo6apzhY2RkBF9fX9SuXRuJiYmYOXMm0tLSNI6tytWrVzFmzBg4OjpizJgxCA4O1ljcjYqKwn/+8x84OjrCyckJz58/1zi+v7+/dP3Dhg1DWFhYsXP8mLEIREREREREH7VevXpJOzx5enqqjFm2bBmaNWuG2rVrK7RbW1tLu2ZFR0ejZ8+e+PvvvxViGjZsKO0MpsoXX3yB/v37AwACAwNRUFCgFPP48WP8+eefUsFInZMnT8Ld3R3169eHl5cXBg0ahLVr18LW1hY3b96U4m7evIlu3brB2toaXl5emDhxIpYsWYJ58+apHTswMBD29vY4ffo0goKC0KNHD41FqwYNGmDr1q0wMDDAjh07MHHiRI25F5aVlYXhw4fD1dUVTk5O8PLywo0bN9C7d2/MmDEDeXl5CvHZ2dkYN24cnJ2d4ejoCC8vL1haWuKLL75QOX5sbCzGjx+PrKwseHl54ccff8Thw4dhY2ODgwcPap0n8KowBgBVqlSBlZUVQkJC0LlzZymv8PBwhIeHIzY2Fk5OTujevTu+//57HD16FPb29vD29sbu3buxcOFCrc/5+eefY/jw4QCAffv2Kd0PAMjIyICXlxf+7//+T+NYYWFhmDp1KipXrgwvLy+MHj0aMpkMnTt3ViiKPXz4ELa2tjA2NoaXlxemTp2KX3/9Fa6urmrHPnnyJPr27YsjR47g4MGDGDhwoMaiUY0aNbBz504YGxvjwIED0jVqIycnB87OzpgwYQIGDhwILy8vJHDk0sQAACAASURBVCUloW/fvpg0aZJSETI3Nxdubm747rvv8PXXX8PLywsNGzZEq1atVC5s/fTpU3z//feIjY2Fl5cXZs+ejfDwcHTp0gV+fn5a5/nRK+lFiYiIiOjTxIWhiT5Mn9rC0HIbNmwQAESZMmXEnTt3FI6lpKSIhg0bikOHDqns++jRI1GnTh1pYVtjY2MxYcIEcePGDY3nlMlkol27dkIIITZv3iz1V7XA8IYNG0SXLl1Ebm6u2LRpk8qFoRMTE0W9evXEo0ePFNp37twpDAwMhLW1tdQ2adIkUbNmTYW469evi88//1yhTb4w9ODBg8WCBQtEXFycEEIIT09PAUD07t1bKdetW7eKVq1aST8vW7ZMABBmZmZi7969CrHqFoZ2c3MTJiYmCvciKSlJdO/eXQAQ7u7uCvF+fn7C1NRUPH36VKF9/vz5KheGtrOzE3v27FFoi4iIEFWqVBGlS5cW169fVzimamFoIYT4559/hLGxsVJO8fHxAoCoVauW0rXJ713p0qVFSEiISE5OFiEhIeLx48dKsa8LDAwUdevWFUIIsXfvXumZOXLkiFLs7t27RYsWLURGRobw9/dXuTB0RkaGaNGihbh27ZpC3wMHDghTU1NRuXJlacHyOXPmiDJlyijEPXjwQFhaWiq0yReGHjBggJg1a5b0PMqf2w4dOigtuBwUFKTw7Ml/HwwNDZUWJVe3MPSSJUuEvr6+OHXqlNSWnp4uBg4cqHLh5UOHDgkAIjY2VqF93bp10r0qnOeYMWPExo0bFWLv3LkjrK2thbGxsbhw4YJSTtrgwtBERERERET/Y71794aZmRlSU1OxaNEihWMBAQF49uwZbG1tVfatXr06Tpw4gTFjxgB4NSPB29sbLVq0wLx587TaLnvkyJFo0qQJAOXZSKmpqfjll1+wcOFCGBoaqh1j165d6NixI6pXr67QPnToUJQqVQqPHj2SXl158uQJEhIScOvWLSmuUaNGsLe3Vzl2zZo1MXv2bGkB3+nTp8PY2FjadlyTSZMmoWPHjsjIyICjoyPOnDmjMf7Ro0dYu3YtatWqpbDYdrly5TBq1CgAwG+//YYbN24AABITEzF69Gi4ubmhatWqCmOpmgUTERGBe/fuKV1rixYt0KxZM6Snp6t97ezkyZP4999/8e+//2Lbtm0YPXo0hBCws7PTOItKlZ9++gk9e/ZE2bJl0bNnT1SrVq1Y/fv37y/NOHr9mcnIyMCCBQswf/58mJqaqh3j4MGDsLa2lp49ub59+6JixYp4/vy5tCX9kydPkJWVpTA7qPBMuNdVqFABixYtkp7HMWPGoGrVqjh//jyys7M1Xtvo0aPRs2dP5OXlYcyYMUUump6UlAQPDw9UrFhRWlcIAMzMzDB27Fjo6elhy5YtuHjxIgAgJSUFTk5OcHZ2Rs2aNRXGmjhxIiwtLRXabt26hTNnzmDs2LEK7XXq1EHHjh2Rk5ODoKAgjTl+KlgEIiIiIiKij17h12t27NgBIYR0LCAgAD/++COMjIzU9re2toa3tzf27NmDL7/8EsCrV4EWLlyIPn364OXLlxrPb2hoKBUsgoKCcO3aNenYH3/8gTp16mjcZUye58GDB9GhQwelf7KzsyGEwPXr1wEA9evXR0pKCgYOHIgrV65I16vu1aEWLVpAX/+/f/4ZGRlBT09PYz5ypUuXxt9//402bdogLy8Pbm5uiI+PVxvv7++PvLw8pUW4gf/u5paeno6QkBDpunNzczFs2DCleFWfWVBQEG7fvo1OnTop3afw8HAAkNbveV3NmjXh5+cHLy8vnDhxAt9++y0uXLiAffv2wczMrOibUURuxWFgYICff/4ZAHDmzBmpWAO8uieGhoYYOHCgxjECAgIQGhoKGxsbpXshXxtHfi/q16+P3NxcDB06FKdOnSrymWnevDkMDAyknw0NDRWeIU309fWxe/du9OjRA/n5+Zg1axYeP36sNj4oKAjp6ekqnxk7OzsYGxsjPz9fKiYdP34cL168wDfffKP0HKt6to8ePYr79++jc+fOSvfp6NGjANQ/M58a9WVoIiIiIiKij4i7uzt8fHyQnZ2N1atXw83NDZcvX8apU6cwf/78IvsbGBjAwcEBDg4O2LhxIxYsWICnT58iLCwMkydPxvbt2zX2t7OzQ5MmTRAVFQUvLy/IZDJkZGRgzZo1kMlkRZ7/7NmzGD58ODZt2lRkrIuLC0JDQxEaGoqWLVti4MCBWLx4MZo2bVpk3zdhaWkJDw8PDB48GBcvXkSPHj1w5coVlbGbN29WO06pUqXQpk0bhIeH4+zZs5g2bRr++OOPYuVy9uxZ1K5dG+fPny9WP+BVEWjq1KnF7ve+fPXVV2jbti3CwsKwcuVKdOrUCcCrmUHazEw6e/YsunXrBn9//yJjR48ejWPHjuHw4cPo1q0bevbsiUWLFqFt27ZvfR2qlC1bFh4eHrh8+TJu3LiBLl26SEXM12l6ZgCgU6dOOHbsmFQoe5NnpkKFCm/0zHxqOBOIiIiIiIg+CfXq1ZO2NV+/fj2SkpIQFBQEW1tbhdeSCsvPz1e5KO/EiRNx4sQJafv5gIAAhYWZVTE3N0evXr0AvJoNk5OTg8uXL0MIIc0uKoq2O3DVqFEDx48fx/Lly1GuXDns27cPbdu2lV5pex969OgBf39/6OnpITIyEosXL1a5CLacqmsxMjJSWpz7Taj73D42hWf7HDt2DM+fP0dUVBQSExOlglBRcnNzFWa+qVO5cmUcPHgQ69atQ9WqVXH48GF07twZgwYNeqtr0KRNmzb4+++/YWZmhtjYWPz8888ad/pS9/w3aNDgrXMpKChAbm7uW4/zsWMRiIiIiIiIPhny3bdiYmIQHh6OAwcOqHzFRO727dvYvXu3ymMNGjTAhg0bYG1tjZycHLUzXwqbNm0aTE1NkZSUBE9PT3h6emLSpEkoX768Vvn7+vqqPVZQUKDwSo2xsTF+/PFH3Lt3D/Pnz0dmZia2bduGgIAArc71Jr7++muMGTMGQgjMmTMH586dUxur6VoAKK199OjRI63ziI6OltaHUaU4Y5W08ePHo3LlykhNTcXixYuxdOlSODk5ab3G0P79+5GUlKT2eOF7YWBggMmTJyMmJgZLly5Ffn4+9u7diz///POtr0Odjh07wsXFBQCwcuVKjWvvvM9n5vnz52rXiiruWB8zFoGIiIiIiOiTMXDgQLRu3RoAMGPGDERGRqJv374a+wQEBKidSVGrVi307t1b6/NbW1vj+++/BwB4eHggMjISkydP1qpvy5YtUVBQgBkzZqg87u3tjdDQUAD/3dYcAMqXL4+5c+diyZIlyMnJgY+Pj9b5vonff/8d3333HQBI6/oU9u233wJ4NVsnMzNT4VhBQQEyMjKgr68vLewsn6WlzStNheN/+uknlccvXryIdevWaTXWh6By5cqYMmUKgFf3NigoSCpmFkV+L9zd3VUe37lzJw4cOABA8ZkxMzODu7s7fv31VwDAhg0b3jh/bXh4eEi/B5qeGSEE0tPTlY6npaUBAAYPHgzgv9et6Xe3MHn8vHnzkJGRoXQ8JiYGCxcu1OZSPnosAhERERER0SfD2NgYI0eOBPBqFylnZ2dYWFho7LNnzx7cvn1b7fHY2FiYmJgo7FqkiaurKywtLZGTkwN3d3etFxyWz1jatGkTtmzZonAsKSkJq1atwtChQwG8+qO98GLVenp6Wr8+9LaMjY2xYMECWFtbqzwu/0P9+fPnSmu9ZGRkYP/+/ejQoQO6d++uEO/j46N03bGxsUrj29nZwdDQEGfPnsXixYuRnJyscHzhwoXSmB8LFxcXWFlZIS8vD1OmTNF65pj8mdm+fTvWrVunUBDJyMiAp6cnvvnmGwDAtm3bcO/ePYX+8t3J3jf5wunqXuvq378/jIyMkJubixUrVigd37lzJxo2bCh9rv3794exsTECAgKwdu1ahdjHjx8r7V4m3z3w0qVLWLBgAV68eKFwfPHixWp31vvUsAhERERERESflFGjRqFs2bIwMDCAnZ2dVn169OihcnegkJAQnDt3Dlu2bIGVlZXCscTERGRkZCArK0uh3draGm3btoWpqSn69OmjNGZiYiKAVzNlUlJSpPYffvgBX331FZKSkjBmzBg0adIEbm5ucHNzQ8OGDRV2cYqPj8fo0aOlGRLycQ0MDDBp0iStrlmdxMREZGZmKs3iKaxOnTr466+/VO6QVb9+ffz2228wMjKCl5eXwitsXl5eKF26NObOnSu12draonfv3sjPz8f48ePh6uqKqKgonD17VlqvJj8/H1FRUXj+/DlsbGyk2VJz5sxBrVq1pPvUqFEj1K1bV2ENptTUVGktGPm9L4qBgQHKlCmDe/fu4c8//8Tp06exZMkSpftUXImJicjJyVGa7VK+fHnY2trC2NgYAwYMUNlP1b9/9913GDJkCNLT0zFlyhTUq1dPuhcNGjTA2LFjUa5cOQBAcnIynJycFIpm8rHkM5HelPy6Cj+Pr7OyssKuXbtgYmKidKxatWrw8fGBiYkJvL29FYqyv//+O/T09LBgwQKprU2bNhgyZAgAwM3NDWPHjkVUVBQuXrwIe3t76dm9fv06nj59ii+++AKLFy8GACxbtgw1a9bEtGnT4ObmJs0S+vrrr9/qHnw0BBEREdF7kJubKwAICwuLkk6FiApxdXUVAIS3t3dJpyJxcnISAERgYOA7G3P+/Pmic+fORcbduHFD1K1bV9jZ2YmqVasKBwcHIZPJhEwmExMmTBDm5uZi586dCn2Cg4PF8uXLhbm5uQAghg8fLmQymUhNTZViTp06JUaNGqXQ7+DBg2LZsmVSPwDC1tZWyGQy8ejRIyGEEE+fPhX9+vWTjsv/2bp1q8JY9vb2AoBo1KiR2LBhg9i0aZOoWLGi8PDwEEIIkZycLGQymahWrZoAIDp16iR8fX2FEEKEhYWJmTNnCj09PaGnpydmzpwpwsLCREhIiFi5cqUoU6aMACC++eYbIZPJRHJystr7t27dOmFvb6/y2Nq1awUA8cUXXwiZTCY8PDxE69atxf79+5ViU1JSRK9evRSuuXz58iI0NFQAEEZGRmLs2LHixo0bQggh0tPTxYwZM5Tuk7Ozs8jLyxNCCPHs2TMhk8lE7969peNmZmbC09NTZQ6vc3d3l/pZWlqKc+fOCZlMJpo2bSoAiFKlSomFCxeK3NzcIsc6ceKEWLdunShfvrwAIOzs7IRMJhPx8fFSzKVLl4SDg4NCv+PHj4u1a9dK/QCItm3bCplMJu7cuSOEECI+Pl58++23Svdi1apVCmONGzdOABD16tUTa9asETKZTNSoUUNMnz5dCCFEdna2kMlkon79+gKAaNGihZDJZEIIIa5evSrmzZsnjIyMBAAxZcoUcebMGXHq1Cnx22+/CUtLSwFA9OvXT8hkMvH8+XO192Lbtm1qfzf9/PwEAFG7dm0hk8nEqlWrRMuWLcX27duVYjMyMsTQoUMVrtnExEQcPnxYVKhQQQAQY8aMEeHh4dL1zZs3TxgbGyv0GT58uMjMzCzqI1Rr165dAoAYN27cG4/xv6QnhBYv0BEREREVU15eHoyMjGBhYYGEhISSToeI/j83NzesXr0a3t7eGD9+fEmnAwAYOXIkfH19ERgY+M5eyXjy5AmePHkirQ+kTlJSErKyslClShUAwIkTJ6RXkMqXLy+9bqOnpyf10fQnlDxOHqNtv9f7Xrt2DWFhYQCAPn36oFq1agpjRUdHo0GDBggODsaTJ08AAF26dEG9evWgp6en9lyajmmT2+uEELh58yYaNmyo8hgA/PXXX8jOzkalSpVgZ2encazjx4/j7t27AAAnJyeUKlUKMpkMDg4OSq/1CSHw/Plz7N+/HwDQqlUrtGzZUukzKO41FR5/27ZtyMzMxOjRo2FgYPBWY2nTVwjxxs/MrVu3cObMGQBA9+7dUbt2bZXPTOF73K5dOzRt2vSDe2Z2796NlJQUlC1bFkOGDNE4VmhoKKKjowEAQ4cORdmyZeHr64sePXqgatWqSn2TkpKwZ88eAECTJk3Qvn37Ij8/TXbv3o2hQ4di3LhxkMlkbzzO/wqLQERERPResAhE9GHSlSIQEdH/wsdWBOKaQEREREREREREOoBFICIiIiIiIiIiHcAiEBERERERERGRDmARiIiIiIiIiIhIB7AIRERERERERESkA1gEIiIiIiIiIiLSASwCERERERERERHpABaBiIiIiIiIiIh0AItAREREREREREQ6gEUgIiIiIiIiIiIdwCIQEREREREREZEOYBGIiIiIiIiIiEgHGJZ0AkRERPRpy8vLQ1hYWEmnQUT/37Nnz0o6BbVu377N7wsi+qjcuXOnpFMoFhaBiIiI6L1KTU1Fu3btSjoNIvoIuLu7l3QKRESfNBaBiIiI6L3Q09PDV199VdJp0Bu6d+8eYmJiUKdOHdSsWbOk06H3oFq1aiWdgqRx48b8vqB3SgiB48ePw9DQEF27di3pdEgHNGrUqKRT0IqeEEKUdBJERERE9GHx8PDAzz//DE9PT8ycObOk0yEiKpb8/HwYGhqifPnySExMLOl0iD4YXBiaiIiIiIiIiEgHsAhERERERERERKQDWAQiIiIiIiIiItIBLAIREREREREREekAFoGIiIiIiIiIiHQAi0BERERERERERDqARSAiIiIiIiIiIh3AIhARERERERERkQ5gEYiIiIiIiIiISAewCEREREREREREpANYBCIiIiIiIiIi0gEsAhERERERERER6QAWgYiIiIiIiIiIdACLQEREREREREREOoBFICIiIiIiIiIiHcAiEBERERERERGRDmARiIiIiIiIiIhIB7AIRERERERERESkA1gEIiIiIiIiIiLSASwCERERERERERHpABaBiIiIiIiIiIh0AItAREREREREREQ6gEUgIiIiIiIiIiIdwCIQEREREREREZEOYBGIiIiIiIiIiEgHsAhERERERERERKQDWAQiIiIiIiIiItIBLAIREREREREREekAFoGIiIiIiIiIiHQAi0BERERERERERDqARSAiIiIiIiIiIh3AIhARERERERERkQ5gEYiIiIiIiIiISAewCEREREREREREpANYBCIiIiIiIiIi0gEsAhERERERERER6QAWgYiIiIiIiIiIdIBhSSdAREREn6b8/Hy4uLiUdBr0hi5fvgwACAwMxL1790o4G3ofRowYgU6dOpV0GgAAHx8fXLhwoaTToE+IEAIAkJGRge+//76EsyFd0LFjRzg5OZV0GkXSE/LfDiIiIqJ3KC8vD0ZGRiWdBhGp4e3tjfHjx5d0GgCAkSNHwtfXt6TTICJ6Y+PGjYNMJivpNIrEmUBERET0XpUuXRre3t4lnQYR/X++vr4IDg4u6TRUcnNzQ+vWrUs6DSIirf3zzz9Yu3ZtSaehNRaBiIiI6L0yNjbGt99+W9JpENH/Fx4e/sEWgTp37gx7e/uSToOISGuGhoYfVRGIC0MTEREREREREekAFoGIiIiIiIiIiHQAi0BERERERERERDqARSAiIiIiIiIiIh3AIhARERERERERkQ5gEYiIiIiIiIiISAewCEREREREREREpANYBCIiIiIiIiIi0gEsAhERERERERER6QAWgYiIiIiIiIiIdACLQEREREREREREOoBFICIiIiIiIiIiHcAiEBERERERERGRDmARiIiIiIiIiIhIB7AIRERERERERESkA1gEIiIiIiIiIiLSASwCERERERERERHpABaBiIiIiIiIiIh0AItAREREREREREQ6gEUgIiIiIiIiIiIdwCIQEREREREREZEOYBGIiIiIiIiIiEgHsAhERERERERERKQDWAQiIiIiIiIiItIBLAIREREREREREekAFoGIiIiIiIiIiHQAi0BERERERERERDqARSAiIiIiIiIiIh3AIhARERERERERkQ5gEYiIiIiIiIiISAewCEREREREREREpANYBCIiIiIiIiIi0gEsAhERERERERER6QAWgYiIiIiIiIiIdACLQEREREREREREOoBFICIiIiIiIiIiHcAiEBERERERERGRDmARiIiIiIiIiIhIB7AIRERERERERESkA1gEIiIiIiIiIiLSASwCERERERERERHpABaBiIiISGfFx8fj7t27uHv3LhITE6X21NRUjf3kfe7evYu8vDwAQE5ODrKyst5rvqpkZWVh+fLluHDhwv/83P9rL1++xNq1a3Hx4sWSTuWNpKWlwc/PD/v37y/pVOg9efjwofTdIP8+KCgoQHp6uto+GRkZUp/Hjx9L7UV9D70v9+7dw+zZsxW+Ez9VMTExmD179lvd66dPnyr8b0Jubq50rKQ+QyJNDEs6ASIiIqKi3LlzB4GBgTh06JBC++DBgzF48GBYWVkptN+7dw8rV67E9evXAQAGBgaYNm0a+vbtCwBISUnB6tWr4e/vj6ZNmwIAIiMj0a5dO7Ru3Ro3b97EmjVrlPKIiIjA8uXLERMTgzp16uDp06fIycnBwIEDcfv2bYwZMwY2Njbv4xaoFR4eDnd3d/Tr1w9BQUHF6puZmQk/Pz9cvXpVuldGRkZK91mdlJQUODs749mzZwAAGxsbNGrUCMOHDy/eRRQhIyMDzs7OOHHiBB4+fAhvb2+0bt1abfyePXsQFBSEhw8fAgAsLCywYcMGVKxYUSk2ISEBAQEB+Oeff3D37l0AwKBBg9CkSRN07979nV3DzJkzsX//fly/fh0uLi4YMGDAOxubiu/EiRP4+++/ERkZKbVVqFAB/fr1w6hRo5Tiz549i9WrVyMpKQkAYG1tjenTp+OLL74AAERHR2PFihW4cuUK6tevj+TkZMTFxaF///7IyMhAmzZtMGTIEKVxAwICsHDhQtSsWRNmZmaIjo6GpaUlxo4dCx8fHxw5cuQ93QH1NmzYgKVLl6JatWqYNGlSsfreunULp0+fRnBwsHSvOnfujPnz52vV/9q1a5g2bZr0s6OjI5o0aYIuXboUKw9t8nR2dsb58+eRmZkJFxcXlClTplhjnD59GsuWLUNoaCh69uwJAwMDxMXFITMzEw0bNkTbtm0RFRWFdevWvdPcid6aICIiInoPcnNzBQBhYWHxTsbLz88X//d//ycACACib9++oqCgQG18dna26NixozA1NRU7d+5UONatWzdhYWEhLl68KLXFx8cLNzc3YWBgIEaPHq00XkREhDAzMxN9+vQROTk5Qggh8vLyxJkzZ4SNjY0AIEJDQ1XmEh8f/yaXrNUYeXl5YsuWLSI6OvqNx37x4oWoW7eudG+3bdumVb8tW7ZIfbp37y5yc3PfOAdN8vPzRXp6upg8ebIAILy9vYvsk5WVJdasWSPMzc0FADFnzhyN8ffv3xeVKlUS8+bN0/hcvan09HTh7e0tAAgXF5d3Pn5xuLq6an0f/1ecnJwEABEYGPg/O2dSUpLo1KmT9Az/+uuvGuOfP38uAIhatWqJ27dvS+2xsbGicuXKwsbGRiQkJAghXj2zly9fFn379hUAxK5du5TGW7lypTA0NBQrV64U+fn5QohX31t+fn7CwsJC43fnu/hOSUhIkM5b2IsXL4SXl5fIysp647FDQ0Ol+2pgYCBevnypVb8hQ4ZI/ZYuXfpefheFECInJ0ekp6dL33tPnjzRum9qaqro37+/sLCwEFOnThXp6elSnnl5eSI+Pl506dJFABAjRox4L/mTdl6+fPnenqHCdu3aJQCIcePGvfdzvQt8HYyIiIg+Cvr6+pg7dy709PSknzUxNjaGgYEBBg8ejKFDh0rtx44dw5kzZyCTyfDll19K7RUqVMDKlSsxcuRIpbGEEFixYgUqVaqEnTt3wsjICMCrGUadOnXC/v371f6/yCEhIfD19S329RZWUFCgcnaCPIdRo0ahQYMGbzx+xYoVUb16delnf39/CCGK7Ofv7y/9e9OmTWFo+H4mmevr68PMzEy679ooVaoUpk6divbt2wMAFi1ahGXLlqmNr1GjBiwsLNCsWTPpGXuXzMzMUKpUqXc+Lr25cuXKwc3NTfq5qO8UExMTAMCSJUtQt25dqf33339HWloa9u/fDwsLC2msli1bYufOnahTp47SWHl5efDw8MDw4cPh5uYmndvY2BjDhw/HH3/8oTaPS5cuqZypWBxCCIwfPx45OTlKxypWrIgpU6a81fPavHlz6d/z8/MRGBhYZJ+4uDicPXtW+vl9/S4Cr2Y8mpmZFfmZvy43NxfDhg1DUFAQli9fjjVr1sDMzEzK08DAABUqVMDevXthY2ODW7duIT8//31cAhVBCIFx48ZJr2zTf7EIRERERB+NUqVKSX+0BQUFIT4+Xm3ss2fPEB0djVmzZim0r169Gvn5+ahUqZLKfu7u7kptT548gZ+fH0xNTVUWeywtLTFhwgSl9uzsbMyZMwcFBQUar6soAQEBOHfu3FuNoQ35Kxf+/v5Fnu/SpUu4evUq6tev/97zeltVqlQBAKxYsQIRERElnA19SAYNGoSGDRsCAHx8fDTGnjp1Ck2aNFF6lW/58uUwMDCApaWlUh9zc3OVr1T5+Pjg5cuXar+H7O3tVRZ2hRCYPXs2srOzNeZalNDQUAQEBLzVGNqQf6csWLAAycnJGmO3bNmCevXqvfec3sbixYtx4MABNGnSBOPGjVMbZ2FhgZ07d+LmzZssQpSQM2fOYO/evSWdxgeJRSAiIiL6qDg7O6N8+fIAoHGGzebNm1GpUiW1M2TmzZuHjIwMpfbatWujVatWKvvExMRgw4YNKmfJODo6Kvyck5ODCRMmIDw8XG2OwKvFjuPj4xEfH69y8djz589r/GMDeLW2T0pKitrjKSkp0jk0zfCxs7NDy5YtAQCenp5q4woKCvDLL79g7NixUoFFk6SkJOn8qmYeqGGeGgAAIABJREFUAK9mC8hj0tLSAECrhbYTEhIQHx+vsdA2evRo1KxZEy9evMDAgQPf+A/onJwcKcfMzMwi43Nzc4sVn5aWJsWrejbp/ZAXiiMjI3H16lW1cZ6enujVqxfMzc2VjqWlpWHRokUqZ328/t1QmK+vr9pzvt4vLy8P7u7uGtfsKvzMxcfHKyxSLPfvv/8qzI5UJTk5WePvX+FnVdNMl59//hlGRkZ4+PAh/Pz81MbJF7ifPXu2xrzkCn+nqctTCCHFyL8fi/pOycvLQ3x8vMqCVVxcHDZv3gwASv/ngiqfffYZnJyc1B5PTk5GfHw8Xr58qXGc1NRUhe8Deb/Xi0vy3OVrMamSm5sr/e9M4e9cVc9JYdp+3hkZGQqLYcv7FfWdm56ervT9ryqHwsfkz4Cq3K9du4ZvvvlG4zl1Wsm9iUZERESfsne9JlBh3bp1EwBE1apVxYsXL1TGtGrVSmzZskWpfdWqVdKaE1999ZVITk5Wirl7967CzxkZGaJVq1ZSP1VrqSQnJ0vrdNy4cUN06NBBim/atKmwt7cX9vb24sGDB0IIIaKjo8WkSZNEs2bNRL9+/cRnn30m6tatK3bs2CGNOXfuXFG+fHkBQBgZGUljrFixQgghxL1794S3t7do3Lix6Nevn1JO8fHxYuTIkaJ///6iX79+okKFCmLUqFEiMjJSKbZr167i119/Ffv27RMAhLGxsbhw4YLKe3vhwgVRpUoVkZSUJDp37iwAiB9++EFl7MyZM6Xzm5qaivbt24uoqCiFmOfPnwsHBwfRtm1b0a9fP9G8eXNhb2+vtI5P4bVscnJyxLRp04SJiYm09oZ8PZbCevToIVavXi1iYmLEZ599JgCIwYMHi8zMTKXY+vXrC39/f5XXcfDgQdGuXTvR4/+xd99hUVxdHIB/s7uw9CKiUlQsQSzYC3awYyH23ktUbBiNBmMPBnuPXewlKmLD2HvvJTYsUVFBpXfYcr4/cCesu1T104TzPg9P4s7cmTuzM3dnztw5t0kTqly5MlWsWJEmTJigd14iohMnTlDdunXJw8ODqlevTm5ubmL99eUEWr9+PbVp04ZatWpF9vb2WdblU3FOIG0vX74ka2trAkBt27bVO8+jR4+oUKFCFBoaqjOtcePG4rk+depUnelpaWn06tUrrc+ePn0qlilUqBDdvHlTp1zGdujVq1fUtGlTsUzp0qXF9uD27dtERHTq1CmqV68eubu7U6tWrcjQ0JDq1q2rlb9owYIFVKRIEXE5bdq0obZt29Ivv/xCRERXrlyhyZMnk42NDf3+++86dYqPj6fBgwdrHateXl505coVrfkSEhIIAP3999/0ww8/EAAqVqwYKZVKvft3ypQp1LFjR4qNjRXr9ueff+qdd9asWWKbYmVlRZUrV6Zz585pzRMbG0sDBw6kSpUqabUpw4cP15rP2dlZzAmUcR/b2NjQr7/+qjXv7NmzxbqFhITordvHXrx4obPNYWFhNGnSJLFuVlZW1LZtW519ePv2bZo5cyY5ODiI38/06dOpQIECBICaNm0qHleXLl0iT09PAkBWVlY0efJkrWXdu3eP5s6dSw0aNCAfHx96+/YttWvXTtyeBg0a6OxDzX6cM2eOWNciRYpQ8+bNad++fVrzPXnyhH7//Xdydnamrl27EhHRqlWrqGjRogSAatasKR6nH9u1a5d4PBUvXpycnJxow4YN4vT79+/T/PnzqUSJEuTt7U1E6fm0NMdxvXr16OnTp+L88+bNo8KFC4vb5uXlpff35HP6t+UE4iAQY4wxxr6ILxkEOnz4sHiBt3fvXp3pBw8epIIFC9Lz5891piUnJ4sXppobsCNHjojJnjMTGBhIEolEDMg0b94802SiCQkJFBYWRmPGjBFvDMPCwigsLIwUCgUlJiaSk5MTVahQgaKjo4koPUltlSpVyNDQkB49ekREROHh4fT69WsCQJaWluIyNGW2bt1KAwcOJAA6QaCoqCiqUaMGBQQEiAGPrVu3kiAIZGFhQXFxcVrza4JAKSkpZGpqmmUy5XHjxlGvXr2IiDINAr17947q1q1LJ06cEPdtUFAQGRsbk6OjoxiIUqlU1KFDB2rVqpWYiDYiIoKqV69OPj4+WsvUBC+WLFlCw4YNowEDBpCfnx9VqVIl00CUJghERLR69WoyMDDIdNv0BV7UajX99ttvZG5uTpcuXSKlUklJSUnUvHlzcZ0fHzsBAQFka2tLZ8+eJYVCQcnJybR582YxYPVxEKhDhw60bNkySkxMJKL0G7aiRYuSXC7/IoEgDgLpGjVqFAEgY2Njio+P15k+cuRIatiwod6y58+fF48riURCtWrV0rop1UetVtOgQYPEdsjU1JSmTZtGMTExeudPSkqisLAwMRDh7e0ttgcpKSl04cIFkslk5O3tLSZov3nzJhkZGVHVqlXFc+v9+/cUFhZGNjY2BICeP39OYWFhFBkZSUlJSTRnzhzxnP44CJSQkECenp40c+ZM8Vg9evQoyWQyksvlWu1txiDQwYMHxbbz0qVLOtuWmppKVatWpW3btmUZBEpOTiYPDw8KDAwUt+f8+fNkZmZGVlZWdOHCBXFeb29vqlGjBiUlJRERUXR0NLVs2ZK6dOmitUxNEOjSpUvk4eFBU6dOpenTp5OZmRkJgkDBwcHivLVq1SIA5Obmluck+K9fvyZXV1fq2LGj+F0fP36cTE1NqWDBglqBoAULFlCrVq0IAI0fP56mTZtGXbt2JT8/P3JwcCAA1KRJEwoKCqJixYrR5MmTyc/Pj8zNzUkQBK1zaenSpWLQZ+jQoVS3bl1q3749+fn5UYkSJQgAOTg40JMnT8Qy8fHx1LhxY6pevbqY2PvOnTtkb29Pcrmc9u/fL867fv168Rzu2rUrrVy5kry8vMjPz486duxIAKhs2bI6+6Nfv340e/Zs8Zx79uwZlSlThgwMDGjt2rVERLR8+XJxGUOHDqW5c+dShw4dyM/PT0y8XrduXXGZ7969o7CwMDGwGxoaKh7jXwoHgRhjjDHG6MsGgVJTU8WeNnXr1tV50jpo0CAaOXJkpuWvXbtGtra24s0GAGrUqBGdPn06y/VOnDhRq4y1tTX9+OOP9Pr1a73zT5kyhQDQvHnztD7/888/CQB17txZ6/M5c+YQAJo2bZr4mVKpzHI/njlzRm8QqHXr1lSxYkXxZk1DE4jYuHGj1ueaIBBReg8kAFSwYEEx4KQRFhZGRYsWpevXrxNR5kGgefPm0fTp03Xqu3jxYgIgjsAWFxenNygTGBiYaRDI1dVVq5fSxYsXSSaTkb29vc76MgaBiIh8fHwIAMnlcp1R4/QFge7fv693lJ+4uDj67rvvCAAtXLhQ/PzZs2dUtGhRne+ciKh///46QaCzZ89S69atdea9fv06ASBnZ2edaZ+Kg0C63rx5IwYqPu4BQkTk4OBAhw4dyrT88uXLtdoGExMTGjx4sFYvnI9FR0eLvRoz9vDJeLx+bMWKFQSAfvrpJ63PNSPnfdz70cPDgwBojYRIRGL7p69H3Pjx4/UGgQYNGkQODg46bYKTkxMB6aN5aWQMAhERVa9enQDQ999/r7O+ffv2UcmSJUmlUmUZBNq6davYEySjnTt3EgBq0aKF+JmZmRkNGjRIa77z589nGgTq2LGjVpBg2rRpBIAGDhwofqZpOxs0aKBTh5zq168fAdDpFbNp0yaxzc0YCFy0aJHYmyVjD84nT56QpaWluE8z9oj19/cnANS7d2+tdaxZs0bskbV7927xc81oZ5r1aPj5+REAnTbxwoULYuDy/v374ucHDhwQH6xoAjhE6W2lo6MjGRkZib8bRES3bt3SG1h99uyZuC80Nm7cKAaqMo60FxYWRra2tmRmZqbTO0sT6MzuAc/n8G8LAnFOIMYYY4z96xgaGorJWc+fP48zZ86I0zR5Gzp06JBp+WrVqiE0NBTdunUTR/w5ceIEPDw8MHbs2ExzEkybNg23bt0Sk5dGR0dj/vz58PDwwI4dO3Jc/7Jly6JOnTpo1qyZ1ufZ5YbIqdu3byM4OBijRo2CiYmJ1rTg4GD8/vvv6NatW6blBw0aBBsbG0RERGDmzJla0zSjqmWWN0nD398fDg4OuHnzptafJjfEpk2btHJLrF69Gn///bf477Zt26JevXp6l+3t7Y2aNWuK/3Zzc4OxsTHCwsKyrBOQnti1UaNGSE1NRffu3fHy5ctstwOAzvFkbm4ufn8Z8yfNmTMHRISePXvqLMvd3V3ns7lz56JkyZI6+ykqKgoA8PjxY5w/fz7b7WKfxs7ODnXq1AEArFy5Uutc3LBhA2QymdZogh8bPHgwQkJCUKNGDQDpuVFWrlwJd3d3rF69Wm8ZKysrHD16FMuXLxdzaz158gSjR49G8+bNcf/+/RzXv1GjRqhSpYrWeZGamqqVn+VTaNrVjDnZNLZt24YlS5boTYCtocmhs2/fPpw+fVpr2m+//Yaff/4525G6/P39Ubx4cZ1zRdNeHzlyBK9fvxbnX79+PUJCQsR/u7m5ZZqfaf78+VqJvTXnak7alJwKCQlBYGAgXF1ddRJgu7u7i23umjVrdMq6urrC1dVV/HepUqVQrFgxAMC8efNQsGBBcZqHh0eWdffy8kK7du3Ef5uZmYnt/PHjxxEdHY2oqCisXLkSRYoUEc8LjfLly6NMmTJITEzE4sWLdZbfoEED9OvXT/y3ubk5qlevjpSUFERHR4ufL1y4EE5OTjrf5/v37wEAERER2L9/v9ayW7VqhU6dOon/LlKkCMqWLauTL4hl7cuM48kYY4wx9oUNHToUc+fORVRUFHbv3i1e+O7evRv169fXuXD9mFwux9atW3H79m1MnjwZ+/btg1qtxrx58/Do0SPs3btX56ZEIpGgUqVKuHHjBgIDAzFjxgw8fvwYISEh6NOnD9RqNbp27Zpt3YsXLy7e2CuVSgQFBWH+/PmfPOKPRlBQEIhI75DtjRo1QqNGjbIs7+joiL59+2LevHkICAjAyJEjYW9vj6SkJCxcuBAHDx7MsvyJEycQHR2Nffv26U2MPWTIEACAIAgwMTFB8+bNcfjwYVStWhULFixAz549IZPJMg3kfcpQ9Kampti9ezecnZ3x7t07tGnTBocOHYKdnZ3OvBEREeINa7ly5XSmV6hQQZzv1KlTqFKlCo4dOwZbW1sUKlQo27pERkbi1KlTcHFx0ZswW7OfcpJ8m326CRMmoFWrVnj16hWuXLkCT09PEBF27dqFH374QetG+2OCIOC7777DuXPnsHfvXvz222+4desWXr9+jSFDhiAlJQUjRozQKSeTyTBkyBB4eXkhICAAv/76K9LS0nDkyBG0aNECp06dQsmSJbOte7t27cQb+/j4ePj7++P8+fN48+ZN3ndIBkFBQVCr1XrPPTc3N7i5uWVZvmXLlqhSpQpu3ryJGTNmoGHDhgDSAzeRkZFZBqWB9KTdjx8/xrFjx7SCxRqac8XU1BRA+v7YtGkTqlatimnTpmHkyJEwMDDINAj0KW1KTh07dgxxcXEoWbIkjI2NtaY5OjrCysoKkZGRCAwMxJgxY3K83NzWXd/85cqVg4uLCx4+fIhjx47BwsICoaGhKF++PIoUKaI1r4WFBYoXL45Hjx4hMDAQy5cv11m+IAhZ1kGhUGDfvn0oVqwYVq1apTNd831qAl1Z1Z3lHvcEYowxxti/kpWVFX744QcAwNatW/H8+XMA6T0rvLy8cnyxWKlSJezduxebNm0SnwQfOHAAJ0+ezLSMmZkZ+vTpg1OnTmHo0KEA0kedmThxYpajb31sz549cHNzw8uXL3Hx4kV07949x2Wz8jl6FP30008AgPfv34s9rQICAlCxYkWt3gb6xMTEQKVSYcyYMVi+fHmmfxKJBFKpFAEBAfD29kZMTAz69esHFxcXrFq1Su9oaZ+DpaUldu3aBSsrK9y5cweDBw/WO9+rV6+y7CnUv39/AOmj7GhG7Hn8+HGO66FUKhEbG4t27dpluZ9Kly6duw1keeLp6SkG9jS9ux4+fIgDBw6gffv2OVqGoaEhOnXqhJMnT2LChAkA0kfT8/f3F3t36WNvb4+JEyfi7NmzYgA7NDQUCxcuzHH91Wo1pk+fjoYNG6JJkyY4ffp0pqMj5tantilGRkZiEOzs2bN49+4dAGDBggUYPHiw3hHXMkpMTERKSgoGDRqU5bmi6aW0aNEi+Pr6IjExEWPHjoWTkxMWLlyo1RMltzTBkJiYmDyN3nfhwoUsp2t6z3yuHqG5IQiC1oOTL11XIkJUVBSaNWuW5fdZqVKlPC2fZY2DQIwxxhj71+rSpQsMDAwQFRWFVatW4dKlS0hMTBSDQ/pkNhxzz549cffuXbEHR8ZXfOLj4/H06VOdMvb29li0aBFWrFgBQRDw9OlT7Ny5M9t6p6WloW/fvvj111+xffv2XD31zY2shrvOjo2NDTw9PQEAs2fPRmpqKrZt26b3NadPXb9mPx4+fBju7u548eIFBg8ejOnTp+ep7jlRv359zJ8/HwCwf/9+TJkyJcv5P2VfZudLLpvljub4vnDhAk6dOoWdO3eiQ4cOWQZT9H1/VlZW8PPzQ2BgIKRSKcLCwrBhw4YsywBAzZo1cfDgQTEgvHbtWrx9+zbber948QJ16tTBixcvcOTIkWx7++XVpxyrHTp0gLGxMVJSUrBgwQI8f/4cly5dyna4+rys39raGjNmzMDZs2fRsmVLREREYPTo0fDx8clVoD4jTSDwzp07Wq+d5dbjx4/zFET6Gt6/f/9J25odbvu+Dg4CMcYYY+xfq3LlyujSpQsAIDAwEPv27UPjxo2zfKq8ZMkSxMXF6Z1mb2+PjRs3AoDWPHFxcVi6dKneMgYGBhg8eLB4g5DZsjNav349NmzYgCFDhnyRXh5FixYFABw+fFhvngSVSoV169ZluQyZTIbJkyfD0NAQN2/exLBhw/D+/Xux90tOaF4h0WfdunVaOYFkMhmaNWuGkydPiq8XzJ8/H+fOncvx+nKrX79+GD58OABg6dKlOjc7FhYWsLS0BABcu3Yt0+WYm5tr9Y569uyZ3qBhZk6dOpXpE/WLFy/i3r17OV4W+zQjRoyAvb09VCoV9u7di8DAQLRv3z7L11t+++03vZ8LgoD27dtj2LBhALTbhitXruDYsWN6y1laWmLx4sXiK5gZz5PMjBw5ElevXsWUKVOyfG0trzSv5WR1rOrLZZORhYWFmBto7dq1GDVqFPr27Su2Vzlx8OBBJCcn650WFBSkVTdBEFCvXj0EBwdj69atkMvl2LhxI/bs2ZPj9WXUq1cv8f+PHj2a43IvXrwA8E+7fP/+/SyDQE2aNMlT/T4HY2Nj1KlTR6zru3fvEBoamun8n1rXCxcuZJq76O7du7h8+fInLZ/px0EgxhhjjP2rjRs3DlKpFCEhIZg/f362r22Eh4fj4sWLmU4vXrw4gPQb+4yyuvnIqpw+mhsITZnPrXXr1jA0NMS9e/ewefNmnemXLl3CX3/9le1y3NzcxFxLa9euFW/gstOyZUtYWlrixIkTWLZsmc70d+/eYc+ePRAEAQkJCWLgTWPgwIHo0aMHlErlZ8tpkpkFCxagfv36iIqK0nn9rGTJkmICbH1BIE2+ozp16sDOzg7FixdHnTp1EBsbi6CgoGzXbWtri6ZNmyIsLAwjRozQ20Nh/vz5sLCwyMumsTwwNjaGj48PAGD58uUIDw9H/fr1syxz7tw5hIeHZzo9s7Zh9+7dmZaxsbGBubk5jI2NIZVKs6330aNHIZFIdHKofC6enp4wMTFBWFgYli5dqnOs3rt3L8t2VaN///4oXLgw3r9/j5MnT4pB2OxUr14dzs7OuHnzJvz8/HSmJycnY926dTA0NAQAnTw1HTp0ENeVXTL4zJQvX14Mgk+aNCnbxN0KhQIBAQGwsbEBAK3XlPW1J5rPcvrq4edERLh27Rpq164NBwcHtGzZUsxblFVdsxqAISua/Ezx8fEYOHAglEqlzjxz5syBtbV1npbPssZBIMYYY4z9q7m6usLZ2RkA4OLigpYtW2ZbxtfXV8xJ8bHg4GBxnoxCQkIwe/bsTJcZHByMUqVK6X214cmTJ3r/X7MuID0wsm3btkzLpaamijcvz58/13vRrFGuXDm0bdsWQHrPhvXr14vTrly5Al9fXzHnT3Y0eU2cnZ0zTar6MSMjI4waNUosP3z4cDFn08uXL+Hr64saNWpAIpGAiDBnzhydHkvGxsaQyWRf7KZWQyaTYevWrZkm39UcB2fOnNHplRQYGAjgn30kk8nE/T5u3DitAFhcXJxO7yuJRIIRI0bA0NAQ27ZtQ8eOHcXAUnJyMvz8/JCWlparnhLs07Vo0QKmpqZITU1Fz549s93/b968weTJkzOdHhwcDDs7O/Tt21fr8y1btuD48eN6y9y9excvX77EgAED9CYG19emqFQqHDp0SPz8zJkzuHnzpvjvt2/f6vRU1JQNDw/PciSxggULYtCgQQCAqVOniq9Sauo6duxYjB49OtPyGg4ODujTpw+A9Nd5S5UqlW0ZID1ooFn+vHnz0L9/fzx48ABA+itLEydORLFixcRA2+LFixEREaG1DE1QI6fr1FeHqVOnokSJEoiKisLYsWOzDKZPmTIFTk5OYs/U2rVri0H1j3uPhYeH4/z586hbty4aNGiQp/rlVMZjJ+Nnd+7cEdsye3t78Xv6uK4JCQk4dOgQSpQokaOBEPQRBAHe3t4wNzfHwYMH0bp1a7F9ValUmDNnDkJDQ8Xf9k+h2d6wsDAeQUzja41NzxhjjLH/NoVCQQDI2tr6i69r48aNBIB8fX2znbdVq1YEgMqVK0dXr16lxMREIiJKS0ujwMBAsra2po0bN5JarRbLvHr1igCQIAjk6+tLDx8+FKe9efOGBg0aROXLl6fQ0FCtdR06dEjcB97e3uTm5kaPHz+mM2fOkIGBAUkkEmrYsCENHTqU6tSpQ+PHjycAZGlpSd26daNr166RSqWiWrVqEQBq0aIF9e7dm0aMGCHWb/fu3QSA6tWrR2lpaeK6b926RdbW1gSAJBIJyeVyksvlZGZmRn/88YdWPe/fv0/29vbUtm1bcX9oREdHU+nSpWn48OE6+/LevXtkZ2dHAKhKlSoUGRkpTouKiqKaNWsSAAJAMpmM5HI5GRgY0JgxY0ilUhERUVxcHAEgDw8Pevr0KRERvX//nsqVK0fdunXTWl+vXr0IAPn7+2t9HhUVRSYmJgSAIiIixM8fPXpEjo6O1Lp1a0pISNCpf0abN28muVxOgYGBWp+r1Wpav349yeVyKlmypFjHmzdvkq2tLc2cOVPcFiIipVJJHTp0EI+XmjVrkre3N9WtW5eaNm1KAKhChQo0fvx4io2NJSKiPn36iPtJKpWSXC4nQ0ND8vDwyLbeeTF69GgCQKtXr/7sy84rzXcbFBT0tatCRERdu3YlAHTu3Lls59V8dwMHDqS7d++Kn79//54mTJhAjo6OWm0GEdGqVasIABkbG1NgYCC9efNGnHb//n0qX7489erVi5RKpVa527dvEwCSy+Xk7e1N9evXp4sXL9LEiRPF86xHjx7UunVr8vHxoYYNGxIAqlixIvXt25eio6OJiMjLy4sAUP369Wnw4MHUuXNn8TgeMGAAAaBp06Zprfvp06dUrFgx8djWtClGRka0bNkyrTZz27ZtBIAWL16ss78uX75MAOjgwYM60zZv3izuzxEjRmhtf0pKCjVp0kRvm9KjRw+tec3MzMjV1VXc7zExMVS/fn1q2rQppaamEhFRfHy8uD137tzRqkdgYKDedpWI6MWLF1S3bl2ttv3KlSt0/fp1un79Ov38889UvXp1On36tM72xcXFUcOGDUkQBBo3bhypVCpSqVQ0evRocnJyoidPnmjNP2nSJAJAgwcP1vo8ISGBSpcuTQDo2rVrWtMOHDhAAKhWrVrithIRrVmzhgCQgYEB7dq1S5x2584dsre3Jz8/P522THMe9OjRg5KTk4mIaMmSJWRlZUWXL1/WWu/69esJADVr1kzru1AoFOTu7k4AaPv27VplNG3Rx79TtWrV0vo9mT9/PgGgzp07a5VPTk6mqlWrEgA6cuSI1rTWrVsTAGrYsCH98MMP1LVrV61j9HPasWMHAaABAwZ8keV/bgJRHjNjMcYYY4xlQalUwsDAANbW1lmOivM5JCUloX79+jh69Kg4wldmfHx80LlzZxw7dgx//fUXQkJCYGxsDIVCATs7O/To0UPn6ebr168xa9YstG3bFoGBgbhx44Y4LS4uDu7u7vj55591egykpaXB29sbmzdvhrOzM/z8/ODl5QUA+P3338WE0GPHjoWPjw+SkpLQtGlT2NjYYPbs2ahXrx4A4PLly/Dy8kJsbCwGDRqEGTNmwMLCAnv37sW1a9fE/evq6oo2bdrAwcEBQHqPoUWLFomvRnh6eqJnz55iF/7k5GRs2bIFb968EZPPuri4oGTJkmjVqpW4HcHBwahevbrYIyEpKQlbt27VKgcATk5OcHBwEJPaRkZGYsuWLfD390d0dDSMjY0xYcIEjB49WnwtIj4+Hp07d0bhwoXFp8uaIaN//vlnGBsbIzExEdu2bcPt27ehVqthamqKChUqoHfv3rh+/TpOnjwpDhtdrFgx1KlTB48ePUJYWJj4mk6ZMmVQokQJtGnTJtNjY/369bCyshJ782S0bds2bN26FX/99ReKFCmCokWLYtCgQWjatKnOvElJSZgxYwbmzZsn1mnq1KkgIowbNw6+vr5o1qyZ+JQ7JSUFe/fuhb+/Px4+fAgA6NOnD2bPni3mJPqcfvzxRyxYsACrV6/GwIEDP/vy86J3797YtGkTgoKC9O7//zdN75bg4OBsRxrs3r07Ro4ciU2bNuHu3btQKBQA0o//pk2bYsiG7450AAAgAElEQVSQIXB1ddUqExAQABMTE6SmpuLKlSs4deqU1mt/np6eGDduHIyMjLTKERF8fX2xcOFCFC1aFFOmTEHPnj2RlJSEvn37Yt++fZDL5Vi/fj1at26NY8eOoWPHjvDy8sLSpUvFV5MePHgAT09PhIeHo3379li6dCmMjY2xZcsW3L17F0qlEsbGxqhQoYJWD6bXr19j7dq18Pf3BxHB3d0dXbp0EUeLCgkJwZkzZ/DgwQOkpKTAwMAAFSpUQM2aNVGxYkUA6T09duzYgfbt20MulwMAHj16hLNnz4rlNCpWrIiyZcuKvWNiY2Oxc+dO+Pv7izm8fH19MW7cOK1h11u1aoVixYphx44dcHZ2RlxcHBo1aiS2nQ8ePMCRI0cQEhICALCzs0PdunXh4eGht1318vKCvb29uHyFQoHg4GAEBgZqDQZQpEgRdOjQAd7e3pn2OIqJicH06dOxe/duFClSBFKpFJ6enujfv7/WOgICAnD//n0kJydDJpPB1dUVvXr1wosXL3Do0CE8evRIXGft2rXRpEkT7N+/H1evXhVzI1WoUAFt2rSBo6Mj1q5di4EDB6JTp05ITU3F69evYWBgAAcHB9SvX1/svZlRcnIyZs2ahcDAQMhkMhgZGcHNzQ0jR45EiRIlxPl27dqFGzduIDY2FkD6qJvt2rUTc2vduXMHQHrC7mrVqqFdu3YA0q8TDhw4AH9/fzFJdLt27bSO1S1btuDOnTtISEiAIAioXLkyOnfujOjoaBw4cEB8Lc/W1hY1a9YUewPfv38fnp6eePv2LTp27IjFixdne32QVzt37kTnzp0xYMCAbHNjfQs4CMQYY4yxL+L/GQRijOUcB4EYy380QSAfHx8sWLDga1fnP+XfFgTinECMMcYYY4wxxhhj+QAHgRhjjDHGGGOMMcbyAQ4CMcYYY4wxxhhj/2GafD2a/7L8i4NAjDHGGGOMMcbYf9TGjRvx9OlT9OzZE0SENWvW8HDp+VjWqe4ZY4wxxhhjjDH2r9W7d2/07t37a1eDfSO4JxBjjDHGGGOMMcZYPsBBIMYYY4wxxhhjjLF8gINAjDHGGGOMMcYYY/kAB4EYY4wxxhhjjDHG8gEOAjHGGGOMMcYYY4zlAxwEYowxxhhjjDHGGMsHOAjEGGOMMcYYY4wxlg9wEIgxxhhjjDHGGGMsH+AgEGOMMcYYY4wxxlg+wEEgxhhjjDHGGGOMsXyAg0CMMcYYY4wxxhhj+QAHgRhjjDHGGGOMMcbyAQ4CMcYYY4wxxhhjjOUDHARijDHGGGOMMcYYywc4CMQYY4wxxhhjjDGWD3AQiDHGGGOMMcYYYywf4CAQY4wxxhhjjDHGWD7AQSDGGGOMMcYYY4yxfICDQIwxxhhjjDHGGGP5AAeBGGOMMcYYY4wxxvIBDgIxxhhjjDHGGGOM5QMcBGKMMcYYY4wxxhjLBzgIxBhjjDHGGGOMMZYPcBCIMcYYY4wxxhhjLB/gIBBjjDHGGGOMMcZYPsBBIMYYY4wxxhhjjLF8gINAjDHGGGOMMcYYY/kAB4EYY4wxxhhjjDHG8gEOAjHGGGOMMcYYY4zlAxwEYowxxhhjjDHGGMsHOAjEGGOMMcYYY4wxlg9wEIgxxhhjjDHGGGMsH5B97Qowxhhj7L8tOjoalpaWX7sajLEPUlJSvnYVMtW9e3cYGBh87WowxliOKRSKr12FXOEgEGOMMca+uLi4uK9dBcbYv0BycjKSk5O/djUYY+w/SyAi+tqVYIwxxhhjjDHGGGNfFucEYowxxhhjjDHGGMsHOAjEGGOMMcYYY4wxlg9wEIgxxhhjjDHGGGMsH+AgEGOMMcYYY4wxxlg+wEEgxhhjjDHGGGOMsXyAg0CMMcYYY4wxxhhj+QAHgRhjjDHGGGOMMcbyAQ4CMcYYY4wxxhhjjOUDHARijDHGGGOMMcYYywc4CMQYY4wxxhhjjDGWD3AQiDHGGGOMMcYYYywf4CAQY4wxxhhjjDHGWD7AQSDGGGOMMcYYY4yxfICDQIwxxhhjjDHGGGP5AAeBGGOMMcYYY4wxxvIBDgIxxhhjjDHGGGOM5QMcBGKMMcYYY4wxxhjLBzgIxBhjjDHGGGOMMZYPcBCIMcYYY4wxxhhjLB/gIBBjjDHGGGOMMcZYPsBBIMYYY4wxxhhjjLF8gINAjDHGGGOMMcYYY/kAB4EYY4wxxhhjjDHG8gEOAjHGGGOMMcYYY4zlAxwEYowxxhhjjDHGGMsHOAjEGGOMMcYYY4wxlg9wEIgxxhhjjDHGGGMsH+AgEGOMMcYYY4wxxlg+wEEgxhhjjDHGGGOMsXyAg0CMMcYYY4wxxhhj+QAHgRhjjDHGGGOMfVVpL05g8x+n8DRame288Ve3Ysm2SwhP/T9UTIsaoSd34tQLxf97xVqSo6KQ9FVrwP7NBCKir10Jxr4WVWI04qSWsDb6vPFQVUo04lWWsDLlOCtjLO9UcP3aVWBMixR3v3YVGGP/Ua/WtoXzoL2QFGqGhYf3YGAl40zmTMOpn2ug6ay7sCk/BJuOLkFTO2mu16eIOo6xnf1h1Gc+JvWqCLMclFGnXsF4t8ZY8a4GJqzZiHGejsj9mnNPlfIOITeu4OKFszh+JBhHzqeg7x8XMau1LffqYLkm+9oVYOxrit03FEV77gbMzWFq+HmacFVaAuLjDdB/8yus6Gb+WZbJGGOMMcbYf1cKrl39C2mwQKfJK9A/0wAQQKrnOHPuBUhWCv3nz8hTAAhQ4dmeFfjj7Am8PVEXx/ZOxtKlo1G7SFa3xyqEbPDDmjuJoMLJeHH3ISKbO6JQNlGY1OgwxAgFYGsl1xuwUabGIvJdBCIi3uJtWDjCwsMQ9uYNXoWGIvTlc/z97G88/fs14hWEf3pvCFjn8ws866xEowJCHraf5WccBGL5mtTEBEZQw9S5EZpVtPwsy4y5dxD7rhmjkL3BZ1ke1EooIYMsN2F+tQoqSCH97I8G1FCpAOnnX/C/iBpqtQSSj3aBWqkEyWR5eBqkgjINkOkJQqqUSggyGT/hYf83ajVBItG+mCQ1QUWATPrfvMikNMLNQ3E4/j4FgwfYwuI/esYpo1Q4sjsa4aWl6OtuBQn+m9/np/vcbfy/A6W9w41DgTgZUQmD+9fB53yEpVKpIJXq2XMqJZRCLq9v2H+WOu0uzl0Kh4lta3Tv6pRlS6x4fRTHbyegSKUf0cfDOo9rlKJM/+24XnY1JoyajC27x6PFlaPwXbEaY1sW13uTnPZmByb8ehgpFvUwe99hjKieeaBKq9yDhajvPhfPBCOYmhhDbiABoIZSoUBqchJS0pRQf/xujiCBoak1ChUujCJ2LvCo0gzFnYqjZClnOLuUhbNTQSAmCgaG3Jaz3OMgEMvfZDJIBQnKt56MFZNddU6I1L8D4O1zEaXb9UafrvVhb5TdAlW4NdMdwddjYWb6aZeK6sRnOLh6NmYvPo5aS+9gTsusf2goLRSHls7AvPUHcOlhGJJhDPvvaqBlNx+M8/kepXLSx1XfclXvcGbtTMxbsxcXH0cDMkAts0Wlhh0xzPcndKhklbcFfyaqmAtYPmMr7sUrofNuqyCFtUtHjBnhgYI6VxNK3N3ph1UnwqHIUFAQTFBvgD96VJeLn6kTHmH34jlY9sdh3H6ZDAEqCKZFUKGmO5q0aIVmbiYI+nE1qgZuRUfLrH+M1UnPcXzrOmzdexQXbz7E6ziCkZEESoUUlnalUamGG+q7N0K9KhJs/3kfvIKWo5Ex/8DnTzE4uyISf9yOg0rPi9syUwm6jCuMeoV1G6bUR2mYsTQc7xUq8TNBAMyrGeHXgUVgmCEAcH9vHOYufYtjN9KQKqQHfOzKSeHe2AwtW1pBejAZ251UCOhrBwB4eTwRqw5EIipZJZ5zEgMBXacVQf0C2TaSWhKvpWDy2nAkfXgzXSIBLG1lqNPNGq1d8tho5dCL84nYsDECu/cm4N5bgqW7FN37FoRFNk335U3RCLoWh7hUtbj9Js6G8PWxQ8GPIwcZRFxKxsrgSLyNUEKRcXsLGaBuVyu0+gLbSyrC1d2x2LQtEnsOJyM8Cag33Qx93L9uu50b32Ybr8aL48ux8sB9RGc4D6QGzug+bTTq5vKpfPy1tZi89iqSPyxIkMhhZVsU9buNQkuXz/RASa9U/H1+BzZs3I7Avcdx720qirkvQPc+dWCe50sYNd7f3Yt1Adtx8NQV3H0aCbXcBEYyAQZmDihfow4aNmoKj5pWOO/ni4iBR/Fbs5zdSLP/ttTHR3H8YSpc+vRBkyzPIRWe7dmHK4kG8OzSDaU/6RSRwqH2EKw/1wqd5gzHsBn78UtbN5wfvQLLpn+Pov80EyDVS2z0mYD94YUwYP0mDMthAAgATGt2Rtf6u7ElVAZTUzOYmZnBzMwc5ubmMLcwh6WlFYwTr2PTuuN4k0aQGZXBjztOw79N4awfSxR1yPOWs3yOGMvHYg78QIWkBtRi2h1S6ExNoTMTq5OBIKNyrRfRnVh1DpaopJv+9cjIoCLNuZGWpzopYu7TTv9+VNPBmASABKkDjQ1OyrKMKvEWzW5VnAwEEPDRnyCh4m4/06lwZa7rok59QL93/o5MzMrR4CWn6U0yEZGKYp8dosmtipORuSuND3pFqjxt6eejTnlDxxd1Jie5RNxui+KdaOON95T1t5BKr6+spHaljEiAQAW+60LrLr/VOhZSQvfQ4GoFyayIO0394zZFK4iIFBTx6CgtHNmEHI0EAkBG8ta0IyarYySFHu2fRI2dTElm7EStRyyigzdeUZJm56ni6dmVIJo1xJ3sPyzT2NiLAnN03LH/KiVVoOdnS9L3paUkaM5pKajnSmt6l1qWlFQh07/Ety60qIsFGQggwRDUa7k1hSv+KaNQlqftIwqQpQGo2XhTuh3hTEqqQMnRZSn49yLUsLhEXGengAJay1aklKfgyYXISqJpZ0BNZllQKpXPsk5ay1CVp9UdLUnyYR1SG9DsCw65Wsan/D2+WpKuX3Iir6JSAkBW7lJ6ocx6n2r+UuPL0Z+/F6Eq1oL4nXRcaU0pOaj7433FqayRQFIb0JyLX3Z7FcrydPWsE13Y4kglDNLrWn+62Set82v4Vtt4dUooBU/2yHAemND3s+5Rbn5t1apwWt3RXjwPjG08aOGF97laRt6l0tOr5+jGpZXkVdSQAFBx9wX0Oo8rT4u4RPP7VacCBgZUrEYfmrP9PL2M0ywshV7f/ZMWjWpKRY3T96kgWJH3jvjPtjXs30xB12fUJbnMmaadzfqaV624S5NqWZChcQNa9UT36j3vVPTmwnzyKm1GJRv40+2EjOd7Kt1Y7EkFpHKqN+wgRX3mC9/I60vJq6QxCYIxVe00j47efkHRqdrzqFVRdGH3PgpJ+LzrZvkTB4FYvpZVECjl79XUzFZGcsta5LN4LQUEBGj9rVm5lOb5+9P2K7EZSn1aEEitDKXdc6fT8i2baXqHUiQTchIESqTjvtXIUGZFVbx8aM7KrRQYuInmj+9ALlaaG0cJlft+LYXm6rdSQVf9G5CpxJI6LXykc0GqjNpPvZzkZFa4AwW++f9crmYtnvZ6lyHphwtpp8ZL6V2OfqSTaecAJzIwrEDTz8ZpTVEr7pN/48IkMyhLk09E6ymrohd//kiVzCXZBIGi6fRsTypsIJCZfXNaciEyi8CZikJPTqW6tjIyMKxPK599C/v226JKvUKL5hyg/HAdpLnxjjhSkorJPtxoGoJWvymRoxv2mAMlyFYKqjHWhGI/uvG/scCeLCWgqqOMKYrK6ZRNCXMh72qGJOgJAimpAikSylE3O5l4U25USqBTCd/lOJiQ+JczVTMRxPJ27WU6dfx//C1rY57rIJDm7+25UlTZNH0bJGagaWftsw/MKMrTz9WMyL6Dwf9texXJ5alzIem/NgiU7tts45UJe6ibnaF4HBcsPYzOJ+Q8eJ/0lz9VM9EEtwRyab/5K7RtUbSsTYFPCgIlPNpM3VzMSRDMyWPEHnqV6SWQisLOTKM6BWUEyKnXqohPqTj7JqTSucVz6Xhc7h9apb09R+sWLKblq2ZTJxcjMnNoSdNW/3OtvXb1Slq2ZD4t3/tAvA6NPDKcistA1s5dad7aAJ3r84A1K2npAn+aNj+YwvJwLCvePqSQtxkLqijs+E/kaiajUu6z6V7WMapcSqUHu0ZSFWspSWSFqM0vh0nfM1u16i0dnNSQCkhkVKrhZDr/lq8N2afh18EY00Odeh9LvKfg2Hsl1LiMhSMv65lLgtKN5mK/j8VnW68gdUS7MZMAAAnFbmHDvnl4ps66jCpyLxZvUWDUjlv4rV2Gd5jb90SfjnPQznMCzkQo8TB4FtZd6Y5JdXL2uoY67Qo2bLoGhawmmrctpZMHQWrtgeZ1C2LL1j+x50AE2g8qnKtt/fzM0HRQd5RbOw13U9WIuHUaF2O84ZVNt3x12l1cuBKBks0n4ofa2lkQYk8sxZLTb2Fb4Qd0qafv9QkJirXwx8pxl9B8RmZrUOLuqn7o6Psnog1cMWnLdgyvndWrGBI4uk/C1uXPUa/HNUS9VwMl/qtZKPIm+tharD9dHX3Hfu2a/P9YehijeyUjzLqeAlICZ07Ho19X02zL3T6fiFhzYPjowjDN8AoYJamxeNF7xEqB9n1s9ObBkRWRYdba4rhY54n+hcsFFLOTwTReieQEIOVvwrIdkajTzy5H+WZOLI/EHYFgLAGS1YClrfSrvKNuaiLNc3acAtWM4Golxa1EJdQJgH/vMLieNYKXg0nmhSSAbQEZLG3/j+/kC4CJsQSAKttZv13fZhsvyIujmJ0hTOMNkJyQiMhnW7F6hy/c+jnkILtUIo4v34C7ggmMJQlIVktgbmuLL/kCmH5ymJoY5vk8ULz7Ez7th2D7wyS4tF6B9fO/h0OmB7cERepPxPZVz1Gn82bExURDBZv/bK6l/EAVfwxrfj+N5j1+zH3ZhMtY6TsWl1I0L1UexJRBBz+aS4b6P9bAAC9AogrBqpnb8VIJUMh2jBmwPdNlO7r5o/eIlnqmKHF75yzs/EsFI7kBskt3R6rXOLRsFe6nFUPb6mnYu9Afe7XngEqRipQUB7T/ZRCqmubsTKK0Fwic0g/D5p1CjEkl+GzYht+6u0D+0Xzq2Bv4fVhvjN96D6kGhVGmQCLC36uBQnzWsLzjIBBjH1GnhCDgh06YeDgBjX7agwUDXLQuyBLurcKAfovwukgfLN40Ei65S4GRY1IrK5in543LUuzpk5D0WQO/drpJ7ApU/xFLJhxB7THHkKT8G1fPPIeqjkuOLrYo+QmevEyFmuIQG6sGdMNAMDGVA6RAXHQcVCj81S/ijFx7o0/DJfjpSAQSoo5gx86XaD24eJYX4gmXtmPvI2u08++EwloboETIpRt4pwQKqlRQZroEQ1QZOBB1lgbpnZp4Zx4G/rQP79Uy1Ok/Dz/mKBeHBEXbTsWPTVrhTYQS+Aq3BN8qddpfWDZ7F+JMqn3tqvxfCTIBffoVxJIbr5CoBo5siMbrTrZw0Jds9QNKIWwPioFTezna2msHJdKeKHAjLP2oVulLOPSBkashBjYxw2m9lQKM5AJc2ssh7E7DtQTCn0tj8KBnIZQ3yPryQhmmxLI/YtCwqxH+3piKp2qCVPZ1cl9JP8OVkHNlCV7dViPpb4J3rxcofbA0yhllft7KZMJnWW9uZHGo/Gt8i228IBjBSC5D+fYdoN69DtcSYnB06Wo86jkVZbNputPCdmHZH2/h3tULTzduw1M1IJV9nS9KlsfszKSOwG7fkVh3LwEy41oY6t8PxbI9tiVw/H46fm55BHtionVzPbF/kTTcXDEPe1/I0TwPpSUmJjCSyFCpxxpsmVRL5zo2+c58tO2+DpYFbSCBCo83TcC8U5GwLT8cAduH680HpFZew68tB+CCkTGM9P6sKPHsWAD8Vz3L7hL7I88QOHciAjOZKpe3QIUxg1A12+czSry+vA4TR07EpqvvYVO2O9ZsXoZeVT5+qKxG2MVlGPXDJAT+FYdCrn0xZ8MC9Kzy78npxr5dnI+fsQxiQwLxY4tGGLr5KSr3XQ3/Brew/awSTmXKoEyZMnDEBfw6ZhmemDTBzJ1L4Wn/5S7WBJks26cTgBqqol0wYXhVGOqdLoVLBy9UNU6vZ1J8fM4vtgwsYGkqgVJ5F3sCziHxo8mkfotHj6MgSB1QobrjVw8AAYAgdUKPwa1hKwVAcTi5ah0eKbIqEYM/1wUhsVRXdG+i26NLoUwv/O7+VqzZ9zrTiwWDQo3hXlX3GyDVCwT8sgjX4tQwNHJDbx8P5DT1qyAtjh5DW8I05d/85P5zi8EpvyGYfSbya1fkqyjV3RytPzxef3dChS1347OcP/JwIoKepaHzAButXkAAAAXSb3oVwNbF7/FWpf84EyQCmjS2yPL8lheXYWjr9L5E8bfVWHk4KtttubM2BmeM1BjSqeBXH6NK+AwVqDrKCn4tzSABEH5KhX7jXyJanbvbiy/ta+/nz+Fba+MzsizeA0NbO0ACwpvbAVh7ODabrVHi9tqVuGrUDoM72X/97yePFUi8sQS/bnkGFQQ4ufdHl3I5i24KEkd0H/o9DONic3kjzr4l78/PwJAZp5CUx0ieRCqDVALIze3w3Ydr7Yx/pe0tYSAIMDI2RvKDlfAevxfREif0njUVrSrozl+mTBmUKV0IRhIBgjSz62hD1PtpD568jUFMTAyio6P1/kW+3Y0ejoZwrO2He5H654mOjkZ0TAxiosPx16V58MhmcJC0sEAMdiuJ7+oMxvor70ASaxQuFIGNY1qjTs2qqFTeBd+VLAaHwjawMDGCY90RCHwgoP7ANThxLoADQOyz4Z5AjH1AKffxx2x/rD8XjjKtl2LDguIIaDwYc2+vwr2XazCjzTOM6zQWxxNq4rd92zGg4rcwmoUEtjUawzaLOaSFisLeTAIkS1DQzi7HkV+JUR00qlsQO3eH4cKKwZhU/zjmdCgq3gzGXl6NLRfjUcJjOvo3+Bb2RbpCrX5AF5cdWHIvCeG3N2DDyTGY2Uz/YLdpYUFYt/8dao3ti0of97+FDKVdy8Jcch3RqudY0c8TQuI2+Pcuj49f9BAkReDmUQ1pH90pJ99cixVH30INAXbV28GzRO6aXNtWszEli+lJry8h6I99OHf3OWIVJnBwqYO2PbuhrlPm3welvsGZnZvx5+WHCI0iWNl/h9rNO8Gr0Xew0HNwUMobXNi/Dbv+jEST6b+ilaMUivfX8cfaLTh+JxwGdtXRcchgNPtO8+hLjYj7B7Bx80HcfpkKG5em6De0C1xtMg8j5GQ7KO0V9v7aG4P8LyCBAIvYF7hy7hyMAMisSqJaBXsYAIh7cR57t+/A+eTmmDW1BRR3d2PFmmCEJBZBs0GDUdvwNcISP7paFeRwKF8NJaw0OyABz27exhtxPglsSldD2SI6B8n/lcRaih+6FUDgnHdQpgGbVrzHsBWWugEepA/rHhgQiZRqEvSoqXvza1hKhrKWEtx/p8KjLWnwMniGDYuc4GKm+1jVvqYxKr7PPBgpCALaDi+ImYFxeKwg7FociZ88bVA0k64nlKDGsnWRqNTPBI3Mc75Pk18rsOePKJy7m4gYhRr2Lkb4vmcB1HPS/+rV0xMJ2LA7Ek8jFTC3l6FSdVMUSxTw4jspvBtmPaRwyJF4bAiMwiuVClVbW2BgWz2BtIz7QCbAe40jbns8xcaHCtz4PRkjq4RjfV875PVls+TXCuzcEolrD5MRTWo4OMvRoqM1GnxnkuXrdpSoxqldMQi+EIfweCVsy8jRuXfBHK0z9FISduyNwr0XqVCaCChbxxQ9u9mgqPG3c7n4LbXxGUkEa7Qd3g0zA+fiseIV9izeDB/PYXDMpIwq4TiWrbuLqv2WwsP8jxxufSpeXtqDP/aewb0XUVCZ2KF8HS/07OYORz3NvjrpOY5uXod9F0IQrTKDg3MlVKtaErGXH6PyhJGopb+bxAeJeHhkIzYEXsRrlS1qtB6I/m3LQruTQxKOrt6Ch6lqQJCjcovmekZpy5ylezc0faC/D1Zuf6uAFLy8vB/bdhxCWu1p+KWjIwRVBC7vXINtR+4gUrBD7XZD0L/1d9DsKmX0fezbtBmHrr+EytIFLfsORbuqNh9dJykRfu8IArfvw5vSPpjexwUUfQ9B6zbiyK1XUFmURsOO/dDN3SmTh3Ef9tTrC9ix5QCuPXyBGLKAo3NNeHZsh/rfWem9LlMmPMfZPdsQeEyBzosnoYGFgKTQ09iwdicuP02GbQVPDBzcAWWsMvsOc3GsqBPw5PwebNtxHCZtFmFMMwtQaiiOb1yL3eefQmFdAV4DBqNNhYwBiDQ8+9MPvfrNxI1YNWQGsXh67RzOmQgQJFYoXb0CCmcdN82V5NgTGNPFFyfeESp198dPnjaZz0xKqFVqSKQS6B+wUQLb0q5ZXjsDgDpFDgkAQ/MCKFzAClmHXyxhWTn7tAgym2IwTYpCshqQGJiioF1BSJOSIBS0QVH7UrC0sIApheLwH/sQlqyGedHGGLtoBca1K63zmhhjn+RrJyVi7GvSTQydSPeC99DN6PTkdqqYW7RsQDWykEhIKhXIqEADmn8+KoslfvroYBrJD2ZSNSMhR6ODZUUZs5laWclIZlCV5t/OXZ1iLk2lyubpCSulRqVowIpblEhEKaGB1NPFlByrjqKjeR1G5ItR0u25jchISE+IXbbtukyShyrp9lwPsrRsSVte6d8GVcJZGlHBVBwhSZBYUM2uc+n865zsx1Q6+XMlkgEEyKjB2PPZjGKTG3F0aXlPqujcgIb9tpq2bV9NE3tVpwJSgWRmZcl73T1K0SmjoJC9vtSgWCGq0nY8LdsWSNtX+1HPmoVJJsjJpZEvHXnxT+bwhAe76JcBzci5QHpiYJlBDVp0L4VeHZ9K9ezk/4xUBaZxM1sAACAASURBVIGMbBrS0qtJpFZF0am535OD/J9kv4BA9pXH0NlIfQkjc7od8XTUvws1aeRO5YvISABIblueGnp4kIeHB33vs4mObJxEPRqVIQtZ+rqLN1pIZ7cOpDJm/4wmVLjij7R5/Thq7PRP/Y0K1iffNcF07/0/x4BaFU13j62lgTWsSBBMqHoXfzoakvzZvr3c+Dgpb9IjZ6ptlr6N0gKgLWEl9SbvTXrkTG5mAnVYZU1pmSQBPvKTrdaIgtblBVpw0j5HI1wpKX3kqSm1januZDNKUZanmY3TzxXBADTpQuYJkh+vLkpWVqB1oSUo7nxpKv1h1Kryw4woMZN1X1puT67OEhr8myVt2W5HE3uZUQFpejLmAetsKCFDOYWqPB0Yb0sFHQUavagA7d7jQEunFKDKNgIJAqjrRhutZW/paUXCh8TQz5NcKGCgFZlJ/tkvkIAa+5lrrSNjwuVeDjLqtil9mVFXSlNNqw/fjwXot4sOumVU5WmRpzlVGK5/exWK8rTj54LkaCtQh/FmtCXQnpb72VA1W4EEOai5rym9UOhPYB1+oRR5lZFSoaoSmr66IP2xyY68mxiRaUGQgzkyTQytiCtHC3tYUJkGUvJfY0tbVhemrtUMSCqALMsJtPFe8W8gMbTGt9LGp1MrH9CU2lbUfPJNSlM+pZmNbT60meVoxkXdlvjDmunx6u+poFUr2hKqpPjz4z6cB1JyG3aMUvWViLtJC3tUoQoNBtHsNdto6+pp1K1aIZIKAhUq14u2f5StNu3dMfKpVYSc3UfR79v2UND2lTShZ3WylgpkbPQ97Y7P2CYn0pae9iR8SAwdmhRCAQMraZ0HgsSK2vhd0fptUaUcpwEljdITo8u+o2lnP0c7mbvfKlXKA9o6ZQA1KmvzoT0zoJa//kVJb0/Qzx4OWm2cRGJD7WZeoRRS0duL86hFceMMv2UgA7NKNO1YJBERqZXPKOi3odSiih0ZCum/4/XHnKW3t5aRVykTrXISqTU1Gxus9zhUK57Tzp+bUFHbstRl/BLaHriDVvj1o2q2BiSVF6XvfffT6wyDdkTd3Ew/9fKgEpYffuvkzWhTeDzd3vwDVbCUZvhtlVDJev50W88uz+mxooq7SQG+valBaSuSCiBATt2Xh1PMgy3Up3IBccQ6AGRkXY+WXP1nZVFnZlKHJo2oQcUiJBVAgtSWXBum/yY3buZDwTlMXKx4t5oamxlQzSFH9B738ed+otIGhtRxwWP6+8J6mjDoFzqYzXWnKnk/9bAzpJItVpK+dO85pUoOoi6FDahUy9UUm/3sOaSkZ5cO0umbf+uM/kUUT3d2/UKNnUxIYmBL7gNX0I2I9G1VK8Lo6Pze1Pj7WR+NWsZY3nAQiOVrWQ8RT6SIvEJLBlYjS8mH4UwlZlSh+ShafyZU74/VtxgEijvlQ8VlApVusoRe5HokzVS6u6E7FTP8MPqN1IYaDZtIPSrZk1uPZXQr6tv8IUp7u5W8ChukX9QZudHSe7obrkq9QmMqmVOlHjuz/HGPujKbGhQy0A56FKhMg2YfodAsrnfVyqfk18DiQ5n0C6vPI5VuLG1NjsU60s6nGY+xODrxSy2SCyCZvCxNORGTYZqKQg8MJ2djA6rRP0jrQlWVeItmNClMEghUxHU4Hf8wLIU6IYpiUhLopG81kgEkM6hOvit9qVndjjR5RRCdPHOU1k1uRQ6GAgEScm7zO+2d2YJc3frQrA3BdObsIVo9rgkVkgkEwYha+d3+6BzLy3YkUkBHWxIAKuW5KsP3pqS46DhKjT5BP5Q1/l97Zx0XVfb+8c+9EzBDp6gIKiEKNuq6dnetHSh266prt24Yu+bX7l7XtcVau7BX7AREEQUEQWri3uf3x4zKMAMOuK7sz/N+veb1gpkbp8+5n/uc59GFWfYoSRUqdqWl+w7TloUTaUCv/jRr50NSE1Fi6BQqq4/GU7zx8mwWibqIQm6lx9HfX0b/ISJjEUgj+NOa9vqw6hyozi82JiM9nZlYgCzcQHsSvLIXcd6Wohn1lfrFv/5BTwoK7CqnvyJMi0vZikDkTy92FiVXie46xTrLKM5ExLF3kbFK9rOgJPI3SwS69r9C5ObB0ZYnRQ2+PzHRlSw4EGcBGnui4PvvE04UJ0856PujbgbHv77oReWsuWxFILvqPP3U1YaqdbOgDSGF6Nhedwoqr+v7EgfQ1lfGZZJVBNJSAN3bUIQK6iO5Kbw52vvC8LycRCCN4E87BzuRhRQ0cI+rgYCXeMOHajrxBA4UOERBMVrD8k266UN1CvDk9A1Pl5J8DeppRTvb91G1sopAGpU//drUmrzbyeiJ2s9AGBoVqBNMrUpydCrJJ5+IQPljjH9HZhFIQ0Qvdgbr+wFPZTr/bnJ8ETR/07iKdlS530FKIfqoCCSo7tCvTYtQ2Xbr6Wmm4VJIvkCjAu2IA0cFSn1P55PezcmpFDK0JDkVH0BnDCI2vaVTU6qSvSJ7EahQ9VH0c9dKVKvbTNp88DSd2LuYgso76NqBQ2v6M9PDffqDOVTJUtd/5fLatCbqU18K5X6uIkqhhMQMSgydQKUsOAJkVHf0CvqhcXXqMn457Tt5hg5vnkINPPVt2b4FLQ+ZRXVLfUP9ftxAh86cpZD1Y6lmIRlx4Mi98o90X60rk8TEDHr7YBHVtpcQIKUKPSdTUKUq1PeXLXTszEnasWggBbroxBqOd6Yuyx5S5hIQhVjaObgMKaTFaeSeFwZRQd/c+I1qOkkJnBXVHHKA4vQ/at8m0BtVIu0ZWJKkAMnldWjCbx2oQuWu9NOafXTqzGFaNvgbsuNBHO9IvdZFG1w3V21FeEsJiSp6dWQQFZWBADk1G/8rtSlfmXpNW0MHTp2hA2uGUAVHCQE8+bVeR6+yCF0JWzuSggNZWDShbSZf9uSM+SJQpEE+RSGW7tyOJlMt7p8Sb7Sp26mVvZRKtNlE/2hAMCMEenVjK41s4k0KXkZFK/eiVWdjDPImvLlI0+oVJAknowqdN1HUP/dWkfGVwkQgxldNdiKQOuE2bf8lmCq6yYnjFOTfeCLtvXiGln/fgIooOQJnQR4VWtOYeX/QpfDkTBNTfhOBUmjvoBIkk5ek6aff5vEaGXRzUzB5ZwphW7DcKDofn98sgDKjWwBL9FY41YadNLKMeX14ILnLvWnyydSPXi3x1gYKDnQ2eFgGx5OrXxuas++xCasbIiHjCAV7WuiPtaH+23Iuf1GIpkNLZtDUKVNoStbP1Gm0YNc90hBRRsRyqudkRW3mPjRa/Kiil1ItKwkBHHk3WvY+NKo28RAFeynIwqourY0wrre0u3Opig1P4CQU2GsPZZZdEnYGkR2newtce+A2Cjdoigm0tbsn8QDxFgWo4bCd9CxTsxeFZzSvoRNx4Miz1jx6lunWeclH9iLQO97S6ra635VODWntvez6YCLt7OdDEoDsC/WgI0nGC1dBFUrD/B2o1ey7JheZ/xamxJeEE8WpqF5ksPTm6Gyar6GQ8LYUBReTUemhliatV7Ieu7KfPdlLMrVtvRVL++m29DjNL/tzs4hAGpU/jSyre9DilaAF9zyMznl1oBgVtgLNDitCWgr4qAiUHlGC6jnx1GCurZHYlRHtR7WsdOOSayMJPdOHdz8x1pWkUtPWSL/3dKDO2YhAvBWo13ongzQknfPSpY8H9dvjapYIpBH86cAIZ7LQjxeFG0roToafwe/ZiUAvDxUjDxnIua6EIkyEq78+pxApOBAnAQ3a+yE9GpU/TflWQZwUNPGccb5Tr/qQv95CL6sIdG+ZO9kpQAsfehqd92Spu84KggO1XuaQb0Sg/DDGvyOrCCSoLtPIstbEASRXVqdl94wFqtgD/cjdKpAW3NSNUTmLQFq6t6wZOSqq0/JHWa8l0JOljfV1ZENdlkXpvlWF0nB/JbmWGkPXsyRe+2YvdfVuk60IJLXypUHr7xmkIfmcLn0c70rf7/lQnsnHh1Lhd4KnohXtykOIcIO0fcJcpU3dRe1cpATw5F5hIO1+aLhuitkVTC4SEDgLKlZ1GIVEZJ4fBHq0tAlZciC5vBatynRvQXWehpRSEsCRTaH6tOCCoawXe2o0lbLUjUMORXrTiUxl8OrQQPKQcVS87iKD+U+Hhq7PqU0KDsRLPGnk3njD9K5rTXKAwNtQtT7bKDKTICmoLtDQUkoCeArosiOTQJH7tkJEpE1YRw2teQJ4civdh3Y/zqx+quj46NIkBcjGqQsdzGKF8iVEIFFzj5Z0KEHWNuVo6tE4ymqApU39k9o6S8m7+VpKyXWKsqZNSmV77MlxDMg7WnoVtoMmd61EzjKeHIrWo3FrLlOCSctGIm3iWfqhsiNxnJJqDNqXjQUkg2EezDE0g6FHSH2GC7uXYExQbfgWLYdOEzbiqW0jTNv8J+Z93wE1A2ug//yjuH3rIGb1rgztvb2YM7IDvvF2g2dALbTtOQbbrufC8fK/gCp8A+b//hSV+szH9zXNdUmcFQuUbDYQXaoWhMJCAg6EmBvz0a7eQOx9rPpH0/vPoUSd/t1RVskD0OLm78twJP5DzZAYj33r9oECuqJztRxCOeuxD+iOteeuYfeP7eFrq/fwQSJi7+/G2NYVUbvb//B3gqHPFKI0pKa9c3cpQNDk3DI4vhAaDxiF3i08cW/bXMycMQMzZszA/DU34dl8MAa38YMUWtzctAHnkgrB11fE0/BwhGf6RCVbw8WOB0CIuXQcV9IIgIBHWxbij/B0OJeqg+omHFRYluiB3g0LgCMBt35fgD/DP/hokFhZQSEBJBIftBnSDsUMfAnY4ZsqumhzFlwl9J3RBu6ZXMpwvCvKlCkECQhpL6Px6v1l85IPc+BhIdf5LnEt2wJNfbILzWOPJkOCUUbBI+nlXmz547mRY9Lks1uwP7oS2nbyzRdOzzNjU0OB7oEKcAAywgmr9ho6Yn55IBX7XmjQuZczLD/ij4az5tFrhTsuhxRFq1JS8PrDhWRgx7RkVK78ACsvvYFoxsjGyTn06+8CKw4Q04A1S2KRhsz9jrBtSRy4BlIE+Zs3Ht3alIQzSSL8fS3xNFyF8PCM95+oZA1c9E444y8JuJSqc/KrURFIC2z8KRZ3Uwy9Bjfs5ICiStM1altJgqndXGGRqcyUZS3gp+QBEYh5oTavHHgOjX4pgGn1rcADiP5LQK9JUfiY+1sSCJvnxeGZBvCvo0QhifESrVQPO9RzkoAEYPv813iq1Y07sXtTsOxSOhQlOLSpbOwfR+4vRwVn43yTlrBpbTxU7hyKi5xB+YaHZyDFCtB3RVw5nvLRvP97fPkxPjt4eQX0618TVhygTruITUvOID3T7yRGYeuSvbBpMBid/T8e+ZG0d7Fp7RnwRcrAQ4gyGCvDwyORYu2sr6MU3Dh+Tn+WBiqNiLgHm/DbqjCkZbqexK4+OrbzzSZqElC40kBM7OZn4N9GWbYs/JQSkPgGr14kv2/JYkoqMvT/8FIZ8hhgTM+nzVWcRAkrhQSABGXaDEYLH0PHN47fVEJJCx4Ah1r9ZqBp0cxlz8OtTADcpRy0YgxiXmQeN6T6fElQtuMUDKpq6BnGpdZ4TGhXBDyAN9EHsf+ULowGCZHYNG8Hnmmk8KtTFwWNsiNFQI/eqOckhShEYdf8TYjK5B7JwtICEg6wkFXFwB87wjNTJFpeXgaBpW3BQURKTAyS9U0zb20FgIUCFhIegAx1B/2I1l6Zw97KUS4wAAoOUL2Nwas3n8ONt4gnp+aiZ1AQgrJ8+v10CLFZuh4nLYpvG5SBnSoMc7q0x9IrWccmLTRagON5I39LJCbh0dVQXPk7DGFhOX/+vnQfsRqCNu0Vbn/kWN3nBq5eDMWDrAnOkraE8Ev4c9kkdK1TAl4VOmDeCQ6tJv+O46c2YmAdB7y8G4Zrl0Nx7sxJHDscgn27/8T2rRuxfvsNOH9bHi6SNJxbHox+sy8b9G0GIzfkH09/DMYXRJ1xG/Paj8Xkw88gQAJn7/oYM3sChveqDv5QX5RrvgHa4vUQPGwsvu/dGGNXNcagiSewfvFiLN9wEPfunEOYS3PMKGkNzdEvnRsdJD7H5vFz8bjoCOya1RDGrmHNQxW1B8O+G4Q7FZfg1v/U+KnLIGz4OwExYasR3CABSw5uRpeSlh+/0L+MZcke6NNgIYbsfYm3cSHYtOkxmo3wgQSA+tkf2HA4GdVmdkcJM6OvcxYeaDHhD9TtegQLJk7Eb9uvI1FLIDEJF7cMR8u7Edh0eA5qu+pWehxnCaVCv8omLd68ToAIm5wdc/NKFAnsgUl9NmD32DPQQgK/ZgPQLdAZUgAkxuLMmftQi2psGd0WB0yl3cEX/g6ARK6E6q0IsnqBA3suI504uBf2QGEToz7HO6F+/fKQ74qBKv0yTv4Vh5799U7EpdIcRBAeNrbW4ACIJEBrtO7hYWWtW4gL6alIJwLA5SkfsDFPiuH5nEWPd1j698bApkswYGcMji1Zhbs9ZiDgfTqScHhTCBR1p6O5R36TgHROiIP7OWPh5WdIEoGQFYmIaOeMYlIpSCBsX/cafDUJOpU27SzXFMUbWePPayVwaFEcJs2Jw63XBCIg4TZhaMPniNquxYzGTjk6JAYAr842aD1bis1Ptbi7NQP7J6ShY0GdK9mM6yqsOp2KjvsLwNWMeOUkEs6cSYFWBP4YHYejsnjjgxyAUg48ODmgThEAW6BsHSu4/C8OT0O0qBn4EMOmOGNoRxc4SHjYNlRippHb3xyQcrBVckASkJ5ijgSkg7PgMGJ9EYTVfIztT7S4vCANI8q+wqpubtmOAcILAftC00AcUMhTbtKhtMSZR72KCoQcSUHiZQGn4zLQvaAVQn5PRLwAuPlJ4SMz1ckBCwvj6wmxAs7dVUMDwqi2USYXhS5+PFwAWCnz13vDLz3GZ48E3p0HoPXs49j8VIWwrYsRMqEW2ulVgNTra7DqtDW+298OrmYUqSb2LM7dTcMb7MGItqdN1pGrnz9cATgqdeIFLy+NOtUKYdXDcGwZXgN3jg3DpGkj0LqcEyRQosUvs8wrlHdlI7WBrZIHkgjpKSnv+wFnaQk5D0AERHUGMkz7eDYLEj9xroIUkhxCqkpsbGHFAyCCYDxZQWJlDQUPkDYD6dm8eOBMzi8OaNy2Dhy3rke8GI/7f0dAaFEawosQ7AtNBHEWKOTpYXIelTrXQ72Ktgg5koCXlw/jbPxQdHXTH8nzkADZSMdS2NgpwQPQZqQhXZ/cvLQV/c2Q05AstbWDlQTIoOzL5lNJibmNC+ceGX1P6jfv8/cBS5Trsxa/x71Gi0knMaVDfxQ5vRGt3s/XAkRRJwIZXU/7ECv6NMBvYVlj3ubAjv4I3GHeoRzvhKF/RmFhG+N55vWREajReQUevkmH8D5PHLiXV7B2SgesmZLDdTkJZJZWsLaxho2nFwq8isD+qZ0wptgJLOpUlIX7ZuQaJgIxGADklgEYtXUztKM2Q9loEHq1LQcH/VxCjaZi0xInLFi0BguG1sfaefXQf+LPGB1cF0N/q4vBM57i9O6j0HzTE/4KDje+bFb0aHFnzVBMDy2H2X9NRSWbvEWn0cQexvAWwTgoG46QBW3gpQBWHvdAsc6dMONoFN5E7sKoDpNQ7PxcVLX94gFuDeD4gujQvzV+DFmOF9o0nF29GjcHzUZ5Cy1ubtqMG7JGWNe5WK4nTivPRpi4uR66D1iBiSOnY+vVOAgk4vmNhRg1pjqOr28DewCctBiKFrYEotQABEQ9eAgtPHOMHqJDgoIFnfXp4uHoVuB9GkkbjvDnKkgkpTB6VyiG+X98CBczwnDjrm7RLpHJsnmE5+FcqgQKSg4iUqvGs8cREKBbWHMfjZ/9EUuTd38QvX9wyEs+zMbMZsjxBdB+SAfM2rcQEbfWYu3BEZjXShcxShMbgq2HNGi0qiVyjiH15SjSzgatZ0ixIVKLhPMCNl5JxtSqjlDfVWPz2VQ0Xu0IDzOElsxwlhyajnFF/SBHLJv0Aj9uSEaioLMK+q3fK1T72wpNnHKOBMjZSzCwpxO2T38FTSKwfFUc2k5RQgoOIUtfI6Ychz41zQxxqwXCn6tBEuD7ne4YGWBn1mlOza2wbKQzev0Wj8QHhBnd4rB0VjwGjXfB8I7OsDMdLiZbpPpiFITcPfxIC0nxvw2euN80HDeSCVuGvkZpPwW+r2A6HxlhKtxL1z3ySWWmGzLHcyhZ0hL8kRQIauBJhArkqETo9XQQACs7PlcLO/UTDZ6rCYqyPHaH+qKE9L+zLPzSY3xOSOybYGDPctg+/RJSEw9hzarbaD2lLKR4g5Clm5FSrh+CzbTOVT8Jx3O1iAJlB2Jf6CT4mlVF9mjz8xIMud8D/7sYixt7f0KHkGWo2HIgxk0ZhdZlHXJZLpJM/eCD0iMvUgRuUg4xWoJGfIWYaAGwy1sbIvWnzVUA99HhP8fp7MNkBcqlzmFdtgx85BziM0QkxsZBAJAedgP30gUA0hz6syNKlnQDfyQBanUkIiK0wDsR6CNz7/sXHqKId5JW3toK8NGy43XyP0GEaJ5BXC7hUbbzBpxd1sBojZRyfgzK11lo4hxrVBu7Cf97UAfBG3/HiK7+KHZ4PMpYcYBGC61IJkUgTuqB5qPmwkdtCUvZB+tXY0REHvgJM3ZEgJMIsC7WAZMmNoNLTh2HBKjTtShW2vRKz6F2BzQovA6xNt7w8y0G98JuKODsBAd7O9jZ2sDKygpKpQIW/FXMDf4VMZWmY9fa7nC3s4O9gy0UmUzt4s5NQaPms/DX2v140m4ofP47Qzcjn8CEQwZDD29fE5PXrMSoDh8EIADgLD1Qv98c7A97iHObxqGy9ArmDgjC4gs6A2/eyhN1uvVFQ+/8MwLHnZ2G4JmvMfz3dehSIq9BJROxZ8JQrL4tQ7NRQ1FG/+wndaiKiTv345dmHpBwhJd3lmLWsnv4LOuCT8ShXh90K20NDoTYB5ux4WACxIxQrNtyEz5teqKhc86LLNWT87gUZerVphRFqg/GhrOXsLF/BSg5ACTg7p/LsO+5riQ4STFUq+qhfyAT8OzSOTzRmLiUCSRS6fv1Hy+VZlqbpiI1TYAgxuLlC/MuRtokJL4VABDUqanI7iyZiyscpLo7icJnrs085ONzYFdjAHp9aw8IL7B38Wa9Kb6IyF1bcc22DTo0yKv93OeHs+HRt7sTZBxAGmDr8ngkQcS5dW9wzwXo3tIxx/NJSzh3/i0EE7Yt8oJSDF/jgQvbPeCvF5A1zwmrtr82aztUxd4OqO2giytzaU0qTiWroInUYNmeJDQd7AAvqZniFEG3pVIEXsSY3044nkOL2W64fLgoulSWQQYg/hZhRtdYBDZ5iPOxGWZfK2t6cot9NQU2zC0EFwkgvAGmdY3GX9ncX/NGRLKou09aavZ90NX1wwOyIABQE16+1h2vUVOukklphDQiqGMJr7SfY5vH5+VLjvE5I0Vg776o7SABSIVLaxbjTDJBFbkVy/akotHgYBQ3c8kgpqUijQjpsdF4pTW/dmVujTH/5BXsmxOMim4WIG0Cruz6CR2qlEXHH0/hda6q+0M5UiaFRF68Isq56dYYgvAI927mwroiC/lyrjITqYsLHGS6rWY8rxNUtElv9P1ZhbRUdXZnwtXVQV+6IsRcCs1ZyWtb+a/C8YXQacEqDCpnjcjz09F/+F7EigAELbQAeFMiEF8AtYMGon/vnujR3Xj72btPty5VIEbHwqpwJ4wIKo634RfwzK4xumZzfFBQEIK6B6N3/z6om83zAG9RFb9ceI5XT2/i3F978fv6ZZg++nuMnTQWI4YNQr/ePdCtcwd816wMXGQc5EpXeHt7oqCLLeLPzsfUxaF4txvPpfokbN5zGEf2MgGIkTeYCMRgZAOJ8dg2pAHaDJyLAzdfQ5Q4oUrXn3Ew7Dr2b1+Dwd/m/Eb8S5FydyWC+xxG0xU7MOJbM9+4m0Ad8ydW/hkBmbwiatR1MviNtyqDERs3YEAZG3CUgRsHDiL6E8zAPxe8vDx69dX5ZiAhBiHLf8fNg+uwO6IYvutT76ObQtIuLcfyg3HZevLgLIqh8+LNmFjbCRwAVfpt3Lzxzk+SHFU7tIS3hW6Yjbu9FyG3PlHw4JRQWHIgIQZ/X3gEc4qck1rBRr+NIy36KZ5llwSJRC9Y8XAtXPjz+sHJQz4+SzIkPug5uDmcJYSoM8uw6XIGSHiM7VsvomSHbghUmGlW9IUI7GWP6na6uo3Yo8aft1OwfkciynRRoLr1R2zO1IQlc1/itZD9k6BPW1tsmlYQVrpXwLh7LR3ZPcpkRuouxcD2DvptOYRlW+IRujIRV10IA9t8fEvZezhAYckDAnD1Qgq0uVRhitW3xsZLJXBttwfaBEjBA4g4qkXn7hGI0P57ra5UH3ss768T7FIfEvr3fooojfH9pda8TmwAEB2pzja/Euk7hRgoXNhwr1PycwGJOdRpVjglB0sA6hjCpYfpHz0+v/Flx/ickbt3wMD2XpAASHz2J1ZveYwLK1fjnktn9G7javYCnFcqYAkgOeYyrj7KXbvlLDzQ9Id1uPwwDNtndoCfvQSi6hl2Tm2Hocsf5upaJtNm8S1aNNTNFyS+xaUjp5BXGShfzlXmwkkh4TkAHBzddFs+pVbW+v4s4kVkZLbznEQvikt4N7gVNnPvYjZ8Slv5ryKxr4kZK0ahopsfAqt5wZoHBI0WgghwJvyqmUvCiSVYfykFJVsFY/ykH1DTPgYbRozCwRefJjwqbazft1nV083oXskXlZuOx947ydmeowpfhV4dx2HG8IZo2msdHqQAgBylatdF0fz5KML4D8BEIAYjG7SJl3Au9CZCVoxBywrFUa7BQCwNeYA0y+Jo3KYanPJh78kI34a+nZbB96edmNqkwCd1cNWje3icKkCmcISjCYMIiUNtTBjbFHa87q3Ty0983IKA7AAAHCtJREFUg/V54OHdqQ+aF5YDIEScnI+eU3fBIrA7OlT4uIUUQYMbZ87l6HiPk5ZEcHBt/WLP8C28VaWB+L6ZzlRdq7mNbYtDkPQJueGkReHloQAHLa5tW4urKdmVeSqOTJ2IkDcETlYaAb5KcAASH19FWLzpBQyl6fwK8NLiqPBt4c86OeQlH58HHm4tB6NrKSsImgfYvmgPosO24c8wH7TpViHHbTUkRGHX4jW4Yaaz2M+B1FOGvq3swAMQ3wK/dn+O/QladA12htwMoSXjuhaXU3MWJgN62KGWnW7JSrnYI9FosCNKK3RBt4/OS8LoNXGo0d8WgYpcPORIAS8PndXL1a2puJySvQT119RY7H+jEzFUbwVkZOqJpVrZ4o9LvljWxQ4yDnhxXLd97t+C4zm0nFsAE2oqwAN4dkiLxaeNBRfL0nL46v32PLmagYRsxJy0VN33iuIcKhW2BOQcCrvo6ij5loDQN+ZIdTrkRWXwsOABLbB9bTxSsxGeKFXElAnPjL//4v3gy47xOWODxoN7oLSCBygZ++cHYfSaJ6jRfyAq5kJglhf1goeFBFrtTexacz7btIqppzB1wjvHJWq8ffvB4oy3KYH2k7bjUuhatPNRAOJrHF+yxuw0ZI8VGg/sgQAFD0DAg70rsfdpbtpCBm4ePoInGuTLucr45qa/FhLjkaQRwUkKoFSForpgCaUD4Guhc1weefUKEkx2Z0Jaqm4scPD6BoGFPk3Syltb+e9jV2kiTty7gMU9S+uEX0ELAZxJx9DmIKZexOwJm/BSUR09h9SCffFemDu5LsSoLRjVYyHu5N3g7cM9VHexsP9YhDxLRvS9cziw/woSs1GjLYr3xZaQRegUIMOljX3RqP4oHHn65ayoGf8/yIePsQxG/kDm1AxLrj3F49CtmBxUHkkXV2JIi9Lwq9ABP26+gvh89pIlI3IH+rWbBedxOzG3nafJt2NJYf/D2F+vmGV5IXVyhr2EgyY9Hq+TTM9MDqVKoYiMg6VzQRTIwSHjl0Ti0BT9upSEFICgeYywuxzq9OqKomaZz4p4+td2HH2V86LWyt4Olhwgt/CDf8CHBw+Od0fw3BloVEgGQMDNbZMw/9SbPOeF4wuiTu2SkHKEuIcrMW78IcSZqJqU28sw/6It/Kw5cJKiaNGyPOQckJEWisMHYky+9c6IjMQLDVAgoB1aBeZ1C+Hny0dWiHK37SU7eItA9B9QE1aciPv752PUj1uRWiUIrT/iTCHj9kbMHNcfDap2wdorea/TT6V5fyd4y3Viy6O/RdjUk6KDt5VZ54pJwI59iTlu8eKseNhZcgAH+JZVGPlrIDItDsn95RjQROcIPf0xIYwn9OvhbOzsONOpWS/D8Rzq1LaFlAMyHhFGjX+OWBPbP9JuqzD3YiJKWusEpkuzX2PpTUORh1Py6LmoEFoUkAAi8Dz6n1tA07ug4jnAKXmM2+CBlh4ScASoTdxeWlSK5vqob69DBRx5aXrbWESECiIHlGunRDkLKTgLDjWq6CKRCQnAytVxOVpNidoPyZUUlKCmvxwcAWEr0zHjULzJ9nBjaSJu2hl/nx/6wZcc43VQtv3A0r8XBjQpAB6ElEeX8Ihvjp49fIzn50znZr2OrGBt1PRXgiMtLq4chp8OvTQxhqtwfels3LcL0OVKfR0/D/oND7K0M1u/7lj443dw5IH0GGNRLy8oyg3FT/0CIOOAtDdHMHvUFjw3a30k4PGuSVj7uDA8ZciXc5UhBI1KZbJnpYTdwgOVCAf3pmhSXRcow6JoczQPtAUHQnToPhyLMdXG1IiMiIHIyVC2bUeU+cTs5KWt/HNQnrbM/jNIYGOXad7TaCGAwOfSLx4AkPgSO0f1xaLrAuqMnI0eflIAcpQfsgoLungj4vg4dOqyBHc/IVgiCU+xeUA7TDoai2K1Z+Lo9TNYNa4eHLJ9KufhWmkgtpw9gQWdSyD28nx0qNEKi8+9/kjMSQYje5gIxGDkiCU8qnTG9HWn8OjRBawY3QxWkbsxpXtV+Ae0wYrLn898ngRBFz2ABIhizjNr2pOt6NlkGCIq9kUtRRj2796N3e8/O7F9yxrMndAVdRovhkVggFmOQy1LNEezsrZQq6/i+EFTCwkg6dFjvNAqUKFVc7jn2z3JFqjapwcqW+sWA3ZuLdHpu4JmD36pr/dh7qQDJkUK/REIPXkZSSIP3xZ90SJLNCmL4sFYu3k0yjtIoFXdxcLgPth6L48+SSBF6R790dBVBlA6Ti/thBZB83E28t1rqQxEnJqPbu2XomhwEIpJAUCCgF4/oFNxS3CUjGNLlyLMKNRGGi4cv4hkzg0txwxEqUzGGqTV6uvedDv88MAigkyU0Xtn0KKQyW9UXvIBADwUSl0A74zYGLzU6O4bfy8MUenv7vMu3ZpsfUoYIoFPl4Fo7WEBTdpl7Ngbj1pBbU2E8zVEUXYc/tg8CIVjd2Jgw3oY+2f4F9nWpqhsgR7f6oQDSIAWvRzMirwFACDCrhkJOJqN2AAAby+m4/JrAdICQM+OWbZyEZCWISI9TTQaHzieQ/shzvCQAuCAct2VaOxkHEWQ0kSk6dtQRqqx/BDQww4NXSW6EOVL09G0+xOcjvzwfvvpqVQEtY+Ae7Adir/zNaQFNi+LQ3KWVHG2PLwLSgEJULz4h6etd7oSCWRynKMsxxkgElIyCKk5+PB5h8xThuXrPeFvlY2TWAmH3mNdUUQGiMnAiiWxBhZNgK68ToSmQOIGjBhUAO88hrXo54hiejHw5E/JmHoo3sDfU9ItFe7orXVSU4T3+eSkHHoMcoEjD1A6sKDjK/SZH41nqbrWTBmEY/Pi0WXpS3Tv7myU5vzRD77sGE+Uqu8HxnZUHO+GDkPa6/uBDBW6D0ZDJ+P6F9PS9P2AoEo1vA4nLYkegxrBkQe06bcwt2N99J9/HM/13YAynuPovCAELbVFl+6+789LD9uM9ScTje5l5+0NNxkHaw8vg+8FveUZCcb9ObMFlLEfHns0+WkNJtYuAJ4E3Nw1CB37b8ajHK0lUnFjwwCM3F8GIwe8W5N82lwFaCHo5yhRNCFl0geHzyTmMFlBhGCyEYuIf/IYxhHSE3H4j78QT3aoM2w4auhfWnCSEugztiOKyDikJx/DuiVXkHUjoZh2EcdD42Ht1gaDB5UzXJvp64FIgGgive/zInyYW/PaVgABuuoniKKJ+n8/zwtG4yCvUMCSAwQxFjEvdAWnTbiHWxFfbnupKOi2g5nyCZQTpI3CH9+3RK9V91C80SwsGF8F72YKTuKB7it2YFaLwniwfxia1B2OA49zn0dSPcLGAa0xYMMDFKw0Fhv/HIdAB/NeovJ25TBk01kc+LkJlC8PY2STmhi+/g7+ext5GfkCYjC+Yt4c6EeuEhk1nn6TNGaeo3p5kZYNr09+ZQbR6UQxy69a+vuX6mQpK0Nzr6s/KW1JJ4aRhxQEzoq6r47N/rjbq6hVcQXplv85f1x8R9DljA9p1iacp9lBdahixbo0dNk1o2vHnZlI5Wx5si3cijbcSjEsh+j91Lu0LRWrNpP+TslaDvkLUYijdR3diYeUqn9/mlRmnvd6S3uSAwTehqp2X0pXYrLWaQbd+6M/lVBIyLVkXzr4XJvNlQSKvbSYvitlTzw4UrpWpTFrL1O8icPVr2/TtiGBJONA4BTUZu4DMjxMS/e3dCNPC+59vXJSK3L18KKibrYk5WRUvvMWijY4SaCXJydQOTsJgVNSrSEH6JXw4de40OlUyd6Kvu27i15mOS9qTWtSciBe4knj/0rLklot3f61NkkBksoCaeGdrL0onUKGlCAJQArrlrQjXjQ4N/f50FDotMokBYiXFKTGQ3+mn8Z2pjotZtN9NZEoRNNvDRyIA8japTX9kW19ZEVDodOqkIwD2RfqQUeSzG3PAr089zPVdJORRF6Meq24SRlmnmkuWgr46OfZNk9y4kGWPhydT/c16xxNailqZsMTAHII4GjFBXfKIH+DY96Gl6Ae/jLiFaAhu1xJneX3jCg/qmfPk0tDCT3XljS+h9afplVTkMQGtCK8qMl0XP+loK6tA2Rdkafbaj+jY+5vKZKlnYBcPDgq6saRlAP5dpbT00z3PzHWlaQyUPt5dhQrlHr/fdINHwq05qhwEyk91uiO1wj+NKuOFQEgpT9HV9QlDO6tji9JTR0kBID8+ltQapYySDrvRb5yjvz6WVBSlt+y+1xdVIgceVDAEEuj62kEfzo83oWseRCvBI0MKWBQ7ienFSAbJWjIbsP60Aj+dGCkMyn1ZcnJQdWDLGjOImeaNtSW/AN48nPQlaF1WY7+PF+EToUVJTX5k0brT2u62r2vBwAktQJ5eHFUwAbEyUA9tzq/v9+X6Acf40uO8aqoFVTPXkpeDZdmGT/1adPepWnV7MnSph6tCze10tDQ9V+qvy//QhWn03111mtE0JquvpnqiCOZlQt5eBWjAjZSksg8aeDWSHo3rAuqUBruryQ7j1a0/EIcfRju0+nizBqkkDhT1+WPPlxfeEqz6tgTAHILGEc3stxfG79R3w8kVKn/EZPlq359nmY2K6afu3hy9m1KYxbtoeuRSe/nMG3qC7p2cDmNaB1INTqtoHspWa+S17mKSPVqLTW006Wx8oCjRmlMf/wrVbHkCJBR05m3KWtVJZ0YSkWkIHDW1HNd3IcUqS7R9wFKAkASuQ+N2PUs07kCRe4dQN5yGfk3X0aPsjR8UXhNh8d/Q9Y8SKosQxNCXmSqizd0aloNslOWpB92R2f6nohISzdm1SApQBJZWaP1pEivaeV3BYgDyMGjH51O+zBn5batEBGl359NgfqyaTD5mtF6OHpjO7LhQJzEg8YeSTX4Le3v6VTagiNwEvKqNZR++WUsdajRgpbeMm8NrIldRfWspeRRbQD9MmcOzcny+WlYPXKRyKnd/MgsZZQ9uvxIqFzwXrPHoreP99Lo+h4k4yTkXftHumK0vtchpN+jVT3LkBXHkdw+gHrPPUbR6ebdIyP6KI2r505STkLFa06lUFOLQCLSvt1ETW14Kt5oOSWYPCKdbmzoQd5KnniJC7WYfILizS0cBkMPE4EYXzU6EUhK/i0n0cJFi2hRLj4LFiww8f1CmtDGmyzyLAJp6f7+32jCiF5Uy8tKL+xwpHStSJ0Gj6VftoYZHv1mH3XztDRLAAKkVGv0ecqcqrfnRpOXjCOAo4LlJptIj0DPTs6iliXtSW7jTQ2DhtPEKZNoRO8WVLpwIarRYwndSMjfAtA7Ek9+T8WVgbTgpvn18npLRypa8TsK7tKcqpRwJoVVEareOpiGjplEk8YNpo51fclW7kxVO82lUFOr/ywIqRF0YOEQalTGjeQcTw6eVei7XsNp/JRJ9MPgXtS+WVXysJWS3NaTarQeTssOPiSjNTIREano/s4xVMPdUPzjpY5Us/d6ephVq9HdnZ6fnUdtAxxJwsmpaOV2NHTcJBrVqyGV8gqkXr8cM1hUZzw9THPH9aRvClm8b4fOJZrR0Inz6Fi4ml6eW0MTh7Wj0voHZIAntzKtafjk5XThZQY9CJlPY/rUJ0+lTmgAJ6NiVYNo4oKjFKPNez4yHq+hpoUzpcmnA226nULXtk2jQe0rkqOEe7/wdfCqTwMmbqa7ZlS5KnotNXKyoG8GH8v1A2zC1QVUr5CMeJk79Vh+2+wHUHMwV9DpX0JGNWdYGwk5OZ3TooiE2vZUUJOqUnK0BHlW4Sl4iBVNmGxPA7ooqbgdRwXK8TT/dGEDwSH8eDGaOt6eGvtJiAcIPKh0CxmNn2FPx54WN7hP1FZPCuxpQa/pgxij0frT7gUF6Ife1uSp/CDugAN515XQ6Kl2tOeeoWh0b6cH1XDnDdoJJwVV7m1Bd9MMhZsTY11Jqr+eWzmegodZ0fjvbamCG0clW8vofLwPaSmAbu72oMHtFeQo0V+TBwU0k9KERU4UleJHG2Y6U3At+fuHKd4a1HKQkjZd8aC/dxahSaPsqIo+TZwMVLWznCb/6EBXknMW4jSCP23t7UBlTYhA734/Ns+N/Ow54uSgqu3kNHaSHfVoaEHegTzNPVaIVKbO0/rT3qku5G4JgzJ1q8zTjjtFqU9xGYEDOfpwFDTOhg7e/VDGGpU/bR3tRAUtDecNmSNowHonSsl0vy/RD8zh3x3jBYo8vpymjR9Ijf3siAeI4+2ofIuBNGnG/+jUU43BsVFbu1CNnrsoKdO3ojac9iyYTqN7ZxonAQKnJL+6vWjs1LkUcu9DXkRVOG0bXY8KWWbqM+DI0rE8DV9/x2DceicCASBe5kqVm/eg4eMn0tDOlamAnQ8FzTlLiQIRkYZu7f6ZBmcaOznelso1G0BTF/1F0Sk3aOPMcRRcq8j7fiC19qU2gybT9ivGs5OojaOza36gJgEuH0QITkKWNg7k6GBLllIZFfBrQhPWXaE32T605m6uErVPad/8cRRUvbBBGlsPmkBLQsJJFX+Olk8ZTq3LOenGK4Dk9qWp/eBJtO7US0oNP0hzx/el2sU/rLmsClWlXqMX0Oln2kwikISK1WhJ3xRxp2/bDqLxUybS4M5VqZCVC9Xqs9aEoKVPn/CKjs/rTH72UuLlBal6u8E0btJo6tHQn0oEdqIFx6INBKn0B3vppx+6UgUXqT49PLmV/Y5GTFlCZ6PT6OrvP9IPvWtTQbm+HXBWVLrJQJqx+vz79mVuWxE1D2jHrNHUsVIBknDvyqYMdRw2mVYfj6a3Ydtp2tg+VM39w5zr5NuEhk5eTVf0az9R+5j+18aTpPrzJUpv6rPyFpnbC3UiEG8w7hh/ZNTm1ydmi0BvL02gEnIJBXTZ8dH5PCXqLC37oTl52UgInDVVCVpN997mfI4oJNC5Jd2ohK2EAI7sPWvTkNl/0N/ZqkGJFLqyH5V3lhHHKSiw0wq6m8M9VDHLqY4yJxGIiEhLD3f0I1+llDwqjqLjMea+9GIwdHBEufD0yGD8PyMppB98W63GW7tCKGD7aVEZ3qFOjsGr5OKYce5vTKjyb+5XzwspuHNkO47e5RHYqhNqFDcdZoCERNy/cALnwyLxOo2DnZs3KtWqi4qe1v9yevMOCZE4vOMpKnaoBVczLYQz7hzCOXkD1PeRAhCQFHkd50LD8Dg6HmmiBRwL+qBSzdoo52mdy721IpKjbuLS1Vt48uwVklLVEKUK2Dm5oahvaVSqFAAX450zxnnKeIGLR4/iysNYCFbuqFC7MaqXdMw5Wor4Fg/PH8XZm5F4o7WDu3cAqtX5Bu4fC6PzGcltPtJfXMTuXaFIdiiHJq3rwNM8Fzg5on62Ak3KL0GDg9cwrnLux4L40Jlo3nw6bomNsOrWPnRx/2di1ggobdZxT46kIKaMBNULmhcqhLSEw38loWETO0jAQftWxLVzKbj5KB0JqQIs7Xn4VFSiVqA1rHJpUv+5oAzC5aPJuPwwDYIVh7K1bVCzpNLIz9Cz06mI9pHALZZwPSwVT1+qobXkUKqaNRoEWpvlNPtzQ6kirjxKR2A5ZbbR0oS3Is4dTcLtSBVEOw7eAQrU+sYGyo+kPyVKgyNHkxCRpEGh0pZoVt8OtsTh4MrXSC8jQ9NqttleIy1ag6NHk/AkTg1rdxnqNLaDr6OhJygJbmV778/VD8whf43xn4+06Cs4cvQinsRpYONeBnWb1IGPQ5YtauILnDoQAb/q7oi5cR0370fgVZIGygJ+qNG4McoV+txrEzVe3buEC1fvIPLlG2SQBexcisC/4rf4pkwhmHX3fDJXierLGFWxDhbcVqPGqJM4PMEZZw+fxO3nKZA7FENg3Yao4mX70fahfRuOc0dP43bka4h2heFbuipqVSmKzxncyZy28k9A6hic370LV+PtEdi4Nap7mT8pq1+uQCOvoUhqvwUhc2sbuStIC52Mam3XosToczjyc+WPujN4+/QY5vTtiV+OvULdiRdxcGbWIA8i3kbfxKkjB7B/7y7sPXIDsSpA4VwRA2avwvRe5WBjZtqT7u/EzJFjseTwE2QQwMud4V+tDurWaoqggUGo6PqhrJMe7cT4vrOQ2mI+5o2oniW4jIB7W0ZjxpFkWMvSEHHpKE7dTYBv2824vKMLsl9paxEReh7a0rXg899ZjjPyCUwEYnzVJO3rDa82m1Bp8hXsn1bWLF85OaPGmQlVUH92DIbsDse8ll/wyZrBYJiJgJu/NUCrHfVx9NwE+ORpIBDwaNsoLE3uhzn9S+GfkZTNF4EYjH+LnESgz9UPGIwvRVYR6Piv1Vm7/gdRRcxH7VKjkdp2O65sbmskEKbf3oof11yBIrA3xnU19mmpiliDbt8txCNwUCW/RNTTOKQJgItvL2w4uQJNskRcE9Ou4ZdWLTDlmM7xOG9ZGPW7j8fMaf1QuWBeajYVd/cvxswZC7Hz2ktoIEPFLhuwd31nFM7FWiL95kx8U3kqbqoI4Hg4+7TG7N83olf5f+AtF4NhgnzrypXB+DcQUlORToTkhMR/KKgBD4fKQZgyXQV/j/zy3pDBYOSEqL6BzVtuo0qvNfDK86wogU/nBZj/TyaMwfjPwfoBg8EwH96qEnpOmYZUb1+T1r+KgC74aX6XbM+XezZDjYLjsPNQPMDJ4exVFd991wcjR3dHeWfjK/LKihizaTHuNZmK5Kp9MHxkH9Tz/hQzGiuUajEO21oMwd1D67B8Rzy+m9MhVwIQAFj6d8TkHzk8kRWEb9mqqF29FBzYUzrjM8IsgRhfN6IArZYAiRTSf89qncFg5BtEPNrYGQ2nWmPltdVo4PjltwplhlkCMfIbOVsCMRj/vxDVlzCqYl2dJdDIkzj+G7MEyl+IiLt/EQ+TbeHu5Y0iTpb5Zusmg5GfYRoj4+uGl0Aq//hhDAbj/wdC0llM6zIYG+9oUaxCdVQsHIeD2++j3eoTqJfPBCAGg8FgfGEoHWkZIgBCRmraP2Q1zvjn4OHi9y1cvnQyGIz/GEwEYjAYDMZXg5Aagb+v3kdUrAZRUQ9w26sRRq4+hDEtC7K3hwwGg8HQIaQi9nkkbh1djxNRagCER3+twcaThdEwoCjcXazYnMFgMP6zsO1gDAaDwfiqSHt2CUdOPQQVLIPqNcvClVkDMhgMBiMTYtJN7P7jPGK1xr9ZFK6Bzi0DPmtkLwaDwficMBGIwWAwGAwGg8FgMBgMBuMrgFkyMhgMBoPBYDAYDAaDwWB8BTARiMFgMBgMBoPBYDAYDAbjK4CJQAwGg8FgMBgMBoPBYDAYXwFMBGIwGAwGg8FgMBgMBoPB+ApgIhCDwWAwGAwGg8FgMBgMxlcAE4EYDAaDwWAwGAwGg8FgML4CmAjEYDAYDAaDwWAwGAwGg/EVwEQgBoPBYDAYDAaDwWAwGIyvACYCMRgMBoPBYDAYDAaDwWB8BTARiMFgMBgMBoPBYDAYDAbjK4CJQAwGg8FgMBgMBoPBYDAYXwFMBGIwGAwGg8FgMBgMBoPB+ApgIhCDwWAwGAwGg8FgMBgMxlcAE4EYDAaDwWAwGAwGg8FgML4CmAjEYDAYDAaDwWAwGAwGg/EVwEQgBoPBYDAYDAaDwWAwGIyvACYCMRgMBoPBYDAYDAaDwWB8BTARiMFgMBgMBoPBYDAYDAbjK+D/ADAfNbWuQLPSAAAAAElFTkSuQmCC;" vertex="1" parent="1">
                    <mxGeometry x="760" width="494.73" height="360" as="geometry"/>
                </mxCell>
                <mxCell id="113" value="" style="edgeStyle=orthogonalEdgeStyle;html=1;startArrow=block;startFill=1;endArrow=none;endFill=0;" edge="1" parent="1" source="38" target="109">
                    <mxGeometry relative="1" as="geometry">
                        <Array as="points">
                            <mxPoint x="760" y="1080"/>
                            <mxPoint x="480" y="1080"/>
                        </Array>
                    </mxGeometry>
                </mxCell>
                <mxCell id="118" value="" style="edgeStyle=orthogonalEdgeStyle;html=1;startArrow=block;startFill=1;endArrow=none;endFill=0;" edge="1" parent="1" source="38" target="114">
                    <mxGeometry relative="1" as="geometry">
                        <Array as="points">
                            <mxPoint x="760" y="1080"/>
                            <mxPoint x="680" y="1080"/>
                        </Array>
                    </mxGeometry>
                </mxCell>
                <mxCell id="123" value="" style="edgeStyle=orthogonalEdgeStyle;html=1;startArrow=block;startFill=1;endArrow=none;endFill=0;" edge="1" parent="1" source="38" target="119">
                    <mxGeometry relative="1" as="geometry">
                        <Array as="points">
                            <mxPoint x="760" y="1080"/>
                            <mxPoint x="880" y="1080"/>
                        </Array>
                    </mxGeometry>
                </mxCell>
                <mxCell id="128" value="" style="edgeStyle=orthogonalEdgeStyle;html=1;startArrow=block;startFill=1;endArrow=none;endFill=0;" edge="1" parent="1" source="38" target="124">
                    <mxGeometry relative="1" as="geometry">
                        <Array as="points">
                            <mxPoint x="760" y="1080"/>
                            <mxPoint x="1080" y="1080"/>
                        </Array>
                    </mxGeometry>
                </mxCell>
                <mxCell id="133" value="" style="edgeStyle=orthogonalEdgeStyle;html=1;startArrow=block;startFill=1;endArrow=none;endFill=0;" edge="1" parent="1" source="38" target="129">
                    <mxGeometry relative="1" as="geometry"/>
                </mxCell>
                <mxCell id="38" value="Texture" style="swimlane;fontStyle=1;align=center;verticalAlign=top;childLayout=stackLayout;horizontal=1;startSize=26;horizontalStack=0;resizeParent=1;resizeParentMax=0;resizeLast=0;collapsible=1;marginBottom=0;" vertex="1" parent="1">
                    <mxGeometry x="680" y="950" width="160" height="86" as="geometry">
                        <mxRectangle x="680" y="799" width="80" height="26" as="alternateBounds"/>
                    </mxGeometry>
                </mxCell>
                <mxCell id="39" value="+ field: type" style="text;strokeColor=none;fillColor=none;align=left;verticalAlign=top;spacingLeft=4;spacingRight=4;overflow=hidden;rotatable=0;points=[[0,0.5],[1,0.5]];portConstraint=eastwest;" vertex="1" parent="38">
                    <mxGeometry y="26" width="160" height="26" as="geometry"/>
                </mxCell>
                <mxCell id="40" value="" style="line;strokeWidth=1;fillColor=none;align=left;verticalAlign=middle;spacingTop=-1;spacingLeft=3;spacingRight=3;rotatable=0;labelPosition=right;points=[];portConstraint=eastwest;" vertex="1" parent="38">
                    <mxGeometry y="52" width="160" height="8" as="geometry"/>
                </mxCell>
                <mxCell id="41" value="+ method(type): type" style="text;strokeColor=none;fillColor=none;align=left;verticalAlign=top;spacingLeft=4;spacingRight=4;overflow=hidden;rotatable=0;points=[[0,0.5],[1,0.5]];portConstraint=eastwest;" vertex="1" parent="38">
                    <mxGeometry y="60" width="160" height="26" as="geometry"/>
                </mxCell>
                <mxCell id="43" value="RenderTarget" style="swimlane;fontStyle=1;align=center;verticalAlign=top;childLayout=stackLayout;horizontal=1;startSize=26;horizontalStack=0;resizeParent=1;resizeParentMax=0;resizeLast=0;collapsible=1;marginBottom=0;" vertex="1" parent="1">
                    <mxGeometry x="480" y="799" width="160" height="86" as="geometry">
                        <mxRectangle x="480" y="799" width="104" height="26" as="alternateBounds"/>
                    </mxGeometry>
                </mxCell>
                <mxCell id="44" value="+ field: type" style="text;strokeColor=none;fillColor=none;align=left;verticalAlign=top;spacingLeft=4;spacingRight=4;overflow=hidden;rotatable=0;points=[[0,0.5],[1,0.5]];portConstraint=eastwest;" vertex="1" parent="43">
                    <mxGeometry y="26" width="160" height="26" as="geometry"/>
                </mxCell>
                <mxCell id="45" value="" style="line;strokeWidth=1;fillColor=none;align=left;verticalAlign=middle;spacingTop=-1;spacingLeft=3;spacingRight=3;rotatable=0;labelPosition=right;points=[];portConstraint=eastwest;" vertex="1" parent="43">
                    <mxGeometry y="52" width="160" height="8" as="geometry"/>
                </mxCell>
                <mxCell id="46" value="+ method(type): type" style="text;strokeColor=none;fillColor=none;align=left;verticalAlign=top;spacingLeft=4;spacingRight=4;overflow=hidden;rotatable=0;points=[[0,0.5],[1,0.5]];portConstraint=eastwest;" vertex="1" parent="43">
                    <mxGeometry y="60" width="160" height="26" as="geometry"/>
                </mxCell>
                <mxCell id="48" value="SamplerState" style="swimlane;fontStyle=1;align=center;verticalAlign=top;childLayout=stackLayout;horizontal=1;startSize=26;horizontalStack=0;resizeParent=1;resizeParentMax=0;resizeLast=0;collapsible=1;marginBottom=0;" vertex="1" parent="1">
                    <mxGeometry x="880" y="799" width="160" height="86" as="geometry">
                        <mxRectangle x="880" y="799" width="104" height="26" as="alternateBounds"/>
                    </mxGeometry>
                </mxCell>
                <mxCell id="49" value="+ field: type" style="text;strokeColor=none;fillColor=none;align=left;verticalAlign=top;spacingLeft=4;spacingRight=4;overflow=hidden;rotatable=0;points=[[0,0.5],[1,0.5]];portConstraint=eastwest;" vertex="1" parent="48">
                    <mxGeometry y="26" width="160" height="26" as="geometry"/>
                </mxCell>
                <mxCell id="50" value="" style="line;strokeWidth=1;fillColor=none;align=left;verticalAlign=middle;spacingTop=-1;spacingLeft=3;spacingRight=3;rotatable=0;labelPosition=right;points=[];portConstraint=eastwest;" vertex="1" parent="48">
                    <mxGeometry y="52" width="160" height="8" as="geometry"/>
                </mxCell>
                <mxCell id="51" value="+ method(type): type" style="text;strokeColor=none;fillColor=none;align=left;verticalAlign=top;spacingLeft=4;spacingRight=4;overflow=hidden;rotatable=0;points=[[0,0.5],[1,0.5]];portConstraint=eastwest;" vertex="1" parent="48">
                    <mxGeometry y="60" width="160" height="26" as="geometry"/>
                </mxCell>
                <mxCell id="53" value="RasterizerState" style="swimlane;fontStyle=1;align=center;verticalAlign=top;childLayout=stackLayout;horizontal=1;startSize=26;horizontalStack=0;resizeParent=1;resizeParentMax=0;resizeLast=0;collapsible=1;marginBottom=0;" vertex="1" parent="1">
                    <mxGeometry x="880" y="960" width="160" height="86" as="geometry"/>
                </mxCell>
                <mxCell id="54" value="+ field: type" style="text;strokeColor=none;fillColor=none;align=left;verticalAlign=top;spacingLeft=4;spacingRight=4;overflow=hidden;rotatable=0;points=[[0,0.5],[1,0.5]];portConstraint=eastwest;" vertex="1" parent="53">
                    <mxGeometry y="26" width="160" height="26" as="geometry"/>
                </mxCell>
                <mxCell id="55" value="" style="line;strokeWidth=1;fillColor=none;align=left;verticalAlign=middle;spacingTop=-1;spacingLeft=3;spacingRight=3;rotatable=0;labelPosition=right;points=[];portConstraint=eastwest;" vertex="1" parent="53">
                    <mxGeometry y="52" width="160" height="8" as="geometry"/>
                </mxCell>
                <mxCell id="56" value="+ method(type): type" style="text;strokeColor=none;fillColor=none;align=left;verticalAlign=top;spacingLeft=4;spacingRight=4;overflow=hidden;rotatable=0;points=[[0,0.5],[1,0.5]];portConstraint=eastwest;" vertex="1" parent="53">
                    <mxGeometry y="60" width="160" height="26" as="geometry"/>
                </mxCell>
                <mxCell id="63" value="DepthStencilState" style="swimlane;fontStyle=1;align=center;verticalAlign=top;childLayout=stackLayout;horizontal=1;startSize=26;horizontalStack=0;resizeParent=1;resizeParentMax=0;resizeLast=0;collapsible=1;marginBottom=0;" vertex="1" parent="1">
                    <mxGeometry x="1280" y="799" width="160" height="86" as="geometry"/>
                </mxCell>
                <mxCell id="64" value="+ field: type" style="text;strokeColor=none;fillColor=none;align=left;verticalAlign=top;spacingLeft=4;spacingRight=4;overflow=hidden;rotatable=0;points=[[0,0.5],[1,0.5]];portConstraint=eastwest;" vertex="1" parent="63">
                    <mxGeometry y="26" width="160" height="26" as="geometry"/>
                </mxCell>
                <mxCell id="65" value="" style="line;strokeWidth=1;fillColor=none;align=left;verticalAlign=middle;spacingTop=-1;spacingLeft=3;spacingRight=3;rotatable=0;labelPosition=right;points=[];portConstraint=eastwest;" vertex="1" parent="63">
                    <mxGeometry y="52" width="160" height="8" as="geometry"/>
                </mxCell>
                <mxCell id="66" value="+ method(type): type" style="text;strokeColor=none;fillColor=none;align=left;verticalAlign=top;spacingLeft=4;spacingRight=4;overflow=hidden;rotatable=0;points=[[0,0.5],[1,0.5]];portConstraint=eastwest;" vertex="1" parent="63">
                    <mxGeometry y="60" width="160" height="26" as="geometry"/>
                </mxCell>
                <mxCell id="68" value="BlendState" style="swimlane;fontStyle=1;align=center;verticalAlign=top;childLayout=stackLayout;horizontal=1;startSize=26;horizontalStack=0;resizeParent=1;resizeParentMax=0;resizeLast=0;collapsible=1;marginBottom=0;" vertex="1" parent="1">
                    <mxGeometry x="1480" y="799" width="160" height="86" as="geometry"/>
                </mxCell>
                <mxCell id="69" value="+ field: type" style="text;strokeColor=none;fillColor=none;align=left;verticalAlign=top;spacingLeft=4;spacingRight=4;overflow=hidden;rotatable=0;points=[[0,0.5],[1,0.5]];portConstraint=eastwest;" vertex="1" parent="68">
                    <mxGeometry y="26" width="160" height="26" as="geometry"/>
                </mxCell>
                <mxCell id="70" value="" style="line;strokeWidth=1;fillColor=none;align=left;verticalAlign=middle;spacingTop=-1;spacingLeft=3;spacingRight=3;rotatable=0;labelPosition=right;points=[];portConstraint=eastwest;" vertex="1" parent="68">
                    <mxGeometry y="52" width="160" height="8" as="geometry"/>
                </mxCell>
                <mxCell id="71" value="+ method(type): type" style="text;strokeColor=none;fillColor=none;align=left;verticalAlign=top;spacingLeft=4;spacingRight=4;overflow=hidden;rotatable=0;points=[[0,0.5],[1,0.5]];portConstraint=eastwest;" vertex="1" parent="68">
                    <mxGeometry y="60" width="160" height="26" as="geometry"/>
                </mxCell>
                <mxCell id="73" value="IndexBuffer" style="swimlane;fontStyle=1;align=center;verticalAlign=top;childLayout=stackLayout;horizontal=1;startSize=26;horizontalStack=0;resizeParent=1;resizeParentMax=0;resizeLast=0;collapsible=1;marginBottom=0;" vertex="1" parent="1">
                    <mxGeometry x="1680" y="799" width="160" height="86" as="geometry"/>
                </mxCell>
                <mxCell id="74" value="+ field: type" style="text;strokeColor=none;fillColor=none;align=left;verticalAlign=top;spacingLeft=4;spacingRight=4;overflow=hidden;rotatable=0;points=[[0,0.5],[1,0.5]];portConstraint=eastwest;" vertex="1" parent="73">
                    <mxGeometry y="26" width="160" height="26" as="geometry"/>
                </mxCell>
                <mxCell id="75" value="" style="line;strokeWidth=1;fillColor=none;align=left;verticalAlign=middle;spacingTop=-1;spacingLeft=3;spacingRight=3;rotatable=0;labelPosition=right;points=[];portConstraint=eastwest;" vertex="1" parent="73">
                    <mxGeometry y="52" width="160" height="8" as="geometry"/>
                </mxCell>
                <mxCell id="76" value="+ method(type): type" style="text;strokeColor=none;fillColor=none;align=left;verticalAlign=top;spacingLeft=4;spacingRight=4;overflow=hidden;rotatable=0;points=[[0,0.5],[1,0.5]];portConstraint=eastwest;" vertex="1" parent="73">
                    <mxGeometry y="60" width="160" height="26" as="geometry"/>
                </mxCell>
                <mxCell id="78" value="VertexBuffer" style="swimlane;fontStyle=1;align=center;verticalAlign=top;childLayout=stackLayout;horizontal=1;startSize=26;horizontalStack=0;resizeParent=1;resizeParentMax=0;resizeLast=0;collapsible=1;marginBottom=0;" vertex="1" parent="1">
                    <mxGeometry x="1880" y="799" width="160" height="86" as="geometry"/>
                </mxCell>
                <mxCell id="79" value="+ field: type" style="text;strokeColor=none;fillColor=none;align=left;verticalAlign=top;spacingLeft=4;spacingRight=4;overflow=hidden;rotatable=0;points=[[0,0.5],[1,0.5]];portConstraint=eastwest;" vertex="1" parent="78">
                    <mxGeometry y="26" width="160" height="26" as="geometry"/>
                </mxCell>
                <mxCell id="80" value="" style="line;strokeWidth=1;fillColor=none;align=left;verticalAlign=middle;spacingTop=-1;spacingLeft=3;spacingRight=3;rotatable=0;labelPosition=right;points=[];portConstraint=eastwest;" vertex="1" parent="78">
                    <mxGeometry y="52" width="160" height="8" as="geometry"/>
                </mxCell>
                <mxCell id="81" value="+ method(type): type" style="text;strokeColor=none;fillColor=none;align=left;verticalAlign=top;spacingLeft=4;spacingRight=4;overflow=hidden;rotatable=0;points=[[0,0.5],[1,0.5]];portConstraint=eastwest;" vertex="1" parent="78">
                    <mxGeometry y="60" width="160" height="26" as="geometry"/>
                </mxCell>
                <mxCell id="83" value="DepthStencil" style="swimlane;fontStyle=1;align=center;verticalAlign=top;childLayout=stackLayout;horizontal=1;startSize=26;horizontalStack=0;resizeParent=1;resizeParentMax=0;resizeLast=0;collapsible=1;marginBottom=0;" vertex="1" parent="1">
                    <mxGeometry x="1280" y="960" width="160" height="86" as="geometry"/>
                </mxCell>
                <mxCell id="84" value="+ field: type" style="text;strokeColor=none;fillColor=none;align=left;verticalAlign=top;spacingLeft=4;spacingRight=4;overflow=hidden;rotatable=0;points=[[0,0.5],[1,0.5]];portConstraint=eastwest;" vertex="1" parent="83">
                    <mxGeometry y="26" width="160" height="26" as="geometry"/>
                </mxCell>
                <mxCell id="85" value="" style="line;strokeWidth=1;fillColor=none;align=left;verticalAlign=middle;spacingTop=-1;spacingLeft=3;spacingRight=3;rotatable=0;labelPosition=right;points=[];portConstraint=eastwest;" vertex="1" parent="83">
                    <mxGeometry y="52" width="160" height="8" as="geometry"/>
                </mxCell>
                <mxCell id="86" value="+ method(type): type" style="text;strokeColor=none;fillColor=none;align=left;verticalAlign=top;spacingLeft=4;spacingRight=4;overflow=hidden;rotatable=0;points=[[0,0.5],[1,0.5]];portConstraint=eastwest;" vertex="1" parent="83">
                    <mxGeometry y="60" width="160" height="26" as="geometry"/>
                </mxCell>
                <mxCell id="89" value="VertexFormat" style="swimlane;fontStyle=1;align=center;verticalAlign=top;childLayout=stackLayout;horizontal=1;startSize=26;horizontalStack=0;resizeParent=1;resizeParentMax=0;resizeLast=0;collapsible=1;marginBottom=0;" vertex="1" parent="1">
                    <mxGeometry x="1480" y="960" width="160" height="86" as="geometry"/>
                </mxCell>
                <mxCell id="90" value="+ field: type" style="text;strokeColor=none;fillColor=none;align=left;verticalAlign=top;spacingLeft=4;spacingRight=4;overflow=hidden;rotatable=0;points=[[0,0.5],[1,0.5]];portConstraint=eastwest;" vertex="1" parent="89">
                    <mxGeometry y="26" width="160" height="26" as="geometry"/>
                </mxCell>
                <mxCell id="91" value="" style="line;strokeWidth=1;fillColor=none;align=left;verticalAlign=middle;spacingTop=-1;spacingLeft=3;spacingRight=3;rotatable=0;labelPosition=right;points=[];portConstraint=eastwest;" vertex="1" parent="89">
                    <mxGeometry y="52" width="160" height="8" as="geometry"/>
                </mxCell>
                <mxCell id="92" value="+ method(type): type" style="text;strokeColor=none;fillColor=none;align=left;verticalAlign=top;spacingLeft=4;spacingRight=4;overflow=hidden;rotatable=0;points=[[0,0.5],[1,0.5]];portConstraint=eastwest;" vertex="1" parent="89">
                    <mxGeometry y="60" width="160" height="26" as="geometry"/>
                </mxCell>
                <mxCell id="94" value="Font" style="swimlane;fontStyle=1;align=center;verticalAlign=top;childLayout=stackLayout;horizontal=1;startSize=26;horizontalStack=0;resizeParent=1;resizeParentMax=0;resizeLast=0;collapsible=1;marginBottom=0;" vertex="1" parent="1">
                    <mxGeometry x="1680" y="960" width="160" height="86" as="geometry"/>
                </mxCell>
                <mxCell id="95" value="+ field: type" style="text;strokeColor=none;fillColor=none;align=left;verticalAlign=top;spacingLeft=4;spacingRight=4;overflow=hidden;rotatable=0;points=[[0,0.5],[1,0.5]];portConstraint=eastwest;" vertex="1" parent="94">
                    <mxGeometry y="26" width="160" height="26" as="geometry"/>
                </mxCell>
                <mxCell id="96" value="" style="line;strokeWidth=1;fillColor=none;align=left;verticalAlign=middle;spacingTop=-1;spacingLeft=3;spacingRight=3;rotatable=0;labelPosition=right;points=[];portConstraint=eastwest;" vertex="1" parent="94">
                    <mxGeometry y="52" width="160" height="8" as="geometry"/>
                </mxCell>
                <mxCell id="97" value="+ method(type): type" style="text;strokeColor=none;fillColor=none;align=left;verticalAlign=top;spacingLeft=4;spacingRight=4;overflow=hidden;rotatable=0;points=[[0,0.5],[1,0.5]];portConstraint=eastwest;" vertex="1" parent="94">
                    <mxGeometry y="60" width="160" height="26" as="geometry"/>
                </mxCell>
                <mxCell id="99" value="VShader" style="swimlane;fontStyle=1;align=center;verticalAlign=top;childLayout=stackLayout;horizontal=1;startSize=26;horizontalStack=0;resizeParent=1;resizeParentMax=0;resizeLast=0;collapsible=1;marginBottom=0;" vertex="1" collapsed="1" parent="1">
                    <mxGeometry x="200" y="960" width="80" height="26" as="geometry">
                        <mxRectangle x="200" y="960" width="160" height="86" as="alternateBounds"/>
                    </mxGeometry>
                </mxCell>
                <mxCell id="100" value="+ field: type" style="text;strokeColor=none;fillColor=none;align=left;verticalAlign=top;spacingLeft=4;spacingRight=4;overflow=hidden;rotatable=0;points=[[0,0.5],[1,0.5]];portConstraint=eastwest;" vertex="1" parent="99">
                    <mxGeometry y="26" width="80" height="26" as="geometry"/>
                </mxCell>
                <mxCell id="101" value="" style="line;strokeWidth=1;fillColor=none;align=left;verticalAlign=middle;spacingTop=-1;spacingLeft=3;spacingRight=3;rotatable=0;labelPosition=right;points=[];portConstraint=eastwest;" vertex="1" parent="99">
                    <mxGeometry y="52" width="80" height="8" as="geometry"/>
                </mxCell>
                <mxCell id="102" value="+ method(type): type" style="text;strokeColor=none;fillColor=none;align=left;verticalAlign=top;spacingLeft=4;spacingRight=4;overflow=hidden;rotatable=0;points=[[0,0.5],[1,0.5]];portConstraint=eastwest;" vertex="1" parent="99">
                    <mxGeometry y="60" width="80" height="26" as="geometry"/>
                </mxCell>
                <mxCell id="104" value="PShader" style="swimlane;fontStyle=1;align=center;verticalAlign=top;childLayout=stackLayout;horizontal=1;startSize=26;horizontalStack=0;resizeParent=1;resizeParentMax=0;resizeLast=0;collapsible=1;marginBottom=0;" vertex="1" collapsed="1" parent="1">
                    <mxGeometry x="400" y="960" width="80" height="26" as="geometry">
                        <mxRectangle x="400" y="960" width="160" height="86" as="alternateBounds"/>
                    </mxGeometry>
                </mxCell>
                <mxCell id="105" value="+ field: type" style="text;strokeColor=none;fillColor=none;align=left;verticalAlign=top;spacingLeft=4;spacingRight=4;overflow=hidden;rotatable=0;points=[[0,0.5],[1,0.5]];portConstraint=eastwest;" vertex="1" parent="104">
                    <mxGeometry y="26" width="80" height="26" as="geometry"/>
                </mxCell>
                <mxCell id="106" value="" style="line;strokeWidth=1;fillColor=none;align=left;verticalAlign=middle;spacingTop=-1;spacingLeft=3;spacingRight=3;rotatable=0;labelPosition=right;points=[];portConstraint=eastwest;" vertex="1" parent="104">
                    <mxGeometry y="52" width="80" height="8" as="geometry"/>
                </mxCell>
                <mxCell id="107" value="+ method(type): type" style="text;strokeColor=none;fillColor=none;align=left;verticalAlign=top;spacingLeft=4;spacingRight=4;overflow=hidden;rotatable=0;points=[[0,0.5],[1,0.5]];portConstraint=eastwest;" vertex="1" parent="104">
                    <mxGeometry y="60" width="80" height="26" as="geometry"/>
                </mxCell>
                <mxCell id="109" value="1DTexture" style="swimlane;fontStyle=1;align=center;verticalAlign=top;childLayout=stackLayout;horizontal=1;startSize=26;horizontalStack=0;resizeParent=1;resizeParentMax=0;resizeLast=0;collapsible=1;marginBottom=0;" vertex="1" parent="1">
                    <mxGeometry x="400" y="1160" width="160" height="86" as="geometry">
                        <mxRectangle x="400" y="1160" width="90" height="26" as="alternateBounds"/>
                    </mxGeometry>
                </mxCell>
                <mxCell id="110" value="+ field: type" style="text;strokeColor=none;fillColor=none;align=left;verticalAlign=top;spacingLeft=4;spacingRight=4;overflow=hidden;rotatable=0;points=[[0,0.5],[1,0.5]];portConstraint=eastwest;" vertex="1" parent="109">
                    <mxGeometry y="26" width="160" height="26" as="geometry"/>
                </mxCell>
                <mxCell id="111" value="" style="line;strokeWidth=1;fillColor=none;align=left;verticalAlign=middle;spacingTop=-1;spacingLeft=3;spacingRight=3;rotatable=0;labelPosition=right;points=[];portConstraint=eastwest;" vertex="1" parent="109">
                    <mxGeometry y="52" width="160" height="8" as="geometry"/>
                </mxCell>
                <mxCell id="112" value="+ method(type): type" style="text;strokeColor=none;fillColor=none;align=left;verticalAlign=top;spacingLeft=4;spacingRight=4;overflow=hidden;rotatable=0;points=[[0,0.5],[1,0.5]];portConstraint=eastwest;" vertex="1" parent="109">
                    <mxGeometry y="60" width="160" height="26" as="geometry"/>
                </mxCell>
                <mxCell id="114" value="2DTexture" style="swimlane;fontStyle=1;align=center;verticalAlign=top;childLayout=stackLayout;horizontal=1;startSize=26;horizontalStack=0;resizeParent=1;resizeParentMax=0;resizeLast=0;collapsible=1;marginBottom=0;" vertex="1" parent="1">
                    <mxGeometry x="600" y="1160" width="160" height="86" as="geometry">
                        <mxRectangle x="600" y="1160" width="85" height="26" as="alternateBounds"/>
                    </mxGeometry>
                </mxCell>
                <mxCell id="115" value="+ field: type" style="text;strokeColor=none;fillColor=none;align=left;verticalAlign=top;spacingLeft=4;spacingRight=4;overflow=hidden;rotatable=0;points=[[0,0.5],[1,0.5]];portConstraint=eastwest;" vertex="1" parent="114">
                    <mxGeometry y="26" width="160" height="26" as="geometry"/>
                </mxCell>
                <mxCell id="116" value="" style="line;strokeWidth=1;fillColor=none;align=left;verticalAlign=middle;spacingTop=-1;spacingLeft=3;spacingRight=3;rotatable=0;labelPosition=right;points=[];portConstraint=eastwest;" vertex="1" parent="114">
                    <mxGeometry y="52" width="160" height="8" as="geometry"/>
                </mxCell>
                <mxCell id="117" value="+ method(type): type" style="text;strokeColor=none;fillColor=none;align=left;verticalAlign=top;spacingLeft=4;spacingRight=4;overflow=hidden;rotatable=0;points=[[0,0.5],[1,0.5]];portConstraint=eastwest;" vertex="1" parent="114">
                    <mxGeometry y="60" width="160" height="26" as="geometry"/>
                </mxCell>
                <mxCell id="119" value="3DTexture" style="swimlane;fontStyle=1;align=center;verticalAlign=top;childLayout=stackLayout;horizontal=1;startSize=26;horizontalStack=0;resizeParent=1;resizeParentMax=0;resizeLast=0;collapsible=1;marginBottom=0;" vertex="1" parent="1">
                    <mxGeometry x="800" y="1160" width="160" height="86" as="geometry">
                        <mxRectangle x="680" y="799" width="80" height="26" as="alternateBounds"/>
                    </mxGeometry>
                </mxCell>
                <mxCell id="120" value="+ field: type" style="text;strokeColor=none;fillColor=none;align=left;verticalAlign=top;spacingLeft=4;spacingRight=4;overflow=hidden;rotatable=0;points=[[0,0.5],[1,0.5]];portConstraint=eastwest;" vertex="1" parent="119">
                    <mxGeometry y="26" width="160" height="26" as="geometry"/>
                </mxCell>
                <mxCell id="121" value="" style="line;strokeWidth=1;fillColor=none;align=left;verticalAlign=middle;spacingTop=-1;spacingLeft=3;spacingRight=3;rotatable=0;labelPosition=right;points=[];portConstraint=eastwest;" vertex="1" parent="119">
                    <mxGeometry y="52" width="160" height="8" as="geometry"/>
                </mxCell>
                <mxCell id="122" value="+ method(type): type" style="text;strokeColor=none;fillColor=none;align=left;verticalAlign=top;spacingLeft=4;spacingRight=4;overflow=hidden;rotatable=0;points=[[0,0.5],[1,0.5]];portConstraint=eastwest;" vertex="1" parent="119">
                    <mxGeometry y="60" width="160" height="26" as="geometry"/>
                </mxCell>
                <mxCell id="124" value="CubeTexture" style="swimlane;fontStyle=1;align=center;verticalAlign=top;childLayout=stackLayout;horizontal=1;startSize=26;horizontalStack=0;resizeParent=1;resizeParentMax=0;resizeLast=0;collapsible=1;marginBottom=0;" vertex="1" parent="1">
                    <mxGeometry x="1000" y="1160" width="160" height="86" as="geometry">
                        <mxRectangle x="680" y="799" width="80" height="26" as="alternateBounds"/>
                    </mxGeometry>
                </mxCell>
                <mxCell id="125" value="+ field: type" style="text;strokeColor=none;fillColor=none;align=left;verticalAlign=top;spacingLeft=4;spacingRight=4;overflow=hidden;rotatable=0;points=[[0,0.5],[1,0.5]];portConstraint=eastwest;" vertex="1" parent="124">
                    <mxGeometry y="26" width="160" height="26" as="geometry"/>
                </mxCell>
                <mxCell id="126" value="" style="line;strokeWidth=1;fillColor=none;align=left;verticalAlign=middle;spacingTop=-1;spacingLeft=3;spacingRight=3;rotatable=0;labelPosition=right;points=[];portConstraint=eastwest;" vertex="1" parent="124">
                    <mxGeometry y="52" width="160" height="8" as="geometry"/>
                </mxCell>
                <mxCell id="127" value="+ method(type): type" style="text;strokeColor=none;fillColor=none;align=left;verticalAlign=top;spacingLeft=4;spacingRight=4;overflow=hidden;rotatable=0;points=[[0,0.5],[1,0.5]];portConstraint=eastwest;" vertex="1" parent="124">
                    <mxGeometry y="60" width="160" height="26" as="geometry"/>
                </mxCell>
                <mxCell id="129" value="MemBind" style="swimlane;fontStyle=1;align=center;verticalAlign=top;childLayout=stackLayout;horizontal=1;startSize=26;horizontalStack=0;resizeParent=1;resizeParentMax=0;resizeLast=0;collapsible=1;marginBottom=0;" vertex="1" parent="1">
                    <mxGeometry x="680" y="799" width="160" height="86" as="geometry">
                        <mxRectangle x="680" y="799" width="80" height="26" as="alternateBounds"/>
                    </mxGeometry>
                </mxCell>
                <mxCell id="130" value="+ field: type" style="text;strokeColor=none;fillColor=none;align=left;verticalAlign=top;spacingLeft=4;spacingRight=4;overflow=hidden;rotatable=0;points=[[0,0.5],[1,0.5]];portConstraint=eastwest;" vertex="1" parent="129">
                    <mxGeometry y="26" width="160" height="26" as="geometry"/>
                </mxCell>
                <mxCell id="131" value="" style="line;strokeWidth=1;fillColor=none;align=left;verticalAlign=middle;spacingTop=-1;spacingLeft=3;spacingRight=3;rotatable=0;labelPosition=right;points=[];portConstraint=eastwest;" vertex="1" parent="129">
                    <mxGeometry y="52" width="160" height="8" as="geometry"/>
                </mxCell>
                <mxCell id="132" value="+ method(type): type" style="text;strokeColor=none;fillColor=none;align=left;verticalAlign=top;spacingLeft=4;spacingRight=4;overflow=hidden;rotatable=0;points=[[0,0.5],[1,0.5]];portConstraint=eastwest;" vertex="1" parent="129">
                    <mxGeometry y="60" width="160" height="26" as="geometry"/>
                </mxCell>
            </root>
        </mxGraphModel>
    </diagram>
</mxfile>